<svg width="362" height="782" viewBox="0 0 362 782" fill="none" xmlns="http://www.w3.org/2000/svg">
<path d="M361 1H1V781H361V1Z" fill="white" stroke="#D1D5DB" stroke-width="2"/>
<path d="M329 17H33C24.1634 17 17 24.1634 17 33V281C17 289.837 24.1634 297 33 297H329C337.837 297 345 289.837 345 281V33C345 24.1634 337.837 17 329 17Z" fill="#E5E7EB"/>
<path d="M106.232 153.068V140.341H109.175V141.315H107.345V152.094H109.175V153.068H106.232ZM117.665 141.158H118.561V141.34C118.561 141.853 118.411 142.325 118.113 142.754C117.814 143.174 117.399 143.529 116.867 143.818C116.335 144.107 115.719 144.317 115.019 144.448L114.613 143.608C115.201 143.505 115.723 143.347 116.181 143.132C116.638 142.917 116.997 142.656 117.259 142.348C117.529 142.04 117.665 141.704 117.665 141.34V141.158ZM117.917 141.158H118.813V141.34C118.813 141.685 118.943 142.003 119.205 142.292C119.475 142.581 119.839 142.829 120.297 143.034C120.763 143.23 121.281 143.375 121.851 143.468L121.445 144.322C120.754 144.201 120.143 144 119.611 143.72C119.088 143.44 118.673 143.099 118.365 142.698C118.066 142.287 117.917 141.835 117.917 141.34V141.158ZM114.907 140.5H121.571V141.368H114.907V140.5ZM117.665 143.874H118.813V145.68H117.665V143.874ZM117.665 139.394H118.813V140.906H117.665V139.394ZM115.901 147.164H124.105V149.908H117.077V151.462H115.929V149.082H122.957V148.032H115.901V147.164ZM115.929 151.056H124.581V151.952H115.929V151.056ZM122.943 139.422H124.105V146.604H122.943V139.422ZM123.615 142.46H125.953V143.412H123.615V142.46ZM114.417 146.212L114.277 145.302C115.033 145.302 115.854 145.297 116.741 145.288C117.637 145.269 118.551 145.232 119.485 145.176C120.418 145.12 121.309 145.036 122.159 144.924L122.243 145.736C121.356 145.885 120.451 145.993 119.527 146.058C118.612 146.123 117.716 146.165 116.839 146.184C115.961 146.203 115.154 146.212 114.417 146.212ZM132.938 141.256H136.788V142.194H132.938V141.256ZM132.938 144.168H136.788V145.12H132.938V144.168ZM130.628 140.178C131.244 140.178 131.794 140.309 132.28 140.57C132.774 140.822 133.162 141.177 133.442 141.634C133.731 142.082 133.876 142.6 133.876 143.188C133.876 143.776 133.731 144.299 133.442 144.756C133.162 145.204 132.774 145.559 132.28 145.82C131.794 146.072 131.244 146.198 130.628 146.198C130.002 146.198 129.442 146.072 128.948 145.82C128.462 145.559 128.075 145.204 127.786 144.756C127.506 144.299 127.366 143.776 127.366 143.188C127.366 142.6 127.506 142.082 127.786 141.634C128.075 141.177 128.462 140.822 128.948 140.57C129.442 140.309 130.002 140.178 130.628 140.178ZM130.628 141.172C130.217 141.172 129.848 141.256 129.522 141.424C129.195 141.592 128.938 141.83 128.752 142.138C128.565 142.437 128.472 142.787 128.472 143.188C128.472 143.58 128.565 143.93 128.752 144.238C128.938 144.537 129.195 144.775 129.522 144.952C129.848 145.12 130.217 145.204 130.628 145.204C131.038 145.204 131.402 145.12 131.72 144.952C132.046 144.775 132.303 144.537 132.49 144.238C132.676 143.93 132.77 143.58 132.77 143.188C132.77 142.787 132.676 142.437 132.49 142.138C132.303 141.83 132.046 141.592 131.72 141.424C131.402 141.256 131.038 141.172 130.628 141.172ZM136.424 139.422H137.586V146.912H136.424V139.422ZM133.414 147.22C134.291 147.22 135.042 147.318 135.668 147.514C136.293 147.701 136.774 147.976 137.11 148.34C137.455 148.695 137.628 149.129 137.628 149.642C137.628 150.146 137.455 150.58 137.11 150.944C136.774 151.308 136.293 151.583 135.668 151.77C135.042 151.966 134.291 152.064 133.414 152.064C132.546 152.064 131.794 151.966 131.16 151.77C130.534 151.583 130.049 151.308 129.704 150.944C129.368 150.58 129.2 150.146 129.2 149.642C129.2 149.129 129.368 148.695 129.704 148.34C130.049 147.976 130.534 147.701 131.16 147.514C131.794 147.318 132.546 147.22 133.414 147.22ZM133.414 148.13C132.779 148.13 132.228 148.191 131.762 148.312C131.304 148.433 130.95 148.606 130.698 148.83C130.455 149.054 130.334 149.325 130.334 149.642C130.334 149.95 130.455 150.216 130.698 150.44C130.95 150.664 131.304 150.837 131.762 150.958C132.228 151.079 132.779 151.14 133.414 151.14C134.058 151.14 134.608 151.079 135.066 150.958C135.523 150.837 135.873 150.664 136.116 150.44C136.368 150.216 136.494 149.95 136.494 149.642C136.494 149.325 136.368 149.054 136.116 148.83C135.873 148.606 135.523 148.433 135.066 148.312C134.608 148.191 134.058 148.13 133.414 148.13ZM141.239 143.566H147.343V144.504H141.239V143.566ZM143.675 144.14H144.837V146.66H143.675V144.14ZM141.239 140.248H147.245V141.2H142.401V143.972H141.239V140.248ZM149.247 139.436H150.409V148.9H149.247V139.436ZM142.219 150.86H150.829V151.812H142.219V150.86ZM142.219 148.27H143.381V151.266H142.219V148.27ZM140.273 147.304L140.105 146.352C140.917 146.343 141.785 146.329 142.709 146.31C143.633 146.291 144.566 146.259 145.509 146.212C146.451 146.156 147.357 146.081 148.225 145.988L148.309 146.842C147.413 146.963 146.493 147.061 145.551 147.136C144.617 147.201 143.698 147.248 142.793 147.276C141.897 147.295 141.057 147.304 140.273 147.304ZM157.219 151V150.105L160.58 146.426C160.974 145.995 161.299 145.621 161.554 145.303C161.809 144.981 161.998 144.679 162.121 144.398C162.247 144.113 162.31 143.814 162.31 143.503C162.31 143.145 162.224 142.835 162.051 142.573C161.882 142.311 161.65 142.109 161.355 141.967C161.06 141.824 160.729 141.753 160.361 141.753C159.97 141.753 159.629 141.834 159.337 141.996C159.049 142.156 158.825 142.379 158.666 142.668C158.51 142.956 158.432 143.294 158.432 143.682H157.259C157.259 143.085 157.396 142.562 157.671 142.111C157.947 141.66 158.321 141.309 158.795 141.057C159.272 140.805 159.808 140.679 160.401 140.679C160.997 140.679 161.526 140.805 161.987 141.057C162.447 141.309 162.809 141.648 163.071 142.076C163.332 142.504 163.463 142.979 163.463 143.503C163.463 143.877 163.395 144.244 163.259 144.602C163.127 144.956 162.895 145.352 162.563 145.79C162.235 146.224 161.78 146.754 161.196 147.381L158.909 149.827V149.906H163.642V151H157.219ZM166.59 143.364L168.42 146.486L170.25 143.364H171.602L169.136 147.182L171.602 151H170.25L168.42 148.037L166.59 151H165.238L167.664 147.182L165.238 143.364H166.59ZM181.978 145.848H183.126V148.046H181.978V145.848ZM181.81 140.388H182.832V140.766C182.832 141.177 182.743 141.559 182.566 141.914C182.398 142.259 182.16 142.577 181.852 142.866C181.544 143.155 181.18 143.412 180.76 143.636C180.349 143.86 179.901 144.047 179.416 144.196C178.93 144.336 178.422 144.439 177.89 144.504L177.47 143.58C177.927 143.533 178.366 143.454 178.786 143.342C179.215 143.221 179.612 143.076 179.976 142.908C180.349 142.731 180.671 142.53 180.942 142.306C181.212 142.082 181.422 141.844 181.572 141.592C181.73 141.331 181.81 141.055 181.81 140.766V140.388ZM182.286 140.388H183.308V140.766C183.308 141.055 183.382 141.331 183.532 141.592C183.69 141.844 183.905 142.082 184.176 142.306C184.446 142.521 184.764 142.717 185.128 142.894C185.501 143.062 185.898 143.207 186.318 143.328C186.747 143.449 187.19 143.533 187.648 143.58L187.228 144.504C186.696 144.439 186.187 144.336 185.702 144.196C185.216 144.047 184.764 143.865 184.344 143.65C183.933 143.426 183.574 143.169 183.266 142.88C182.958 142.581 182.715 142.259 182.538 141.914C182.37 141.559 182.286 141.177 182.286 140.766V140.388ZM177.89 139.926H187.242V140.864H177.89V139.926ZM178.24 147.78H186.878V151.924H178.24V147.78ZM185.744 148.718H179.374V150.972H185.744V148.718ZM176.84 145.246H188.278V146.198H176.84V145.246ZM196.75 140.514H197.702V142.782C197.702 143.482 197.613 144.168 197.436 144.84C197.268 145.512 197.025 146.142 196.708 146.73C196.391 147.318 196.017 147.841 195.588 148.298C195.159 148.755 194.692 149.119 194.188 149.39L193.474 148.452C193.941 148.219 194.37 147.906 194.762 147.514C195.163 147.113 195.513 146.655 195.812 146.142C196.111 145.629 196.339 145.087 196.498 144.518C196.666 143.939 196.75 143.361 196.75 142.782V140.514ZM196.96 140.514H197.898V142.782C197.898 143.342 197.977 143.897 198.136 144.448C198.304 144.999 198.537 145.517 198.836 146.002C199.135 146.487 199.475 146.921 199.858 147.304C200.25 147.687 200.67 147.99 201.118 148.214L200.404 149.138C199.909 148.886 199.452 148.541 199.032 148.102C198.621 147.663 198.257 147.164 197.94 146.604C197.632 146.035 197.389 145.428 197.212 144.784C197.044 144.131 196.96 143.463 196.96 142.782V140.514ZM202.224 139.422H203.386V152.092H202.224V139.422ZM203.12 144.546H205.458V145.54H203.12V144.546ZM209.909 140.808H210.875V142.11C210.875 142.885 210.726 143.603 210.427 144.266C210.128 144.929 209.708 145.512 209.167 146.016C208.635 146.511 208.014 146.884 207.305 147.136L206.703 146.226C207.338 145.993 207.893 145.671 208.369 145.26C208.854 144.849 209.232 144.373 209.503 143.832C209.774 143.281 209.909 142.707 209.909 142.11V140.808ZM210.133 140.808H211.085V142.11C211.085 142.539 211.16 142.955 211.309 143.356C211.468 143.748 211.692 144.117 211.981 144.462C212.27 144.798 212.606 145.097 212.989 145.358C213.381 145.619 213.81 145.825 214.277 145.974L213.689 146.884C212.989 146.641 212.373 146.287 211.841 145.82C211.309 145.353 210.889 144.803 210.581 144.168C210.282 143.533 210.133 142.847 210.133 142.11V140.808ZM207.011 140.472H213.941V141.424H207.011V140.472ZM215.747 139.436H216.909V148.704H215.747V139.436ZM208.775 150.86H217.301V151.812H208.775V150.86ZM208.775 147.836H209.937V151.28H208.775V147.836ZM229.119 141.256H232.969V142.194H229.119V141.256ZM229.119 144.168H232.969V145.12H229.119V144.168ZM226.809 140.178C227.425 140.178 227.976 140.309 228.461 140.57C228.956 140.822 229.343 141.177 229.623 141.634C229.913 142.082 230.057 142.6 230.057 143.188C230.057 143.776 229.913 144.299 229.623 144.756C229.343 145.204 228.956 145.559 228.461 145.82C227.976 146.072 227.425 146.198 226.809 146.198C226.184 146.198 225.624 146.072 225.129 145.82C224.644 145.559 224.257 145.204 223.967 144.756C223.687 144.299 223.547 143.776 223.547 143.188C223.547 142.6 223.687 142.082 223.967 141.634C224.257 141.177 224.644 140.822 225.129 140.57C225.624 140.309 226.184 140.178 226.809 140.178ZM226.809 141.172C226.399 141.172 226.03 141.256 225.703 141.424C225.377 141.592 225.12 141.83 224.933 142.138C224.747 142.437 224.653 142.787 224.653 143.188C224.653 143.58 224.747 143.93 224.933 144.238C225.12 144.537 225.377 144.775 225.703 144.952C226.03 145.12 226.399 145.204 226.809 145.204C227.22 145.204 227.584 145.12 227.901 144.952C228.228 144.775 228.485 144.537 228.671 144.238C228.858 143.93 228.951 143.58 228.951 143.188C228.951 142.787 228.858 142.437 228.671 142.138C228.485 141.83 228.228 141.592 227.901 141.424C227.584 141.256 227.22 141.172 226.809 141.172ZM232.605 139.422H233.767V146.912H232.605V139.422ZM229.595 147.22C230.473 147.22 231.224 147.318 231.849 147.514C232.475 147.701 232.955 147.976 233.291 148.34C233.637 148.695 233.809 149.129 233.809 149.642C233.809 150.146 233.637 150.58 233.291 150.944C232.955 151.308 232.475 151.583 231.849 151.77C231.224 151.966 230.473 152.064 229.595 152.064C228.727 152.064 227.976 151.966 227.341 151.77C226.716 151.583 226.231 151.308 225.885 150.944C225.549 150.58 225.381 150.146 225.381 149.642C225.381 149.129 225.549 148.695 225.885 148.34C226.231 147.976 226.716 147.701 227.341 147.514C227.976 147.318 228.727 147.22 229.595 147.22ZM229.595 148.13C228.961 148.13 228.41 148.191 227.943 148.312C227.486 148.433 227.131 148.606 226.879 148.83C226.637 149.054 226.515 149.325 226.515 149.642C226.515 149.95 226.637 150.216 226.879 150.44C227.131 150.664 227.486 150.837 227.943 150.958C228.41 151.079 228.961 151.14 229.595 151.14C230.239 151.14 230.79 151.079 231.247 150.958C231.705 150.837 232.055 150.664 232.297 150.44C232.549 150.216 232.675 149.95 232.675 149.642C232.675 149.325 232.549 149.054 232.297 148.83C232.055 148.606 231.705 148.433 231.247 148.312C230.79 148.191 230.239 148.13 229.595 148.13ZM241.998 141.284H245.848V142.236H241.998V141.284ZM241.998 144.126H245.848V145.078H241.998V144.126ZM238.19 147.584H246.646V152.092H245.484V148.522H238.19V147.584ZM245.484 139.422H246.646V146.884H245.484V139.422ZM239.688 140.136C240.304 140.136 240.855 140.267 241.34 140.528C241.835 140.78 242.222 141.139 242.502 141.606C242.792 142.063 242.936 142.586 242.936 143.174C242.936 143.771 242.792 144.299 242.502 144.756C242.222 145.213 241.835 145.573 241.34 145.834C240.855 146.095 240.304 146.226 239.688 146.226C239.063 146.226 238.503 146.095 238.008 145.834C237.523 145.573 237.136 145.213 236.846 144.756C236.566 144.299 236.426 143.771 236.426 143.174C236.426 142.586 236.566 142.063 236.846 141.606C237.136 141.139 237.523 140.78 238.008 140.528C238.503 140.267 239.063 140.136 239.688 140.136ZM239.688 141.13C239.278 141.13 238.909 141.219 238.582 141.396C238.256 141.573 237.999 141.816 237.812 142.124C237.626 142.432 237.532 142.782 237.532 143.174C237.532 143.575 237.626 143.935 237.812 144.252C237.999 144.56 238.256 144.803 238.582 144.98C238.909 145.148 239.278 145.232 239.688 145.232C240.09 145.232 240.454 145.148 240.78 144.98C241.107 144.803 241.364 144.56 241.55 144.252C241.737 143.935 241.83 143.575 241.83 143.174C241.83 142.782 241.737 142.432 241.55 142.124C241.364 141.816 241.107 141.573 240.78 141.396C240.454 141.219 240.09 141.13 239.688 141.13ZM255.767 140.341V153.068H252.824V152.094H254.653V141.315H252.824V140.341H255.767Z" fill="#9CA3AF"/>
<path d="M331 265C331 255.059 322.941 247 313 247C303.059 247 295 255.059 295 265C295 274.941 303.059 283 313 283C322.941 283 331 274.941 331 265Z" fill="black" fill-opacity="0.5"/>
<path d="M305 270.12H321V254.12H305V270.12Z" fill="white"/>
<path d="M29.08 322.504C29.7413 322.504 30.3227 322.659 30.824 322.968C31.336 323.267 31.736 323.688 32.024 324.232C32.3227 324.776 32.472 325.405 32.472 326.12C32.472 326.824 32.3227 327.453 32.024 328.008C31.736 328.552 31.336 328.979 30.824 329.288C30.3227 329.587 29.7413 329.736 29.08 329.736C28.4293 329.736 27.848 329.587 27.336 329.288C26.824 328.979 26.424 328.552 26.136 328.008C25.848 327.453 25.704 326.824 25.704 326.12C25.704 325.405 25.848 324.776 26.136 324.232C26.424 323.688 26.824 323.267 27.336 322.968C27.848 322.659 28.4293 322.504 29.08 322.504ZM29.08 324.28C28.792 324.28 28.536 324.355 28.312 324.504C28.088 324.653 27.9173 324.861 27.8 325.128C27.6827 325.395 27.624 325.725 27.624 326.12C27.624 326.504 27.6827 326.835 27.8 327.112C27.9173 327.389 28.088 327.603 28.312 327.752C28.536 327.891 28.792 327.96 29.08 327.96C29.368 327.96 29.624 327.891 29.848 327.752C30.072 327.603 30.2427 327.389 30.36 327.112C30.488 326.835 30.552 326.504 30.552 326.12C30.552 325.725 30.488 325.395 30.36 325.128C30.2427 324.861 30.072 324.653 29.848 324.504C29.624 324.355 29.368 324.28 29.08 324.28ZM36.248 321.608H38.28V330.44H36.248V321.608ZM34.488 325.192H36.84V326.904H34.488V325.192ZM33.144 321.864H35.128V330.392H33.144V321.864ZM28.088 331.112H38.28V336.424H36.152V332.808H28.088V331.112ZM48.4068 325.176H51.2228V326.904H48.4068V325.176ZM50.6308 321.608H52.7748V330.408H50.6308V321.608ZM47.7508 330.728C48.7961 330.728 49.6974 330.84 50.4548 331.064C51.2121 331.288 51.7934 331.613 52.1988 332.04C52.6148 332.467 52.8228 332.979 52.8228 333.576C52.8228 334.493 52.3694 335.197 51.4628 335.688C50.5561 336.189 49.3188 336.44 47.7508 336.44C46.1828 336.44 44.9454 336.189 44.0388 335.688C43.1321 335.197 42.6788 334.493 42.6788 333.576C42.6788 332.979 42.8814 332.467 43.2868 332.04C43.7028 331.613 44.2894 331.288 45.0468 331.064C45.8041 330.84 46.7054 330.728 47.7508 330.728ZM47.7508 332.344C47.1108 332.344 46.5721 332.392 46.1348 332.488C45.6974 332.573 45.3614 332.707 45.1268 332.888C44.9028 333.069 44.7908 333.299 44.7908 333.576C44.7908 333.853 44.9028 334.088 45.1268 334.28C45.3614 334.461 45.6974 334.6 46.1348 334.696C46.5721 334.781 47.1108 334.824 47.7508 334.824C48.3908 334.824 48.9294 334.781 49.3668 334.696C49.8041 334.6 50.1348 334.461 50.3588 334.28C50.5828 334.088 50.6948 333.853 50.6948 333.576C50.6948 333.299 50.5828 333.069 50.3588 332.888C50.1348 332.707 49.8041 332.573 49.3668 332.488C48.9294 332.392 48.3908 332.344 47.7508 332.344ZM43.7988 323.08H45.5268V324.024C45.5268 324.963 45.3774 325.859 45.0788 326.712C44.7801 327.565 44.3214 328.317 43.7028 328.968C43.0948 329.608 42.3161 330.088 41.3668 330.408L40.2948 328.728C40.9028 328.525 41.4254 328.253 41.8628 327.912C42.3108 327.571 42.6734 327.192 42.9508 326.776C43.2388 326.349 43.4521 325.901 43.5908 325.432C43.7294 324.963 43.7988 324.493 43.7988 324.024V323.08ZM44.2468 323.08H45.9428V324.008C45.9428 324.595 46.0601 325.171 46.2948 325.736C46.5294 326.301 46.8921 326.813 47.3828 327.272C47.8841 327.731 48.5241 328.093 49.3028 328.36L48.2628 330.024C47.3454 329.715 46.5881 329.261 45.9908 328.664C45.4041 328.056 44.9668 327.352 44.6788 326.552C44.3908 325.741 44.2468 324.893 44.2468 324.008V323.08ZM40.8708 322.504H48.8388V324.184H40.8708V322.504ZM61.0135 327.048H63.4455V328.76H61.0135V327.048ZM65.7815 321.592H67.8135V336.408H65.7815V321.592ZM62.7735 321.832H64.7575V335.752H62.7735V321.832ZM58.4215 322.632C59.0722 322.632 59.6375 322.851 60.1175 323.288C60.6082 323.715 60.9815 324.333 61.2375 325.144C61.5042 325.944 61.6375 326.904 61.6375 328.024C61.6375 329.133 61.5042 330.093 61.2375 330.904C60.9815 331.715 60.6082 332.339 60.1175 332.776C59.6375 333.203 59.0668 333.416 58.4055 333.416C57.7655 333.416 57.2002 333.203 56.7095 332.776C56.2295 332.339 55.8562 331.715 55.5895 330.904C55.3335 330.093 55.2055 329.133 55.2055 328.024C55.2055 326.904 55.3335 325.944 55.5895 325.144C55.8562 324.333 56.2295 323.715 56.7095 323.288C57.2002 322.851 57.7708 322.632 58.4215 322.632ZM58.4215 324.648C58.1548 324.648 57.9255 324.771 57.7335 325.016C57.5415 325.261 57.3922 325.635 57.2855 326.136C57.1895 326.627 57.1415 327.256 57.1415 328.024C57.1415 328.771 57.1895 329.395 57.2855 329.896C57.3922 330.397 57.5415 330.776 57.7335 331.032C57.9255 331.277 58.1548 331.4 58.4215 331.4C58.6882 331.4 58.9175 331.277 59.1095 331.032C59.3122 330.776 59.4615 330.397 59.5575 329.896C59.6535 329.395 59.7015 328.771 59.7015 328.024C59.7015 327.256 59.6535 326.627 59.5575 326.136C59.4615 325.635 59.3122 325.261 59.1095 325.016C58.9175 324.771 58.6882 324.648 58.4215 324.648ZM76.8114 329.656H78.9234V333.64H76.8114V329.656ZM81.4674 329.672H83.5794V333.656H81.4674V329.672ZM73.5154 333.08H86.9394V334.792H73.5154V333.08ZM74.5394 322.76H85.8354V324.472H74.5394V322.76ZM74.6194 328.616H85.7874V330.296H74.6194V328.616ZM76.5554 324.168H78.6834V328.856H76.5554V324.168ZM81.6914 324.168H83.8194V328.856H81.6914V324.168ZM91.8341 322.744H93.5781V324.888C93.5781 325.848 93.4928 326.771 93.3221 327.656C93.1515 328.531 92.8901 329.352 92.5381 330.12C92.1968 330.877 91.7541 331.549 91.2101 332.136C90.6768 332.712 90.0421 333.171 89.3061 333.512L88.0421 331.752C88.6928 331.464 89.2528 331.085 89.7221 330.616C90.2021 330.136 90.5968 329.592 90.9061 328.984C91.2155 328.365 91.4448 327.709 91.5941 327.016C91.7541 326.323 91.8341 325.613 91.8341 324.888V322.744ZM92.2501 322.744H93.9781V324.888C93.9781 325.581 94.0528 326.259 94.2021 326.92C94.3515 327.581 94.5755 328.205 94.8741 328.792C95.1835 329.379 95.5675 329.901 96.0261 330.36C96.4955 330.808 97.0448 331.165 97.6741 331.432L96.4421 333.16C95.7275 332.829 95.1035 332.387 94.5701 331.832C94.0475 331.277 93.6155 330.637 93.2741 329.912C92.9328 329.176 92.6768 328.387 92.5061 327.544C92.3355 326.691 92.2501 325.805 92.2501 324.888V322.744ZM98.3941 321.576H100.522V336.44H98.3941V321.576ZM104.233 326.136H111.497V327.816H104.233V326.136ZM106.777 327.224H108.921V330.056H106.777V327.224ZM104.233 322.504H111.417V324.184H106.361V326.84H104.233V322.504ZM113.161 321.592H115.289V332.744H113.161V321.592ZM105.257 334.456H115.689V336.168H105.257V334.456ZM105.257 331.96H107.401V335.112H105.257V331.96ZM103.273 331.064L103.017 329.384C103.956 329.384 104.948 329.379 105.993 329.368C107.038 329.347 108.094 329.315 109.161 329.272C110.238 329.219 111.273 329.144 112.265 329.048L112.425 330.568C111.39 330.717 110.34 330.829 109.273 330.904C108.217 330.968 107.182 331.011 106.169 331.032C105.156 331.053 104.19 331.064 103.273 331.064ZM126.959 322.024H128.815V322.728C128.815 323.293 128.724 323.843 128.543 324.376C128.372 324.899 128.116 325.389 127.775 325.848C127.433 326.307 127.017 326.717 126.527 327.08C126.036 327.443 125.465 327.752 124.815 328.008C124.175 328.253 123.471 328.44 122.703 328.568L121.871 326.856C122.553 326.771 123.161 326.627 123.695 326.424C124.239 326.221 124.713 325.981 125.119 325.704C125.535 325.427 125.876 325.123 126.143 324.792C126.409 324.461 126.612 324.12 126.751 323.768C126.889 323.416 126.959 323.069 126.959 322.728V322.024ZM127.359 322.024H129.215V322.728C129.215 323.069 129.284 323.416 129.423 323.768C129.561 324.12 129.764 324.461 130.031 324.792C130.297 325.123 130.633 325.427 131.039 325.704C131.455 325.981 131.929 326.221 132.463 326.424C133.007 326.627 133.62 326.771 134.303 326.856L133.471 328.568C132.692 328.44 131.983 328.253 131.343 328.008C130.703 327.752 130.137 327.443 129.647 327.08C129.156 326.707 128.74 326.291 128.399 325.832C128.057 325.373 127.796 324.883 127.615 324.36C127.444 323.837 127.359 323.293 127.359 322.728V322.024ZM126.959 330.984H129.087V336.424H126.959V330.984ZM121.375 329.64H134.783V331.368H121.375V329.64ZM146.254 321.592H148.398V336.408H146.254V321.592ZM139.726 325.448H141.422V326.216C141.422 326.995 141.331 327.768 141.15 328.536C140.979 329.293 140.718 330.008 140.366 330.68C140.024 331.352 139.592 331.949 139.07 332.472C138.558 332.984 137.966 333.389 137.294 333.688L136.158 332.04C136.766 331.773 137.288 331.427 137.726 331C138.174 330.563 138.547 330.083 138.846 329.56C139.144 329.037 139.363 328.488 139.502 327.912C139.651 327.336 139.726 326.771 139.726 326.216V325.448ZM140.206 325.448H141.854V326.216C141.854 326.739 141.928 327.277 142.078 327.832C142.227 328.387 142.451 328.92 142.75 329.432C143.048 329.933 143.422 330.392 143.87 330.808C144.328 331.213 144.862 331.549 145.47 331.816L144.35 333.432C143.667 333.155 143.064 332.765 142.542 332.264C142.03 331.763 141.598 331.187 141.246 330.536C140.894 329.885 140.632 329.192 140.462 328.456C140.291 327.72 140.206 326.973 140.206 326.216V325.448ZM136.654 324.008H144.878V325.688H136.654V324.008ZM139.726 321.944H141.87V324.888H139.726V321.944ZM150.812 328.248H164.22V329.784H150.812V328.248ZM152.316 330.536H162.636V334.056H154.444V335.32H152.332V332.712H160.54V331.976H152.316V330.536ZM152.332 334.856H163.052V336.296H152.332V334.856ZM152.444 321.848H162.588V325.352H154.572V326.552H152.476V324.008H160.492V323.288H152.444V321.848ZM152.476 326.12H162.86V327.56H152.476V326.12ZM179.41 321.608H181.538V329.56H179.41V321.608ZM171.698 330.216H173.794V331.592H179.426V330.216H181.538V336.264H171.698V330.216ZM173.794 333.224V334.568H179.426V333.224H173.794ZM173.474 322.216C174.242 322.216 174.93 322.365 175.538 322.664C176.146 322.963 176.626 323.373 176.978 323.896C177.33 324.419 177.506 325.021 177.506 325.704C177.506 326.387 177.33 326.995 176.978 327.528C176.626 328.051 176.146 328.461 175.538 328.76C174.93 329.059 174.242 329.208 173.474 329.208C172.706 329.208 172.018 329.059 171.41 328.76C170.802 328.461 170.322 328.051 169.97 327.528C169.618 326.995 169.442 326.387 169.442 325.704C169.442 325.021 169.618 324.419 169.97 323.896C170.322 323.373 170.802 322.963 171.41 322.664C172.018 322.365 172.706 322.216 173.474 322.216ZM173.474 323.96C173.101 323.96 172.765 324.029 172.466 324.168C172.167 324.307 171.933 324.509 171.762 324.776C171.602 325.032 171.522 325.341 171.522 325.704C171.522 326.077 171.602 326.397 171.762 326.664C171.933 326.92 172.167 327.117 172.466 327.256C172.765 327.384 173.101 327.448 173.474 327.448C173.847 327.448 174.178 327.384 174.466 327.256C174.765 327.117 174.999 326.92 175.17 326.664C175.341 326.397 175.426 326.077 175.426 325.704C175.426 325.341 175.341 325.032 175.17 324.776C174.999 324.509 174.765 324.307 174.466 324.168C174.178 324.029 173.847 323.96 173.474 323.96ZM184.513 328.648H185.633C186.561 328.648 187.356 328.643 188.017 328.632C188.689 328.611 189.302 328.573 189.857 328.52C190.412 328.467 190.961 328.392 191.505 328.296L191.729 329.992C191.292 330.067 190.86 330.131 190.433 330.184C190.017 330.237 189.569 330.275 189.089 330.296C188.62 330.317 188.102 330.333 187.537 330.344C186.982 330.355 186.348 330.36 185.633 330.36H184.513V328.648ZM184.481 322.44H190.993V327.112H186.625V329.784H184.513V325.528H188.897V324.136H184.481V322.44ZM194.209 321.608H196.353V330.744H194.209V321.608ZM191.841 323.656H194.609V325.352H191.841V323.656ZM191.841 326.808H194.609V328.504H191.841V326.808ZM186.193 331.416H196.353V336.424H194.209V333.096H186.193V331.416ZM198.656 323.832H205.744V325.512H198.656V323.832ZM202.224 326.184C202.853 326.184 203.408 326.333 203.888 326.632C204.378 326.931 204.762 327.347 205.04 327.88C205.328 328.403 205.472 329.011 205.472 329.704C205.472 330.397 205.328 331.011 205.04 331.544C204.762 332.067 204.378 332.477 203.888 332.776C203.408 333.075 202.853 333.224 202.224 333.224C201.594 333.224 201.034 333.075 200.544 332.776C200.053 332.477 199.669 332.067 199.392 331.544C199.114 331.011 198.976 330.397 198.976 329.704C198.976 329.011 199.114 328.403 199.392 327.88C199.669 327.347 200.053 326.931 200.544 326.632C201.045 326.333 201.605 326.184 202.224 326.184ZM202.224 327.944C201.968 327.944 201.733 328.013 201.52 328.152C201.306 328.291 201.141 328.493 201.024 328.76C200.906 329.016 200.848 329.331 200.848 329.704C200.848 330.077 200.906 330.397 201.024 330.664C201.141 330.931 201.306 331.133 201.52 331.272C201.733 331.4 201.968 331.464 202.224 331.464C202.49 331.464 202.725 331.4 202.928 331.272C203.13 331.133 203.29 330.931 203.408 330.664C203.525 330.397 203.584 330.077 203.584 329.704C203.584 329.331 203.525 329.016 203.408 328.76C203.29 328.493 203.13 328.291 202.928 328.152C202.725 328.013 202.49 327.944 202.224 327.944ZM209.376 321.592H211.392V336.408H209.376V321.592ZM207.6 327.624H210.032V329.336H207.6V327.624ZM206.256 321.864H208.24V335.784H206.256V321.864ZM201.184 321.992H203.28V324.888H201.184V321.992ZM218.862 323.24H220.718V323.688C220.718 324.2 220.633 324.696 220.462 325.176C220.302 325.656 220.057 326.104 219.726 326.52C219.396 326.925 218.99 327.293 218.51 327.624C218.041 327.944 217.497 328.216 216.878 328.44C216.26 328.664 215.572 328.824 214.814 328.92L214.03 327.272C214.692 327.187 215.278 327.059 215.79 326.888C216.313 326.707 216.766 326.499 217.15 326.264C217.534 326.019 217.854 325.757 218.11 325.48C218.366 325.203 218.553 324.909 218.67 324.6C218.798 324.291 218.862 323.987 218.862 323.688V323.24ZM219.486 323.24H221.326V323.688C221.326 323.987 221.385 324.291 221.502 324.6C221.63 324.909 221.822 325.203 222.078 325.48C222.334 325.757 222.654 326.019 223.038 326.264C223.433 326.499 223.886 326.707 224.398 326.888C224.91 327.059 225.497 327.187 226.158 327.272L225.374 328.92C224.617 328.824 223.929 328.664 223.31 328.44C222.692 328.216 222.142 327.944 221.662 327.624C221.193 327.293 220.793 326.925 220.462 326.52C220.142 326.104 219.897 325.656 219.726 325.176C219.566 324.696 219.486 324.2 219.486 323.688V323.24ZM218.974 331H221.102V336.424H218.974V331ZM213.39 329.768H226.798V331.48H213.39V329.768ZM214.574 322.36H225.566V324.04H214.574V322.36ZM233.933 326.584H236.397V328.312H233.933V326.584ZM230.781 322.888H232.397V325.368C232.397 326.211 232.338 327.037 232.221 327.848C232.104 328.659 231.912 329.421 231.645 330.136C231.389 330.851 231.048 331.496 230.621 332.072C230.205 332.637 229.698 333.101 229.101 333.464L227.821 331.864C228.376 331.533 228.84 331.128 229.213 330.648C229.586 330.168 229.89 329.64 230.125 329.064C230.36 328.488 230.525 327.891 230.621 327.272C230.728 326.643 230.781 326.008 230.781 325.368V322.888ZM231.245 322.888H232.829V325.272C232.829 325.88 232.872 326.483 232.957 327.08C233.053 327.677 233.202 328.248 233.405 328.792C233.608 329.336 233.874 329.837 234.205 330.296C234.546 330.755 234.973 331.149 235.485 331.48L234.317 333.144C233.741 332.781 233.25 332.323 232.845 331.768C232.45 331.203 232.136 330.568 231.901 329.864C231.666 329.16 231.496 328.419 231.389 327.64C231.293 326.861 231.245 326.072 231.245 325.272V322.888ZM238.797 321.592H240.829V336.408H238.797V321.592ZM235.789 321.832H237.773V335.752H235.789V321.832ZM245.772 329.128H247.9V333.272H245.772V329.128ZM251.148 329.128H253.276V333.272H251.148V329.128ZM242.828 332.968H256.252V334.696H242.828V332.968ZM249.516 322.328C250.583 322.328 251.532 322.493 252.364 322.824C253.207 323.155 253.863 323.619 254.332 324.216C254.812 324.803 255.052 325.501 255.052 326.312C255.052 327.112 254.812 327.811 254.332 328.408C253.863 328.995 253.207 329.453 252.364 329.784C251.532 330.115 250.583 330.28 249.516 330.28C248.46 330.28 247.511 330.115 246.668 329.784C245.836 329.453 245.18 328.995 244.7 328.408C244.22 327.811 243.98 327.112 243.98 326.312C243.98 325.501 244.22 324.803 244.7 324.216C245.18 323.619 245.836 323.155 246.668 322.824C247.511 322.493 248.46 322.328 249.516 322.328ZM249.516 323.976C248.833 323.976 248.231 324.072 247.708 324.264C247.196 324.445 246.796 324.707 246.508 325.048C246.22 325.389 246.076 325.811 246.076 326.312C246.076 326.792 246.22 327.208 246.508 327.56C246.796 327.901 247.196 328.168 247.708 328.36C248.231 328.541 248.833 328.632 249.516 328.632C250.209 328.632 250.812 328.541 251.324 328.36C251.847 328.168 252.247 327.901 252.524 327.56C252.812 327.208 252.956 326.792 252.956 326.312C252.956 325.811 252.812 325.389 252.524 325.048C252.247 324.707 251.847 324.445 251.324 324.264C250.812 324.072 250.209 323.976 249.516 323.976Z" fill="#374151"/>
<path d="M337 351H25V415H337V351Z" fill="white" stroke="#3B82F6" stroke-width="2"/>
<path d="M42.6506 392V388.898L49.8991 382.186C50.5156 381.589 51.0327 381.053 51.4503 380.575C51.8745 380.098 52.196 379.631 52.4148 379.173C52.6335 378.709 52.7429 378.209 52.7429 377.672C52.7429 377.075 52.607 376.562 52.3352 376.131C52.0634 375.693 51.6922 375.358 51.2216 375.126C50.7509 374.888 50.2173 374.768 49.6207 374.768C48.9976 374.768 48.4541 374.894 47.9901 375.146C47.526 375.398 47.1681 375.759 46.9162 376.23C46.6643 376.701 46.5384 377.261 46.5384 377.911H42.4517C42.4517 376.578 42.7533 375.421 43.3565 374.44C43.9598 373.459 44.8049 372.7 45.892 372.163C46.9792 371.626 48.232 371.358 49.6506 371.358C51.1089 371.358 52.3783 371.616 53.4588 372.134C54.5459 372.644 55.3911 373.353 55.9943 374.261C56.5975 375.17 56.8991 376.21 56.8991 377.384C56.8991 378.152 56.7467 378.911 56.4418 379.661C56.1435 380.41 55.6098 381.241 54.8409 382.156C54.072 383.064 52.9882 384.155 51.5895 385.428L48.6165 388.341V388.48H57.1676V392H42.6506ZM67.7248 392.278C66.3195 392.278 65.0666 392.02 63.9663 391.503C62.8725 390.986 62.0041 390.273 61.3612 389.365C60.7182 388.457 60.3834 387.416 60.3569 386.243H64.533C64.5794 387.032 64.9109 387.671 65.5273 388.162C66.1438 388.652 66.8763 388.898 67.7248 388.898C68.4009 388.898 68.9975 388.749 69.5146 388.45C70.0382 388.145 70.4459 387.724 70.7376 387.188C71.0359 386.644 71.185 386.021 71.185 385.318C71.185 384.602 71.0326 383.973 70.7276 383.429C70.4293 382.885 70.015 382.461 69.4847 382.156C68.9544 381.851 68.3479 381.696 67.6651 381.689C67.0685 381.689 66.4885 381.812 65.9251 382.057C65.3683 382.302 64.9341 382.637 64.6225 383.061L60.7944 382.375L61.7589 371.636H74.2077V375.156H65.3086L64.7816 380.257H64.9009C65.2589 379.753 65.7991 379.336 66.5217 379.004C67.2442 378.673 68.0529 378.507 68.9478 378.507C70.1741 378.507 71.2679 378.795 72.229 379.372C73.1902 379.949 73.9492 380.741 74.506 381.749C75.0629 382.75 75.338 383.903 75.3313 385.209C75.338 386.581 75.0198 387.801 74.3768 388.868C73.7404 389.929 72.8488 390.764 71.7021 391.374C70.5619 391.977 69.2362 392.278 67.7248 392.278ZM80.1935 392.259C79.5373 392.259 78.9738 392.027 78.5032 391.562C78.0392 391.092 77.8072 390.528 77.8072 389.872C77.8072 389.223 78.0392 388.666 78.5032 388.202C78.9738 387.738 79.5373 387.506 80.1935 387.506C80.8299 387.506 81.3867 387.738 81.864 388.202C82.3413 388.666 82.5799 389.223 82.5799 389.872C82.5799 390.31 82.4672 390.711 82.2418 391.075C82.0231 391.433 81.7347 391.722 81.3768 391.94C81.0188 392.152 80.6244 392.259 80.1935 392.259ZM92.794 392.278C91.2628 392.278 89.9006 392.03 88.7074 391.533C87.5208 391.029 86.5895 390.343 85.9134 389.474C85.2372 388.606 84.8991 387.622 84.8991 386.521C84.8991 385.673 85.0914 384.894 85.4759 384.185C85.867 383.469 86.3973 382.875 87.0668 382.405C87.7363 381.928 88.4853 381.623 89.3139 381.49V381.351C88.2268 381.132 87.3452 380.605 86.669 379.77C85.9929 378.928 85.6548 377.95 85.6548 376.837C85.6548 375.783 85.9631 374.845 86.5795 374.023C87.196 373.194 88.0412 372.545 89.1151 372.074C90.1955 371.597 91.4219 371.358 92.794 371.358C94.1662 371.358 95.3892 371.597 96.4631 372.074C97.5436 372.551 98.392 373.204 99.0085 374.033C99.625 374.855 99.9366 375.789 99.9432 376.837C99.9366 377.957 99.5919 378.935 98.9091 379.77C98.2263 380.605 97.3513 381.132 96.2841 381.351V381.49C97.0994 381.623 97.8385 381.928 98.5014 382.405C99.1709 382.875 99.7012 383.469 100.092 384.185C100.49 384.894 100.692 385.673 100.699 386.521C100.692 387.622 100.351 388.606 99.6747 389.474C98.9986 390.343 98.0639 391.029 96.8707 391.533C95.6842 392.03 94.3253 392.278 92.794 392.278ZM92.794 389.116C93.4768 389.116 94.0734 388.994 94.5838 388.749C95.0942 388.497 95.492 388.152 95.777 387.714C96.0687 387.27 96.2145 386.76 96.2145 386.183C96.2145 385.593 96.0653 385.073 95.767 384.622C95.4688 384.165 95.0644 383.807 94.554 383.548C94.0436 383.283 93.4569 383.151 92.794 383.151C92.1378 383.151 91.5511 383.283 91.0341 383.548C90.517 383.807 90.1094 384.165 89.8111 384.622C89.5194 385.073 89.3736 385.593 89.3736 386.183C89.3736 386.76 89.5161 387.27 89.8011 387.714C90.0862 388.152 90.4872 388.497 91.0043 388.749C91.5213 388.994 92.1179 389.116 92.794 389.116ZM92.794 380.018C93.3641 380.018 93.8712 379.902 94.3153 379.67C94.7595 379.438 95.1075 379.117 95.3594 378.706C95.6113 378.295 95.7372 377.821 95.7372 377.284C95.7372 376.754 95.6113 376.29 95.3594 375.892C95.1075 375.488 94.7628 375.173 94.3253 374.947C93.8878 374.715 93.3774 374.599 92.794 374.599C92.2173 374.599 91.7069 374.715 91.2628 374.947C90.8187 375.173 90.4706 375.488 90.2188 375.892C89.9735 376.29 89.8509 376.754 89.8509 377.284C89.8509 377.821 89.9768 378.295 90.2287 378.706C90.4806 379.117 90.8286 379.438 91.2727 379.67C91.7169 379.902 92.224 380.018 92.794 380.018ZM111.147 392.278C109.741 392.278 108.489 392.02 107.388 391.503C106.294 390.986 105.426 390.273 104.783 389.365C104.14 388.457 103.805 387.416 103.779 386.243H107.955C108.001 387.032 108.333 387.671 108.949 388.162C109.566 388.652 110.298 388.898 111.147 388.898C111.823 388.898 112.419 388.749 112.936 388.45C113.46 388.145 113.868 387.724 114.159 387.188C114.458 386.644 114.607 386.021 114.607 385.318C114.607 384.602 114.454 383.973 114.15 383.429C113.851 382.885 113.437 382.461 112.907 382.156C112.376 381.851 111.77 381.696 111.087 381.689C110.49 381.689 109.91 381.812 109.347 382.057C108.79 382.302 108.356 382.637 108.044 383.061L104.216 382.375L105.181 371.636H117.63V375.156H108.73L108.203 380.257H108.323C108.681 379.753 109.221 379.336 109.944 379.004C110.666 378.673 111.475 378.507 112.37 378.507C113.596 378.507 114.69 378.795 115.651 379.372C116.612 379.949 117.371 380.741 117.928 381.749C118.485 382.75 118.76 383.903 118.753 385.209C118.76 386.581 118.442 387.801 117.799 388.868C117.162 389.929 116.271 390.764 115.124 391.374C113.984 391.977 112.658 392.278 111.147 392.278Z" fill="#111827"/>
<path d="M292.227 390V381.273H293.523V382.636H293.636C293.818 382.17 294.112 381.809 294.517 381.551C294.922 381.29 295.409 381.159 295.977 381.159C296.553 381.159 297.032 381.29 297.415 381.551C297.801 381.809 298.102 382.17 298.318 382.636H298.409C298.633 382.186 298.968 381.828 299.415 381.562C299.862 381.294 300.398 381.159 301.023 381.159C301.803 381.159 302.441 381.403 302.938 381.892C303.434 382.377 303.682 383.133 303.682 384.159V390H302.341V384.159C302.341 383.515 302.165 383.055 301.812 382.778C301.46 382.502 301.045 382.364 300.568 382.364C299.955 382.364 299.479 382.549 299.142 382.92C298.805 383.288 298.636 383.754 298.636 384.318V390H297.273V384.023C297.273 383.527 297.112 383.127 296.79 382.824C296.468 382.517 296.053 382.364 295.545 382.364C295.197 382.364 294.871 382.456 294.568 382.642C294.269 382.828 294.027 383.085 293.841 383.415C293.659 383.741 293.568 384.117 293.568 384.545V390H292.227ZM306.134 390V381.273H307.429V382.636H307.543C307.724 382.17 308.018 381.809 308.423 381.551C308.829 381.29 309.315 381.159 309.884 381.159C310.459 381.159 310.938 381.29 311.321 381.551C311.707 381.809 312.009 382.17 312.224 382.636H312.315C312.539 382.186 312.874 381.828 313.321 381.562C313.768 381.294 314.304 381.159 314.929 381.159C315.709 381.159 316.348 381.403 316.844 381.892C317.34 382.377 317.588 383.133 317.588 384.159V390H316.247V384.159C316.247 383.515 316.071 383.055 315.719 382.778C315.366 382.502 314.952 382.364 314.474 382.364C313.861 382.364 313.385 382.549 313.048 382.92C312.711 383.288 312.543 383.754 312.543 384.318V390H311.179V384.023C311.179 383.527 311.018 383.127 310.696 382.824C310.374 382.517 309.959 382.364 309.452 382.364C309.103 382.364 308.777 382.456 308.474 382.642C308.175 382.828 307.933 383.085 307.747 383.415C307.565 383.741 307.474 384.117 307.474 384.545V390H306.134Z" fill="#6B7280"/>
<path d="M121 366V396" stroke="#2563EB" stroke-width="2"/>
<path d="M35.816 441.576H37.944V456.44H35.816V441.576ZM26.376 442.76H28.488V446.376H31.56V442.76H33.672V452.984H26.376V442.76ZM28.488 448.024V451.288H31.56V448.024H28.488ZM41.7508 442.856H51.1268V444.552H41.7508V442.856ZM40.3748 452.904H53.7828V454.632H40.3748V452.904ZM45.1108 447.816H47.2548V453.768H45.1108V447.816ZM50.3588 442.856H52.5028V444.264C52.5028 444.883 52.4921 445.539 52.4708 446.232C52.4601 446.925 52.4121 447.693 52.3268 448.536C52.2521 449.379 52.1134 450.323 51.9108 451.368L49.7828 451.144C50.0814 449.661 50.2521 448.371 50.2948 447.272C50.3374 446.163 50.3588 445.16 50.3588 444.264V442.856ZM59.6406 450.335C59.6406 448.926 59.8281 447.629 60.2031 446.443C60.5819 445.258 61.1596 444.159 61.9361 443.148H64.2486C63.9531 443.523 63.6785 443.981 63.4247 444.523C63.1709 445.061 62.9493 445.652 62.7599 446.295C62.5705 446.939 62.4228 447.606 62.3168 448.295C62.2107 448.981 62.1577 449.661 62.1577 450.335C62.1577 451.233 62.2486 452.14 62.4304 453.057C62.616 453.97 62.866 454.818 63.1804 455.602C63.4986 456.386 63.8546 457.028 64.2486 457.528H61.9361C61.1596 456.517 60.5819 455.419 60.2031 454.233C59.8281 453.047 59.6406 451.748 59.6406 450.335ZM72.8955 444.744H76.3355V446.472H72.8955V444.744ZM68.7355 442.504H70.4475V444.104C70.4475 445.107 70.3035 446.051 70.0155 446.936C69.7275 447.821 69.2795 448.595 68.6715 449.256C68.0742 449.907 67.3062 450.403 66.3675 450.744L65.2475 449.08C65.8662 448.867 66.3942 448.589 66.8315 448.248C67.2688 447.907 67.6262 447.517 67.9035 447.08C68.1808 446.632 68.3888 446.157 68.5275 445.656C68.6662 445.155 68.7355 444.637 68.7355 444.104V442.504ZM69.1835 442.504H70.8795V444.12C70.8795 444.6 70.9435 445.069 71.0715 445.528C71.1995 445.987 71.3968 446.424 71.6635 446.84C71.9302 447.256 72.2715 447.629 72.6875 447.96C73.1142 448.28 73.6155 448.541 74.1915 448.744L73.0715 450.376C72.1862 450.045 71.4555 449.571 70.8795 448.952C70.3035 448.333 69.8768 447.608 69.5995 446.776C69.3222 445.944 69.1835 445.059 69.1835 444.12V442.504ZM75.5995 441.608H77.7435V452.536H75.5995V441.608ZM67.9355 454.456H78.0635V456.168H67.9355V454.456ZM67.9355 451.448H70.0635V455.416H67.9355V451.448ZM80.5583 448.36H81.5823C82.2969 448.36 82.9369 448.355 83.5023 448.344C84.0783 448.323 84.6223 448.291 85.1343 448.248C85.6463 448.195 86.1743 448.125 86.7183 448.04L86.9103 449.736C86.3449 449.832 85.7956 449.907 85.2623 449.96C84.7289 450.013 84.1636 450.045 83.5663 450.056C82.9796 450.067 82.3183 450.072 81.5823 450.072H80.5583V448.36ZM80.5583 442.584H86.3823V444.28H82.6063V449.304H80.5583V442.584ZM81.9983 445.496H86.2383V447.096H81.9983V445.496ZM90.6543 441.592H92.6863V450.648H90.6543V441.592ZM88.8943 445.224H91.2463V446.936H88.8943V445.224ZM87.5023 441.864H89.4863V450.552H87.5023V441.864ZM82.4943 451.272H92.6863V456.424H90.5583V452.984H82.4943V451.272ZM99.1705 450.335C99.1705 451.748 98.9811 453.047 98.6023 454.233C98.2273 455.419 97.6515 456.517 96.875 457.528H94.5625C94.858 457.153 95.1326 456.695 95.3864 456.153C95.6402 455.612 95.8617 455.021 96.0511 454.381C96.2405 453.737 96.3883 453.07 96.4943 452.381C96.6004 451.691 96.6534 451.009 96.6534 450.335C96.6534 449.437 96.5606 448.532 96.375 447.619C96.1932 446.703 95.9432 445.854 95.625 445.074C95.3106 444.29 94.9564 443.648 94.5625 443.148H96.875C97.6515 444.159 98.2273 445.258 98.6023 446.443C98.9811 447.629 99.1705 448.926 99.1705 450.335Z" fill="#374151"/>
<path d="M337 471H25V551H337V471Z" fill="white" stroke="#D1D5DB" stroke-width="2"/>
<path d="M41.686 491.114H53.138V492.052H41.686V491.114ZM42.974 493.27H51.654V497.092H50.492V494.208H42.974V493.27ZM43.198 489.014H51.794V489.924H43.198V489.014ZM43.198 484.758H51.724V485.682H44.36V489.448H43.198V484.758ZM44.01 486.858H51.388V487.754H44.01V486.858ZM63.7769 484.422H64.9389V497.106H63.7769V484.422ZM58.2609 485.402C58.8862 485.402 59.4369 485.584 59.9129 485.948C60.3982 486.303 60.7762 486.811 61.0469 487.474C61.3269 488.137 61.4669 488.916 61.4669 489.812C61.4669 490.708 61.3269 491.487 61.0469 492.15C60.7762 492.813 60.3982 493.326 59.9129 493.69C59.4369 494.054 58.8862 494.236 58.2609 494.236C57.6356 494.236 57.0802 494.054 56.5949 493.69C56.1096 493.326 55.7269 492.813 55.4469 492.15C55.1762 491.487 55.0409 490.708 55.0409 489.812C55.0409 488.916 55.1762 488.137 55.4469 487.474C55.7269 486.811 56.1096 486.303 56.5949 485.948C57.0802 485.584 57.6356 485.402 58.2609 485.402ZM58.2609 486.438C57.8409 486.438 57.4722 486.578 57.1549 486.858C56.8469 487.129 56.6042 487.521 56.4269 488.034C56.2496 488.538 56.1609 489.131 56.1609 489.812C56.1609 490.493 56.2496 491.091 56.4269 491.604C56.6042 492.108 56.8469 492.5 57.1549 492.78C57.4722 493.06 57.8409 493.2 58.2609 493.2C58.6716 493.2 59.0309 493.06 59.3389 492.78C59.6562 492.5 59.9036 492.108 60.0809 491.604C60.2582 491.091 60.3469 490.493 60.3469 489.812C60.3469 489.131 60.2582 488.538 60.0809 488.034C59.9036 487.521 59.6562 487.129 59.3389 486.858C59.0309 486.578 58.6716 486.438 58.2609 486.438ZM70.5518 485.514H71.5038V487.782C71.5038 488.482 71.4151 489.168 71.2378 489.84C71.0698 490.512 70.8271 491.142 70.5098 491.73C70.1925 492.318 69.8191 492.841 69.3898 493.298C68.9605 493.755 68.4938 494.119 67.9898 494.39L67.2758 493.452C67.7425 493.219 68.1718 492.906 68.5638 492.514C68.9651 492.113 69.3151 491.655 69.6138 491.142C69.9125 490.629 70.1411 490.087 70.2998 489.518C70.4678 488.939 70.5518 488.361 70.5518 487.782V485.514ZM70.7618 485.514H71.6998V487.782C71.6998 488.342 71.7791 488.897 71.9378 489.448C72.1058 489.999 72.3391 490.517 72.6378 491.002C72.9365 491.487 73.2771 491.921 73.6598 492.304C74.0518 492.687 74.4718 492.99 74.9198 493.214L74.2058 494.138C73.7111 493.886 73.2538 493.541 72.8338 493.102C72.4231 492.663 72.0591 492.164 71.7418 491.604C71.4338 491.035 71.1911 490.428 71.0138 489.784C70.8458 489.131 70.7618 488.463 70.7618 487.782V485.514ZM76.0258 484.422H77.1878V497.092H76.0258V484.422ZM76.9218 489.546H79.2598V490.54H76.9218V489.546ZM89.0027 484.422H90.1647V492.584H89.0027V484.422ZM89.8427 487.936H92.0267V488.916H89.8427V487.936ZM86.1887 492.682C87.0381 492.682 87.7707 492.771 88.3867 492.948C89.0027 493.116 89.4741 493.363 89.8007 493.69C90.1367 494.017 90.3047 494.413 90.3047 494.88C90.3047 495.337 90.1367 495.729 89.8007 496.056C89.4741 496.383 89.0027 496.63 88.3867 496.798C87.7707 496.975 87.0381 497.064 86.1887 497.064C85.3301 497.064 84.5927 496.975 83.9767 496.798C83.3701 496.63 82.8987 496.383 82.5627 496.056C82.2267 495.729 82.0587 495.337 82.0587 494.88C82.0587 494.413 82.2267 494.017 82.5627 493.69C82.8987 493.363 83.3701 493.116 83.9767 492.948C84.5927 492.771 85.3301 492.682 86.1887 492.682ZM86.1887 493.592C85.2554 493.592 84.5227 493.704 83.9907 493.928C83.4681 494.152 83.2067 494.469 83.2067 494.88C83.2067 495.291 83.4681 495.608 83.9907 495.832C84.5227 496.056 85.2554 496.168 86.1887 496.168C87.1127 496.168 87.8361 496.056 88.3587 495.832C88.8907 495.608 89.1567 495.291 89.1567 494.88C89.1567 494.469 88.8907 494.152 88.3587 493.928C87.8361 493.704 87.1127 493.592 86.1887 493.592ZM80.3647 485.85H87.8407V486.774H80.3647V485.85ZM84.1027 487.418C84.7094 487.418 85.2367 487.511 85.6847 487.698C86.1421 487.885 86.4967 488.146 86.7487 488.482C87.0007 488.809 87.1267 489.201 87.1267 489.658C87.1267 490.106 87.0007 490.498 86.7487 490.834C86.4967 491.17 86.1421 491.431 85.6847 491.618C85.2367 491.795 84.7094 491.884 84.1027 491.884C83.4961 491.884 82.9641 491.795 82.5067 491.618C82.0587 491.431 81.7041 491.17 81.4427 490.834C81.1907 490.498 81.0647 490.106 81.0647 489.658C81.0647 489.201 81.1907 488.809 81.4427 488.482C81.7041 488.146 82.0587 487.885 82.5067 487.698C82.9641 487.511 83.4961 487.418 84.1027 487.418ZM84.1027 488.3C83.5241 488.3 83.0574 488.426 82.7027 488.678C82.3574 488.921 82.1847 489.247 82.1847 489.658C82.1847 490.069 82.3574 490.395 82.7027 490.638C83.0574 490.881 83.5241 491.002 84.1027 491.002C84.6721 491.002 85.1341 490.881 85.4887 490.638C85.8434 490.395 86.0207 490.069 86.0207 489.658C86.0207 489.247 85.8434 488.921 85.4887 488.678C85.1341 488.426 84.6721 488.3 84.1027 488.3ZM83.5287 484.324H84.6907V486.368H83.5287V484.324ZM102.414 484.422H103.576V497.106H102.414V484.422ZM96.8976 485.402C97.523 485.402 98.0736 485.584 98.5496 485.948C99.035 486.303 99.413 486.811 99.6836 487.474C99.9636 488.137 100.104 488.916 100.104 489.812C100.104 490.708 99.9636 491.487 99.6836 492.15C99.413 492.813 99.035 493.326 98.5496 493.69C98.0736 494.054 97.523 494.236 96.8976 494.236C96.2723 494.236 95.717 494.054 95.2316 493.69C94.7463 493.326 94.3636 492.813 94.0836 492.15C93.813 491.487 93.6776 490.708 93.6776 489.812C93.6776 488.916 93.813 488.137 94.0836 487.474C94.3636 486.811 94.7463 486.303 95.2316 485.948C95.717 485.584 96.2723 485.402 96.8976 485.402ZM96.8976 486.438C96.4776 486.438 96.109 486.578 95.7916 486.858C95.4836 487.129 95.241 487.521 95.0636 488.034C94.8863 488.538 94.7976 489.131 94.7976 489.812C94.7976 490.493 94.8863 491.091 95.0636 491.604C95.241 492.108 95.4836 492.5 95.7916 492.78C96.109 493.06 96.4776 493.2 96.8976 493.2C97.3083 493.2 97.6676 493.06 97.9756 492.78C98.293 492.5 98.5403 492.108 98.7176 491.604C98.895 491.091 98.9836 490.493 98.9836 489.812C98.9836 489.131 98.895 488.538 98.7176 488.034C98.5403 487.521 98.293 487.129 97.9756 486.858C97.6676 486.578 97.3083 486.438 96.8976 486.438ZM115.517 489.476H117.841V490.442H115.517V489.476ZM114.663 484.422H115.825V497.078H114.663V484.422ZM106.599 485.668H107.747V493.508H106.599V485.668ZM106.599 492.906H107.607C108.531 492.906 109.478 492.864 110.449 492.78C111.429 492.696 112.441 492.547 113.487 492.332L113.627 493.312C112.544 493.527 111.508 493.676 110.519 493.76C109.539 493.835 108.568 493.872 107.607 493.872H106.599V492.906ZM123.359 485.892H128.189V493.69H123.359V485.892ZM127.097 486.816H124.451V492.766H127.097V486.816ZM132.557 484.422H133.677V497.092H132.557V484.422ZM127.615 489.196H130.527V490.148H127.615V489.196ZM130.037 484.688H131.143V496.448H130.037V484.688ZM135.79 494.502H147.27V495.468H135.79V494.502ZM140.928 491.226H142.076V494.768H140.928V491.226ZM137.134 485.472H145.87V491.436H137.134V485.472ZM144.736 486.41H138.268V490.512H144.736V486.41ZM148.655 490.302H160.135V491.198H148.655V490.302ZM150.027 492.206H158.707V494.908H151.203V496.392H150.055V494.11H157.559V493.046H150.027V492.206ZM150.055 496.084H159.113V496.924H150.055V496.084ZM150.111 484.8H158.665V487.432H151.287V488.804H150.139V486.648H157.517V485.626H150.111V484.8ZM150.139 488.524H158.889V489.364H150.139V488.524ZM174.697 484.422H175.859V491.226H174.697V484.422ZM167.711 491.856H168.845V493.382H174.711V491.856H175.859V496.924H167.711V491.856ZM168.845 494.306V495.972H174.711V494.306H168.845ZM169.069 485.024C169.713 485.024 170.282 485.15 170.777 485.402C171.272 485.645 171.659 485.985 171.939 486.424C172.228 486.863 172.373 487.371 172.373 487.95C172.373 488.519 172.228 489.028 171.939 489.476C171.659 489.915 171.272 490.255 170.777 490.498C170.282 490.741 169.713 490.862 169.069 490.862C168.434 490.862 167.865 490.741 167.361 490.498C166.866 490.255 166.474 489.915 166.185 489.476C165.905 489.028 165.765 488.519 165.765 487.95C165.765 487.371 165.905 486.863 166.185 486.424C166.474 485.985 166.866 485.645 167.361 485.402C167.865 485.15 168.434 485.024 169.069 485.024ZM169.069 486.004C168.649 486.004 168.276 486.088 167.949 486.256C167.622 486.415 167.366 486.643 167.179 486.942C166.992 487.231 166.899 487.567 166.899 487.95C166.899 488.323 166.992 488.659 167.179 488.958C167.366 489.247 167.622 489.476 167.949 489.644C168.276 489.812 168.649 489.896 169.069 489.896C169.489 489.896 169.862 489.812 170.189 489.644C170.516 489.476 170.772 489.247 170.959 488.958C171.146 488.659 171.239 488.323 171.239 487.95C171.239 487.567 171.146 487.231 170.959 486.942C170.772 486.643 170.516 486.415 170.189 486.256C169.862 486.088 169.489 486.004 169.069 486.004ZM178.896 490.708H179.792C180.623 490.708 181.332 490.703 181.92 490.694C182.517 490.675 183.059 490.643 183.544 490.596C184.039 490.549 184.538 490.479 185.042 490.386L185.154 491.338C184.771 491.403 184.393 491.459 184.02 491.506C183.647 491.543 183.255 491.571 182.844 491.59C182.433 491.609 181.981 491.623 181.486 491.632C180.991 491.641 180.427 491.646 179.792 491.646H178.896V490.708ZM178.868 485.192H184.314V488.776H180.044V491.268H178.896V487.88H183.166V486.13H178.868V485.192ZM187.618 484.436H188.78V492.22H187.618V484.436ZM185.154 486.312H187.884V487.25H185.154V486.312ZM185.154 488.93H187.884V489.882H185.154V488.93ZM180.31 492.892H188.78V497.106H187.618V493.844H180.31V492.892ZM199.825 484.422H200.973V497.092H199.825V484.422ZM200.707 489.63H203.045V490.61H200.707V489.63ZM191.173 486.452H198.635V487.404H191.173V486.452ZM194.967 488.44C195.564 488.44 196.092 488.566 196.549 488.818C197.016 489.07 197.38 489.415 197.641 489.854C197.912 490.283 198.047 490.783 198.047 491.352C198.047 491.921 197.912 492.425 197.641 492.864C197.38 493.303 197.016 493.648 196.549 493.9C196.092 494.143 195.564 494.264 194.967 494.264C194.37 494.264 193.838 494.143 193.371 493.9C192.914 493.648 192.55 493.303 192.279 492.864C192.008 492.425 191.873 491.921 191.873 491.352C191.873 490.783 192.008 490.283 192.279 489.854C192.55 489.415 192.914 489.07 193.371 488.818C193.838 488.566 194.37 488.44 194.967 488.44ZM194.967 489.406C194.584 489.406 194.244 489.49 193.945 489.658C193.646 489.826 193.408 490.055 193.231 490.344C193.063 490.633 192.979 490.969 192.979 491.352C192.979 491.735 193.063 492.075 193.231 492.374C193.408 492.663 193.646 492.892 193.945 493.06C194.244 493.219 194.584 493.298 194.967 493.298C195.34 493.298 195.676 493.219 195.975 493.06C196.274 492.892 196.507 492.663 196.675 492.374C196.852 492.075 196.941 491.735 196.941 491.352C196.941 490.969 196.852 490.633 196.675 490.344C196.507 490.055 196.274 489.826 195.975 489.658C195.676 489.49 195.34 489.406 194.967 489.406ZM194.365 484.576H195.527V486.872H194.365V484.576ZM209.106 488.958H211.542V489.924H209.106V488.958ZM206.754 485.612H207.664V488.034C207.664 488.687 207.594 489.331 207.454 489.966C207.323 490.601 207.127 491.198 206.866 491.758C206.614 492.318 206.306 492.822 205.942 493.27C205.578 493.718 205.167 494.082 204.71 494.362L203.982 493.494C204.411 493.233 204.799 492.906 205.144 492.514C205.489 492.122 205.779 491.683 206.012 491.198C206.255 490.703 206.437 490.19 206.558 489.658C206.689 489.117 206.754 488.575 206.754 488.034V485.612ZM206.978 485.612H207.874V487.992C207.874 488.496 207.93 489.005 208.042 489.518C208.163 490.022 208.331 490.507 208.546 490.974C208.77 491.431 209.045 491.851 209.372 492.234C209.699 492.617 210.067 492.934 210.478 493.186L209.82 494.082C209.363 493.802 208.957 493.447 208.602 493.018C208.247 492.579 207.949 492.089 207.706 491.548C207.463 490.997 207.281 490.419 207.16 489.812C207.039 489.205 206.978 488.599 206.978 487.992V485.612ZM213.768 484.422H214.888V497.092H213.768V484.422ZM211.192 484.688H212.284V496.448H211.192V484.688ZM219.815 490.946H220.963V494.726H219.815V490.946ZM224.491 490.946H225.653V494.726H224.491V490.946ZM217.001 494.502H228.481V495.468H217.001V494.502ZM222.713 485.22C223.609 485.22 224.402 485.355 225.093 485.626C225.783 485.897 226.325 486.275 226.717 486.76C227.118 487.245 227.319 487.819 227.319 488.482C227.319 489.135 227.118 489.709 226.717 490.204C226.325 490.689 225.783 491.067 225.093 491.338C224.402 491.599 223.609 491.73 222.713 491.73C221.826 491.73 221.033 491.599 220.333 491.338C219.642 491.067 219.101 490.689 218.709 490.204C218.317 489.709 218.121 489.135 218.121 488.482C218.121 487.819 218.317 487.245 218.709 486.76C219.101 486.275 219.642 485.897 220.333 485.626C221.033 485.355 221.826 485.22 222.713 485.22ZM222.713 486.144C222.041 486.144 221.443 486.242 220.921 486.438C220.398 486.634 219.987 486.909 219.689 487.264C219.39 487.609 219.241 488.015 219.241 488.482C219.241 488.949 219.39 489.359 219.689 489.714C219.987 490.059 220.398 490.33 220.921 490.526C221.443 490.722 222.041 490.82 222.713 490.82C223.394 490.82 223.996 490.722 224.519 490.526C225.041 490.33 225.452 490.059 225.751 489.714C226.049 489.359 226.199 488.949 226.199 488.482C226.199 488.015 226.049 487.609 225.751 487.264C225.452 486.909 225.041 486.634 224.519 486.438C223.996 486.242 223.394 486.144 222.713 486.144ZM231.109 496.08C230.863 496.08 230.653 495.992 230.477 495.816C230.302 495.64 230.214 495.43 230.214 495.185C230.214 494.939 230.302 494.729 230.477 494.553C230.653 494.378 230.863 494.29 231.109 494.29C231.354 494.29 231.564 494.378 231.74 494.553C231.916 494.729 232.004 494.939 232.004 495.185C232.004 495.347 231.962 495.496 231.879 495.632C231.8 495.768 231.692 495.877 231.556 495.96C231.424 496.04 231.274 496.08 231.109 496.08ZM234.964 496.08C234.719 496.08 234.508 495.992 234.333 495.816C234.157 495.64 234.069 495.43 234.069 495.185C234.069 494.939 234.157 494.729 234.333 494.553C234.508 494.378 234.719 494.29 234.964 494.29C235.209 494.29 235.42 494.378 235.596 494.553C235.771 494.729 235.859 494.939 235.859 495.185C235.859 495.347 235.818 495.496 235.735 495.632C235.655 495.768 235.547 495.877 235.412 495.96C235.279 496.04 235.13 496.08 234.964 496.08ZM238.82 496.08C238.574 496.08 238.364 495.992 238.188 495.816C238.013 495.64 237.925 495.43 237.925 495.185C237.925 494.939 238.013 494.729 238.188 494.553C238.364 494.378 238.574 494.29 238.82 494.29C239.065 494.29 239.275 494.378 239.451 494.553C239.627 494.729 239.714 494.939 239.714 495.185C239.714 495.347 239.673 495.496 239.59 495.632C239.511 495.768 239.403 495.877 239.267 495.96C239.134 496.04 238.985 496.08 238.82 496.08Z" fill="#9CA3AF"/>
<path d="M1 651H361" stroke="#F3F4F6" stroke-width="2"/>
<path d="M117 671H17V763H117V671Z" fill="#E5E7EB"/>
<path d="M57 711.4H77V691.4H57V711.4Z" fill="black"/>
<path d="M48.4701 724.254H50.3461V737.26H48.4701V724.254ZM49.9401 729.056H52.2221V730.596H49.9401V729.056ZM40.6861 732.612H41.7781C42.5154 732.612 43.2061 732.603 43.8501 732.584C44.4941 732.556 45.1194 732.514 45.7261 732.458C46.3327 732.393 46.9534 732.304 47.5881 732.192L47.7701 733.732C47.1167 733.844 46.4727 733.933 45.8381 733.998C45.2127 734.063 44.5687 734.105 43.9061 734.124C43.2434 734.143 42.5341 734.152 41.7781 734.152H40.6861V732.612ZM40.6861 725.458H46.7341V726.956H42.5481V733.34H40.6861V725.458ZM56.225 725.276H57.751V727.152C57.751 727.992 57.6763 728.799 57.527 729.574C57.3776 730.339 57.149 731.058 56.841 731.73C56.5423 732.393 56.155 732.981 55.679 733.494C55.2123 733.998 54.657 734.399 54.013 734.698L52.907 733.158C53.4763 732.906 53.9663 732.575 54.377 732.164C54.797 731.744 55.1423 731.268 55.413 730.736C55.6836 730.195 55.8843 729.621 56.015 729.014C56.155 728.407 56.225 727.787 56.225 727.152V725.276ZM56.589 725.276H58.101V727.152C58.101 727.759 58.1663 728.351 58.297 728.93C58.4276 729.509 58.6236 730.055 58.885 730.568C59.1556 731.081 59.4916 731.539 59.893 731.94C60.3036 732.332 60.7843 732.645 61.335 732.878L60.257 734.39C59.6316 734.101 59.0856 733.713 58.619 733.228C58.1616 732.743 57.7836 732.183 57.485 731.548C57.1863 730.904 56.9623 730.213 56.813 729.476C56.6636 728.729 56.589 727.955 56.589 727.152V725.276ZM61.965 724.254H63.827V737.26H61.965V724.254ZM72.2321 726.172H73.6321V726.326C73.6321 726.821 73.4968 727.273 73.2261 727.684C72.9648 728.095 72.5635 728.44 72.0221 728.72C71.4901 728.991 70.8228 729.177 70.0201 729.28L69.4041 727.95C70.0388 727.885 70.5615 727.773 70.9721 727.614C71.3921 727.455 71.7048 727.264 71.9101 727.04C72.1248 726.816 72.2321 726.578 72.2321 726.326V726.172ZM72.7081 726.172H74.0941V726.326C74.0941 726.569 74.1968 726.797 74.4021 727.012C74.6168 727.217 74.9295 727.395 75.3401 727.544C75.7508 727.693 76.2595 727.801 76.8661 727.866L76.2641 729.182C75.4801 729.089 74.8221 728.911 74.2901 728.65C73.7581 728.379 73.3615 728.043 73.1001 727.642C72.8388 727.241 72.7081 726.802 72.7081 726.326V726.172ZM69.7401 725.164H76.5861V726.48H69.7401V725.164ZM72.2321 728.818H74.1081V730.54H72.2321V728.818ZM72.2321 724.24H74.0941V725.878H72.2321V724.24ZM70.7481 731.856H79.4701V735.118H72.6101V736.392H70.7761V733.844H77.6361V733.2H70.7481V731.856ZM70.7761 735.804H79.9181V737.162H70.7761V735.804ZM77.6081 724.282H79.4701V731.38H77.6081V724.282ZM78.8261 727.026H81.1081V728.524H78.8261V727.026ZM69.3481 731.24L69.1381 729.868C69.9128 729.868 70.7435 729.863 71.6301 729.854C72.5261 729.845 73.4315 729.821 74.3461 729.784C75.2608 729.737 76.1428 729.663 76.9921 729.56L77.1181 730.792C76.2408 730.932 75.3448 731.035 74.4301 731.1C73.5248 731.165 72.6381 731.207 71.7701 731.226C70.9021 731.235 70.0948 731.24 69.3481 731.24ZM87.799 725.962H91.635V727.46H87.799V725.962ZM87.799 728.846H91.635V730.33H87.799V728.846ZM85.643 724.968C86.2964 724.968 86.8797 725.108 87.393 725.388C87.9064 725.659 88.3124 726.032 88.611 726.508C88.919 726.984 89.073 727.53 89.073 728.146C89.073 728.753 88.919 729.294 88.611 729.77C88.3124 730.246 87.9064 730.624 87.393 730.904C86.8797 731.175 86.2964 731.31 85.643 731.31C85.0084 731.31 84.4297 731.175 83.907 730.904C83.3937 730.624 82.983 730.246 82.675 729.77C82.3764 729.294 82.227 728.753 82.227 728.146C82.227 727.53 82.3764 726.984 82.675 726.508C82.983 726.032 83.3937 725.659 83.907 725.388C84.4297 725.108 85.0084 724.968 85.643 724.968ZM85.643 726.536C85.335 726.536 85.055 726.601 84.803 726.732C84.551 726.853 84.3504 727.035 84.201 727.278C84.061 727.511 83.991 727.801 83.991 728.146C83.991 728.473 84.061 728.757 84.201 729C84.3504 729.243 84.551 729.429 84.803 729.56C85.055 729.681 85.335 729.742 85.643 729.742C85.9697 729.742 86.2544 729.681 86.497 729.56C86.749 729.429 86.945 729.243 87.085 729C87.225 728.757 87.295 728.473 87.295 728.146C87.295 727.801 87.225 727.511 87.085 727.278C86.945 727.035 86.749 726.853 86.497 726.732C86.2544 726.601 85.9697 726.536 85.643 726.536ZM91.047 724.282H92.923V731.87H91.047V724.282ZM88.527 732.136C89.4417 732.136 90.2257 732.239 90.879 732.444C91.5417 732.64 92.055 732.929 92.419 733.312C92.783 733.695 92.965 734.152 92.965 734.684C92.965 735.216 92.783 735.673 92.419 736.056C92.055 736.448 91.5417 736.742 90.879 736.938C90.2257 737.143 89.4417 737.246 88.527 737.246C87.6124 737.246 86.8237 737.143 86.161 736.938C85.4984 736.742 84.985 736.448 84.621 736.056C84.2664 735.673 84.089 735.216 84.089 734.684C84.089 734.152 84.2664 733.695 84.621 733.312C84.985 732.929 85.4984 732.64 86.161 732.444C86.8237 732.239 87.6124 732.136 88.527 732.136ZM88.527 733.564C87.967 733.564 87.491 733.606 87.099 733.69C86.707 733.774 86.413 733.9 86.217 734.068C86.021 734.227 85.923 734.432 85.923 734.684C85.923 734.936 86.021 735.146 86.217 735.314C86.413 735.482 86.707 735.608 87.099 735.692C87.491 735.767 87.967 735.804 88.527 735.804C89.0964 735.804 89.5724 735.767 89.955 735.692C90.347 735.608 90.641 735.482 90.837 735.314C91.033 735.146 91.131 734.936 91.131 734.684C91.131 734.432 91.033 734.227 90.837 734.068C90.641 733.9 90.347 733.774 89.955 733.69C89.5724 733.606 89.0964 733.564 88.527 733.564Z" fill="#6B7280"/>
<path d="M345 671H125V713H345V671Z" fill="#2563EB"/>
<path d="M194.653 686.254H196.515V699.26H194.653V686.254ZM192.385 690.79H195.087V692.288H192.385V690.79ZM188.619 688.312H190.103V689.474C190.103 690.258 190.029 691.028 189.879 691.784C189.73 692.54 189.506 693.245 189.207 693.898C188.918 694.551 188.549 695.13 188.101 695.634C187.653 696.138 187.131 696.544 186.533 696.852L185.441 695.382C185.983 695.13 186.454 694.794 186.855 694.374C187.257 693.945 187.588 693.469 187.849 692.946C188.111 692.414 188.302 691.854 188.423 691.266C188.554 690.669 188.619 690.071 188.619 689.474V688.312ZM189.053 688.312H190.509V689.474C190.509 690.043 190.57 690.613 190.691 691.182C190.822 691.742 191.018 692.279 191.279 692.792C191.55 693.296 191.886 693.749 192.287 694.15C192.689 694.551 193.16 694.878 193.701 695.13L192.623 696.586C192.007 696.297 191.475 695.909 191.027 695.424C190.579 694.939 190.211 694.383 189.921 693.758C189.632 693.123 189.413 692.442 189.263 691.714C189.123 690.986 189.053 690.239 189.053 689.474V688.312ZM185.959 687.514H193.169V689.012H185.959V687.514ZM201.4 687.724H202.926V688.536C202.926 689.357 202.791 690.137 202.52 690.874C202.259 691.611 201.858 692.26 201.316 692.82C200.775 693.371 200.089 693.781 199.258 694.052L198.334 692.582C199.044 692.349 199.622 692.022 200.07 691.602C200.528 691.173 200.864 690.692 201.078 690.16C201.293 689.619 201.4 689.077 201.4 688.536V687.724ZM201.778 687.724H203.276V688.536C203.276 689.04 203.379 689.53 203.584 690.006C203.79 690.473 204.107 690.893 204.536 691.266C204.975 691.639 205.544 691.933 206.244 692.148L205.348 693.604C204.527 693.361 203.85 692.988 203.318 692.484C202.796 691.971 202.408 691.378 202.156 690.706C201.904 690.025 201.778 689.301 201.778 688.536V687.724ZM198.81 687.136H205.824V688.62H198.81V687.136ZM206.846 686.282H208.708V693.968H206.846V686.282ZM208.204 689.25H210.43V690.776H208.204V689.25ZM204.48 694.192C205.386 694.192 206.165 694.295 206.818 694.5C207.472 694.696 207.976 694.981 208.33 695.354C208.685 695.727 208.862 696.18 208.862 696.712C208.862 697.244 208.685 697.697 208.33 698.07C207.976 698.453 207.472 698.742 206.818 698.938C206.165 699.143 205.386 699.246 204.48 699.246C203.584 699.246 202.805 699.143 202.142 698.938C201.489 698.742 200.98 698.453 200.616 698.07C200.262 697.697 200.084 697.244 200.084 696.712C200.084 696.18 200.262 695.727 200.616 695.354C200.98 694.981 201.489 694.696 202.142 694.5C202.805 694.295 203.584 694.192 204.48 694.192ZM204.48 695.648C203.93 695.648 203.468 695.685 203.094 695.76C202.721 695.835 202.436 695.951 202.24 696.11C202.044 696.269 201.946 696.469 201.946 696.712C201.946 696.964 202.044 697.169 202.24 697.328C202.436 697.487 202.721 697.608 203.094 697.692C203.468 697.767 203.93 697.804 204.48 697.804C205.031 697.804 205.493 697.767 205.866 697.692C206.249 697.608 206.534 697.487 206.72 697.328C206.916 697.169 207.014 696.964 207.014 696.712C207.014 696.469 206.916 696.269 206.72 696.11C206.534 695.951 206.249 695.835 205.866 695.76C205.493 695.685 205.031 695.648 204.48 695.648ZM215.182 687.626H225.752V689.082H215.182V687.626ZM214.636 694.668H226.382V696.152H214.636V694.668ZM219.564 695.984H221.412V699.246H219.564V695.984ZM220.502 689.586C221.892 689.586 222.98 689.777 223.764 690.16C224.548 690.543 224.94 691.093 224.94 691.812C224.94 692.531 224.548 693.086 223.764 693.478C222.98 693.861 221.888 694.052 220.488 694.052C219.097 694.052 218.01 693.861 217.226 693.478C216.442 693.086 216.05 692.531 216.05 691.812C216.05 691.093 216.442 690.543 217.226 690.16C218.01 689.777 219.102 689.586 220.502 689.586ZM220.488 690.972C219.648 690.972 219.018 691.037 218.598 691.168C218.187 691.299 217.982 691.513 217.982 691.812C217.982 692.101 218.187 692.316 218.598 692.456C219.018 692.596 219.648 692.666 220.488 692.666C221.337 692.666 221.967 692.596 222.378 692.456C222.798 692.316 223.008 692.101 223.008 691.812C223.008 691.513 222.798 691.299 222.378 691.168C221.967 691.037 221.337 690.972 220.488 690.972ZM219.564 686.268H221.412V688.592H219.564V686.268ZM235.753 689.698H238.371V691.168H235.753V689.698ZM235.683 692.932H238.329V694.416H235.683V692.932ZM240.135 686.268H241.913V699.232H240.135V686.268ZM237.475 686.548H239.211V698.658H237.475V686.548ZM234.549 687.794H236.327C236.327 689.026 236.182 690.174 235.893 691.238C235.613 692.293 235.127 693.263 234.437 694.15C233.755 695.037 232.813 695.835 231.609 696.544L230.559 695.242C231.539 694.654 232.318 694.015 232.897 693.324C233.485 692.624 233.905 691.854 234.157 691.014C234.418 690.165 234.549 689.217 234.549 688.172V687.794ZM231.301 687.794H235.165V689.292H231.301V687.794ZM243.62 692.568H255.366V694.038H243.62V692.568ZM248.534 690.888H250.396V693.212H248.534V690.888ZM248.52 686.506H250.116V686.898C250.116 687.374 250.041 687.831 249.892 688.27C249.742 688.699 249.523 689.096 249.234 689.46C248.944 689.824 248.59 690.155 248.17 690.454C247.75 690.743 247.264 690.991 246.714 691.196C246.172 691.401 245.566 691.551 244.894 691.644L244.208 690.174C244.796 690.109 245.318 690.001 245.776 689.852C246.242 689.693 246.644 689.507 246.98 689.292C247.325 689.077 247.61 688.839 247.834 688.578C248.067 688.317 248.24 688.046 248.352 687.766C248.464 687.477 248.52 687.187 248.52 686.898V686.506ZM248.828 686.506H250.41V686.898C250.41 687.197 250.466 687.491 250.578 687.78C250.69 688.069 250.858 688.345 251.082 688.606C251.306 688.858 251.586 689.091 251.922 689.306C252.267 689.521 252.673 689.703 253.14 689.852C253.606 690.001 254.134 690.109 254.722 690.174L254.036 691.644C253.373 691.551 252.766 691.401 252.216 691.196C251.674 690.991 251.189 690.748 250.76 690.468C250.34 690.179 249.985 689.852 249.696 689.488C249.406 689.115 249.187 688.713 249.038 688.284C248.898 687.855 248.828 687.393 248.828 686.898V686.506ZM244.922 694.948H253.938V699.246H252.076V696.418H244.922V694.948ZM262.791 688.172H264.191V688.326C264.191 688.821 264.055 689.273 263.785 689.684C263.523 690.095 263.122 690.44 262.581 690.72C262.049 690.991 261.381 691.177 260.579 691.28L259.963 689.95C260.597 689.885 261.12 689.773 261.531 689.614C261.951 689.455 262.263 689.264 262.469 689.04C262.683 688.816 262.791 688.578 262.791 688.326V688.172ZM263.267 688.172H264.653V688.326C264.653 688.569 264.755 688.797 264.961 689.012C265.175 689.217 265.488 689.395 265.899 689.544C266.309 689.693 266.818 689.801 267.425 689.866L266.823 691.182C266.039 691.089 265.381 690.911 264.849 690.65C264.317 690.379 263.92 690.043 263.659 689.642C263.397 689.241 263.267 688.802 263.267 688.326V688.172ZM260.299 687.164H267.145V688.48H260.299V687.164ZM262.791 690.818H264.667V692.54H262.791V690.818ZM262.791 686.24H264.653V687.878H262.791V686.24ZM261.307 693.856H270.029V697.118H263.169V698.392H261.335V695.844H268.195V695.2H261.307V693.856ZM261.335 697.804H270.477V699.162H261.335V697.804ZM268.167 686.282H270.029V693.38H268.167V686.282ZM269.385 689.026H271.667V690.524H269.385V689.026ZM259.907 693.24L259.697 691.868C260.471 691.868 261.302 691.863 262.189 691.854C263.085 691.845 263.99 691.821 264.905 691.784C265.819 691.737 266.701 691.663 267.551 691.56L267.677 692.792C266.799 692.932 265.903 693.035 264.989 693.1C264.083 693.165 263.197 693.207 262.329 693.226C261.461 693.235 260.653 693.24 259.907 693.24ZM278.358 687.962H282.194V689.46H278.358V687.962ZM278.358 690.846H282.194V692.33H278.358V690.846ZM276.202 686.968C276.855 686.968 277.438 687.108 277.952 687.388C278.465 687.659 278.871 688.032 279.17 688.508C279.478 688.984 279.632 689.53 279.632 690.146C279.632 690.753 279.478 691.294 279.17 691.77C278.871 692.246 278.465 692.624 277.952 692.904C277.438 693.175 276.855 693.31 276.202 693.31C275.567 693.31 274.988 693.175 274.466 692.904C273.952 692.624 273.542 692.246 273.234 691.77C272.935 691.294 272.786 690.753 272.786 690.146C272.786 689.53 272.935 688.984 273.234 688.508C273.542 688.032 273.952 687.659 274.466 687.388C274.988 687.108 275.567 686.968 276.202 686.968ZM276.202 688.536C275.894 688.536 275.614 688.601 275.362 688.732C275.11 688.853 274.909 689.035 274.76 689.278C274.62 689.511 274.55 689.801 274.55 690.146C274.55 690.473 274.62 690.757 274.76 691C274.909 691.243 275.11 691.429 275.362 691.56C275.614 691.681 275.894 691.742 276.202 691.742C276.528 691.742 276.813 691.681 277.056 691.56C277.308 691.429 277.504 691.243 277.644 691C277.784 690.757 277.854 690.473 277.854 690.146C277.854 689.801 277.784 689.511 277.644 689.278C277.504 689.035 277.308 688.853 277.056 688.732C276.813 688.601 276.528 688.536 276.202 688.536ZM281.606 686.282H283.482V693.87H281.606V686.282ZM279.086 694.136C280 694.136 280.784 694.239 281.438 694.444C282.1 694.64 282.614 694.929 282.978 695.312C283.342 695.695 283.524 696.152 283.524 696.684C283.524 697.216 283.342 697.673 282.978 698.056C282.614 698.448 282.1 698.742 281.438 698.938C280.784 699.143 280 699.246 279.086 699.246C278.171 699.246 277.382 699.143 276.72 698.938C276.057 698.742 275.544 698.448 275.18 698.056C274.825 697.673 274.648 697.216 274.648 696.684C274.648 696.152 274.825 695.695 275.18 695.312C275.544 694.929 276.057 694.64 276.72 694.444C277.382 694.239 278.171 694.136 279.086 694.136ZM279.086 695.564C278.526 695.564 278.05 695.606 277.658 695.69C277.266 695.774 276.972 695.9 276.776 696.068C276.58 696.227 276.482 696.432 276.482 696.684C276.482 696.936 276.58 697.146 276.776 697.314C276.972 697.482 277.266 697.608 277.658 697.692C278.05 697.767 278.526 697.804 279.086 697.804C279.655 697.804 280.131 697.767 280.514 697.692C280.906 697.608 281.2 697.482 281.396 697.314C281.592 697.146 281.69 696.936 281.69 696.684C281.69 696.432 281.592 696.227 281.396 696.068C281.2 695.9 280.906 695.774 280.514 695.69C280.131 695.606 279.655 695.564 279.086 695.564Z" fill="white"/>
<path d="M345 721H125V763H345V721Z" fill="white" stroke="#D1D5DB" stroke-width="2"/>
<path d="M196.274 736.254H198.136V749.26H196.274V736.254ZM194.006 740.79H196.708V742.288H194.006V740.79ZM190.24 738.312H191.724V739.474C191.724 740.258 191.649 741.028 191.5 741.784C191.35 742.54 191.126 743.245 190.828 743.898C190.538 744.551 190.17 745.13 189.722 745.634C189.274 746.138 188.751 746.544 188.154 746.852L187.062 745.382C187.603 745.13 188.074 744.794 188.476 744.374C188.877 743.945 189.208 743.469 189.47 742.946C189.731 742.414 189.922 741.854 190.044 741.266C190.174 740.669 190.24 740.071 190.24 739.474V738.312ZM190.674 738.312H192.13V739.474C192.13 740.043 192.19 740.613 192.312 741.182C192.442 741.742 192.638 742.279 192.9 742.792C193.17 743.296 193.506 743.749 193.908 744.15C194.309 744.551 194.78 744.878 195.322 745.13L194.244 746.586C193.628 746.297 193.096 745.909 192.648 745.424C192.2 744.939 191.831 744.383 191.542 743.758C191.252 743.123 191.033 742.442 190.884 741.714C190.744 740.986 190.674 740.239 190.674 739.474V738.312ZM187.58 737.514H194.79V739.012H187.58V737.514ZM203.021 737.724H204.547V738.536C204.547 739.357 204.411 740.137 204.141 740.874C203.879 741.611 203.478 742.26 202.937 742.82C202.395 743.371 201.709 743.781 200.879 744.052L199.955 742.582C200.664 742.349 201.243 742.022 201.691 741.602C202.148 741.173 202.484 740.692 202.699 740.16C202.913 739.619 203.021 739.077 203.021 738.536V737.724ZM203.399 737.724H204.897V738.536C204.897 739.04 204.999 739.53 205.205 740.006C205.41 740.473 205.727 740.893 206.157 741.266C206.595 741.639 207.165 741.933 207.865 742.148L206.969 743.604C206.147 743.361 205.471 742.988 204.939 742.484C204.416 741.971 204.029 741.378 203.777 740.706C203.525 740.025 203.399 739.301 203.399 738.536V737.724ZM200.431 737.136H207.445V738.62H200.431V737.136ZM208.467 736.282H210.329V743.968H208.467V736.282ZM209.825 739.25H212.051V740.776H209.825V739.25ZM206.101 744.192C207.006 744.192 207.785 744.295 208.439 744.5C209.092 744.696 209.596 744.981 209.951 745.354C210.305 745.727 210.483 746.18 210.483 746.712C210.483 747.244 210.305 747.697 209.951 748.07C209.596 748.453 209.092 748.742 208.439 748.938C207.785 749.143 207.006 749.246 206.101 749.246C205.205 749.246 204.425 749.143 203.763 748.938C203.109 748.742 202.601 748.453 202.237 748.07C201.882 747.697 201.705 747.244 201.705 746.712C201.705 746.18 201.882 745.727 202.237 745.354C202.601 744.981 203.109 744.696 203.763 744.5C204.425 744.295 205.205 744.192 206.101 744.192ZM206.101 745.648C205.55 745.648 205.088 745.685 204.715 745.76C204.341 745.835 204.057 745.951 203.861 746.11C203.665 746.269 203.567 746.469 203.567 746.712C203.567 746.964 203.665 747.169 203.861 747.328C204.057 747.487 204.341 747.608 204.715 747.692C205.088 747.767 205.55 747.804 206.101 747.804C206.651 747.804 207.113 747.767 207.487 747.692C207.869 747.608 208.154 747.487 208.341 747.328C208.537 747.169 208.635 746.964 208.635 746.712C208.635 746.469 208.537 746.269 208.341 746.11C208.154 745.951 207.869 745.835 207.487 745.76C207.113 745.685 206.651 745.648 206.101 745.648ZM216.802 737.626H227.372V739.082H216.802V737.626ZM216.256 744.668H228.002V746.152H216.256V744.668ZM221.184 745.984H223.032V749.246H221.184V745.984ZM222.122 739.586C223.512 739.586 224.6 739.777 225.384 740.16C226.168 740.543 226.56 741.093 226.56 741.812C226.56 742.531 226.168 743.086 225.384 743.478C224.6 743.861 223.508 744.052 222.108 744.052C220.717 744.052 219.63 743.861 218.846 743.478C218.062 743.086 217.67 742.531 217.67 741.812C217.67 741.093 218.062 740.543 218.846 740.16C219.63 739.777 220.722 739.586 222.122 739.586ZM222.108 740.972C221.268 740.972 220.638 741.037 220.218 741.168C219.807 741.299 219.602 741.513 219.602 741.812C219.602 742.101 219.807 742.316 220.218 742.456C220.638 742.596 221.268 742.666 222.108 742.666C222.957 742.666 223.587 742.596 223.998 742.456C224.418 742.316 224.628 742.101 224.628 741.812C224.628 741.513 224.418 741.299 223.998 741.168C223.587 741.037 222.957 740.972 222.108 740.972ZM221.184 736.268H223.032V738.592H221.184V736.268ZM232.739 737.598H237.849V745.998H232.739V737.598ZM236.127 739.054H234.475V744.556H236.127V739.054ZM241.727 736.268H243.505V749.232H241.727V736.268ZM236.911 740.986H239.823V742.484H236.911V740.986ZM239.095 736.478H240.831V748.658H239.095V736.478ZM254.158 736.282H256.02V745.592H254.158V736.282ZM247.382 747.524H256.356V749.022H247.382V747.524ZM247.382 744.668H249.244V748.14H247.382V744.668ZM248.964 737.108C249.626 737.108 250.224 737.248 250.756 737.528C251.288 737.808 251.708 738.195 252.016 738.69C252.333 739.185 252.492 739.754 252.492 740.398C252.492 741.023 252.333 741.588 252.016 742.092C251.708 742.587 251.288 742.979 250.756 743.268C250.224 743.548 249.626 743.688 248.964 743.688C248.301 743.688 247.704 743.548 247.172 743.268C246.64 742.979 246.215 742.587 245.898 742.092C245.59 741.588 245.436 741.023 245.436 740.398C245.436 739.754 245.59 739.185 245.898 738.69C246.215 738.195 246.64 737.808 247.172 737.528C247.704 737.248 248.301 737.108 248.964 737.108ZM248.964 738.704C248.646 738.704 248.357 738.774 248.096 738.914C247.834 739.045 247.629 739.236 247.48 739.488C247.33 739.731 247.256 740.034 247.256 740.398C247.256 740.743 247.33 741.042 247.48 741.294C247.629 741.537 247.834 741.728 248.096 741.868C248.357 741.999 248.646 742.064 248.964 742.064C249.281 742.064 249.57 741.999 249.832 741.868C250.093 741.728 250.298 741.537 250.448 741.294C250.597 741.042 250.672 740.743 250.672 740.398C250.672 740.034 250.597 739.731 250.448 739.488C250.298 739.236 250.093 739.045 249.832 738.914C249.57 738.774 249.281 738.704 248.964 738.704ZM263.985 736.926C264.899 736.926 265.721 737.08 266.449 737.388C267.186 737.696 267.765 738.13 268.185 738.69C268.614 739.25 268.829 739.908 268.829 740.664C268.829 741.42 268.614 742.083 268.185 742.652C267.765 743.212 267.186 743.646 266.449 743.954C265.721 744.262 264.899 744.416 263.985 744.416C263.079 744.416 262.258 744.262 261.521 743.954C260.793 743.646 260.214 743.212 259.785 742.652C259.355 742.083 259.141 741.42 259.141 740.664C259.141 739.908 259.355 739.25 259.785 738.69C260.214 738.13 260.793 737.696 261.521 737.388C262.258 737.08 263.079 736.926 263.985 736.926ZM263.985 738.438C263.406 738.438 262.888 738.527 262.431 738.704C261.973 738.881 261.614 739.138 261.353 739.474C261.101 739.801 260.975 740.197 260.975 740.664C260.975 741.131 261.101 741.532 261.353 741.868C261.614 742.195 261.973 742.447 262.431 742.624C262.888 742.801 263.406 742.89 263.985 742.89C264.582 742.89 265.105 742.801 265.553 742.624C266.01 742.447 266.365 742.195 266.617 741.868C266.878 741.532 267.009 741.131 267.009 740.664C267.009 740.197 266.878 739.801 266.617 739.474C266.365 739.138 266.01 738.881 265.553 738.704C265.105 738.527 264.582 738.438 263.985 738.438ZM258.133 746.152H269.879V747.678H258.133V746.152ZM271.012 746.306H282.758V747.818H271.012V746.306ZM275.94 743.842H277.788V746.908H275.94V743.842ZM272.342 737.108H281.428V741.434H274.204V743.604H272.356V739.978H279.58V738.592H272.342V737.108ZM272.356 742.876H281.722V744.36H272.356V742.876Z" fill="#374151"/>
</svg>
