<svg width="362" height="782" viewBox="0 0 362 782" fill="none" xmlns="http://www.w3.org/2000/svg">
<path d="M361 1H1V781H361V1Z" fill="#1F2937" stroke="#D1D5DB" stroke-width="2"/>
<path d="M34.1335 50.7955L26.9744 43.6364L34.1335 36.4773L35.7812 38.1108L31.456 42.4361H41.5909V44.8366H31.456L35.7812 49.1548L34.1335 50.7955Z" fill="white"/>
<path d="M323 33H285C277.268 33 271 39.268 271 47C271 54.732 277.268 61 285 61H323C330.732 61 337 54.732 337 47C337 39.268 330.732 33 323 33Z" fill="#374151"/>
<path d="M283 52.98H297V38.98H283V52.98ZM302.588 52H301.295L305.034 41.8182H306.307L310.045 52H308.753L305.71 43.429H305.631L302.588 52ZM303.065 48.0227H308.276V49.1165H303.065V48.0227ZM316.285 48.8778V44.3636H317.458V52H316.285V50.7074H316.205C316.026 51.0952 315.748 51.425 315.37 51.6967C314.992 51.9652 314.515 52.0994 313.938 52.0994C313.461 52.0994 313.037 51.995 312.665 51.7862C312.294 51.5741 312.003 51.2559 311.79 50.8317C311.578 50.4041 311.472 49.8655 311.472 49.2159V44.3636H312.646V49.1364C312.646 49.6932 312.801 50.1373 313.113 50.4688C313.428 50.8002 313.829 50.9659 314.316 50.9659C314.608 50.9659 314.904 50.8913 315.206 50.7422C315.511 50.593 315.766 50.3643 315.972 50.0561C316.18 49.7479 316.285 49.3551 316.285 48.8778ZM322.928 44.3636V45.358H318.971V44.3636H322.928ZM320.124 42.5341H321.297V49.8125C321.297 50.1439 321.345 50.3925 321.442 50.5582C321.541 50.7206 321.667 50.83 321.819 50.8864C321.975 50.9394 322.139 50.9659 322.312 50.9659C322.441 50.9659 322.547 50.9593 322.63 50.946C322.713 50.9295 322.779 50.9162 322.829 50.9062L323.067 51.9602C322.988 51.9901 322.877 52.0199 322.734 52.0497C322.592 52.0829 322.411 52.0994 322.192 52.0994C321.861 52.0994 321.536 52.0282 321.218 51.8857C320.903 51.7431 320.641 51.526 320.432 51.2344C320.227 50.9427 320.124 50.5748 320.124 50.1307V42.5341ZM327.713 52.1591C327.024 52.1591 326.419 51.995 325.899 51.6669C325.382 51.3388 324.977 50.8797 324.686 50.2898C324.397 49.6998 324.253 49.0104 324.253 48.2216C324.253 47.4261 324.397 46.7318 324.686 46.1385C324.977 45.5452 325.382 45.0845 325.899 44.7564C326.419 44.4283 327.024 44.2642 327.713 44.2642C328.403 44.2642 329.006 44.4283 329.523 44.7564C330.043 45.0845 330.448 45.5452 330.736 46.1385C331.028 46.7318 331.173 47.4261 331.173 48.2216C331.173 49.0104 331.028 49.6998 330.736 50.2898C330.448 50.8797 330.043 51.3388 329.523 51.6669C329.006 51.995 328.403 52.1591 327.713 52.1591ZM327.713 51.1051C328.237 51.1051 328.668 50.9709 329.006 50.7024C329.344 50.4339 329.594 50.081 329.757 49.6435C329.919 49.206 330 48.732 330 48.2216C330 47.7112 329.919 47.2356 329.757 46.7947C329.594 46.3539 329.344 45.9976 329.006 45.7259C328.668 45.4541 328.237 45.3182 327.713 45.3182C327.19 45.3182 326.759 45.4541 326.421 45.7259C326.083 45.9976 325.832 46.3539 325.67 46.7947C325.508 47.2356 325.426 47.7112 325.426 48.2216C325.426 48.732 325.508 49.206 325.67 49.6435C325.832 50.081 326.083 50.4339 326.421 50.7024C326.759 50.9709 327.19 51.1051 327.713 51.1051Z" fill="white"/>
<path d="M181 406C205.853 406 226 385.853 226 361C226 336.147 205.853 316 181 316C156.147 316 136 336.147 136 361C136 385.853 156.147 406 181 406Z" stroke="#FBBF24" stroke-width="1.5" stroke-dasharray="4 4"/>
<path d="M181 366C183.761 366 186 363.761 186 361C186 358.239 183.761 356 181 356C178.239 356 176 358.239 176 361C176 363.761 178.239 366 181 366Z" fill="#FBBF24"/>
<path d="M293 261H69C59.0589 261 51 269.059 51 279C51 288.941 59.0589 297 69 297H293C302.941 297 311 288.941 311 279C311 269.059 302.941 261 293 261Z" fill="black" fill-opacity="0.6"/>
<path d="M62.5453 272.422H63.7073V285.078H62.5453V272.422ZM63.3993 277.56H65.7233V278.526H63.3993V277.56ZM59.3113 273.78H60.4453C60.4453 274.984 60.2493 276.137 59.8573 277.238C59.4653 278.33 58.8493 279.343 58.0093 280.276C57.1693 281.2 56.0633 282.003 54.6913 282.684L54.0473 281.788C55.2233 281.2 56.1987 280.514 56.9733 279.73C57.7573 278.937 58.3407 278.059 58.7233 277.098C59.1153 276.127 59.3113 275.082 59.3113 273.962V273.78ZM54.6353 273.78H59.8993V274.746H54.6353V273.78ZM76.0543 272.422H77.2163V285.106H76.0543V272.422ZM70.5383 273.402C71.1636 273.402 71.7143 273.584 72.1903 273.948C72.6756 274.303 73.0536 274.811 73.3243 275.474C73.6043 276.137 73.7443 276.916 73.7443 277.812C73.7443 278.708 73.6043 279.487 73.3243 280.15C73.0536 280.813 72.6756 281.326 72.1903 281.69C71.7143 282.054 71.1636 282.236 70.5383 282.236C69.9129 282.236 69.3576 282.054 68.8723 281.69C68.3869 281.326 68.0043 280.813 67.7243 280.15C67.4536 279.487 67.3183 278.708 67.3183 277.812C67.3183 276.916 67.4536 276.137 67.7243 275.474C68.0043 274.811 68.3869 274.303 68.8723 273.948C69.3576 273.584 69.9129 273.402 70.5383 273.402ZM70.5383 274.438C70.1183 274.438 69.7496 274.578 69.4323 274.858C69.1243 275.129 68.8816 275.521 68.7043 276.034C68.5269 276.538 68.4383 277.131 68.4383 277.812C68.4383 278.493 68.5269 279.091 68.7043 279.604C68.8816 280.108 69.1243 280.5 69.4323 280.78C69.7496 281.06 70.1183 281.2 70.5383 281.2C70.9489 281.2 71.3083 281.06 71.6163 280.78C71.9336 280.5 72.1809 280.108 72.3583 279.604C72.5356 279.091 72.6243 278.493 72.6243 277.812C72.6243 277.131 72.5356 276.538 72.3583 276.034C72.1809 275.521 71.9336 275.129 71.6163 274.858C71.3083 274.578 70.9489 274.438 70.5383 274.438ZM81.1912 278.498H89.8852V279.45H81.1912V278.498ZM79.7352 282.404H91.2152V283.37H79.7352V282.404ZM81.1912 273.598H89.7592V274.55H82.3392V278.918H81.1912V273.598ZM105.218 272.422H106.38V280.066H105.218V272.422ZM106.058 275.712H108.242V276.678H106.058V275.712ZM98.1476 280.738H106.38V285.092H105.218V281.69H98.1476V280.738ZM97.0696 273.22H98.2176V275.194H101.788V273.22H102.936V279.212H97.0696V273.22ZM98.2176 276.118V278.274H101.788V276.118H98.2176ZM114.498 273.29H115.52V274.27C115.52 274.821 115.422 275.343 115.226 275.838C115.04 276.333 114.778 276.795 114.442 277.224C114.116 277.644 113.733 278.022 113.294 278.358C112.865 278.694 112.403 278.979 111.908 279.212C111.423 279.445 110.928 279.623 110.424 279.744L109.906 278.778C110.345 278.685 110.784 278.54 111.222 278.344C111.67 278.148 112.09 277.91 112.482 277.63C112.874 277.341 113.22 277.019 113.518 276.664C113.826 276.309 114.064 275.931 114.232 275.53C114.41 275.119 114.498 274.699 114.498 274.27V273.29ZM114.722 273.29H115.716V274.27C115.716 274.699 115.805 275.119 115.982 275.53C116.16 275.931 116.398 276.309 116.696 276.664C117.004 277.019 117.354 277.341 117.746 277.63C118.138 277.91 118.554 278.153 118.992 278.358C119.44 278.554 119.888 278.694 120.336 278.778L119.804 279.744C119.3 279.623 118.806 279.445 118.32 279.212C117.835 278.979 117.373 278.694 116.934 278.358C116.505 278.022 116.122 277.644 115.786 277.224C115.45 276.795 115.189 276.333 115.002 275.838C114.816 275.343 114.722 274.821 114.722 274.27V273.29ZM109.43 282.418H120.91V283.384H109.43V282.418ZM134.913 272.422H136.075V281.746H134.913V272.422ZM135.711 276.272H137.937V277.238H135.711V276.272ZM128.193 283.86H136.635V284.812H128.193V283.86ZM128.193 280.794H129.341V284.238H128.193V280.794ZM129.775 273.318C130.41 273.318 130.974 273.453 131.469 273.724C131.964 273.985 132.356 274.349 132.645 274.816C132.934 275.283 133.079 275.824 133.079 276.44C133.079 277.037 132.934 277.574 132.645 278.05C132.356 278.526 131.964 278.899 131.469 279.17C130.974 279.431 130.41 279.562 129.775 279.562C129.15 279.562 128.585 279.431 128.081 279.17C127.586 278.899 127.194 278.526 126.905 278.05C126.616 277.574 126.471 277.037 126.471 276.44C126.471 275.824 126.616 275.283 126.905 274.816C127.194 274.349 127.586 273.985 128.081 273.724C128.585 273.453 129.15 273.318 129.775 273.318ZM129.775 274.326C129.364 274.326 128.996 274.415 128.669 274.592C128.342 274.769 128.081 275.017 127.885 275.334C127.698 275.651 127.605 276.02 127.605 276.44C127.605 276.851 127.698 277.215 127.885 277.532C128.081 277.849 128.342 278.097 128.669 278.274C128.996 278.451 129.364 278.54 129.775 278.54C130.186 278.54 130.554 278.451 130.881 278.274C131.217 278.097 131.478 277.849 131.665 277.532C131.861 277.215 131.959 276.851 131.959 276.44C131.959 276.02 131.861 275.651 131.665 275.334C131.478 275.017 131.217 274.769 130.881 274.592C130.554 274.415 130.186 274.326 129.775 274.326ZM144.264 277.35H146.644V278.302H144.264V277.35ZM148.772 272.422H149.892V285.092H148.772V272.422ZM146.252 272.688H147.358V284.448H146.252V272.688ZM141.968 273.486C142.518 273.486 142.994 273.663 143.396 274.018C143.806 274.373 144.124 274.881 144.348 275.544C144.572 276.207 144.684 276.986 144.684 277.882C144.684 278.787 144.572 279.571 144.348 280.234C144.124 280.897 143.806 281.41 143.396 281.774C142.994 282.129 142.518 282.306 141.968 282.306C141.436 282.306 140.964 282.129 140.554 281.774C140.152 281.41 139.84 280.897 139.616 280.234C139.392 279.571 139.28 278.787 139.28 277.882C139.28 276.986 139.392 276.207 139.616 275.544C139.84 274.881 140.152 274.373 140.554 274.018C140.964 273.663 141.436 273.486 141.968 273.486ZM141.968 274.564C141.641 274.564 141.356 274.699 141.114 274.97C140.871 275.241 140.684 275.623 140.554 276.118C140.423 276.613 140.358 277.201 140.358 277.882C140.358 278.563 140.423 279.156 140.554 279.66C140.684 280.155 140.871 280.537 141.114 280.808C141.356 281.079 141.641 281.214 141.968 281.214C142.304 281.214 142.593 281.079 142.836 280.808C143.088 280.537 143.279 280.155 143.41 279.66C143.54 279.156 143.606 278.563 143.606 277.882C143.606 277.201 143.54 276.613 143.41 276.118C143.279 275.623 143.088 275.241 142.836 274.97C142.593 274.699 142.304 274.564 141.968 274.564ZM155.942 278.19H167.408V279.142H155.942V278.19ZM161.066 278.624H162.214V280.556H161.066V278.624ZM161.038 281.144H162.032V281.536C162.032 282.012 161.906 282.451 161.654 282.852C161.402 283.244 161.048 283.594 160.59 283.902C160.133 284.201 159.61 284.443 159.022 284.63C158.434 284.826 157.809 284.961 157.146 285.036L156.768 284.14C157.347 284.084 157.893 283.981 158.406 283.832C158.92 283.683 159.372 283.491 159.764 283.258C160.156 283.025 160.464 282.763 160.688 282.474C160.922 282.175 161.038 281.863 161.038 281.536V281.144ZM161.248 281.144H162.228V281.536C162.228 281.881 162.34 282.199 162.564 282.488C162.798 282.777 163.11 283.039 163.502 283.272C163.904 283.496 164.361 283.683 164.874 283.832C165.388 283.981 165.929 284.084 166.498 284.14L166.134 285.036C165.472 284.961 164.846 284.826 164.258 284.63C163.67 284.443 163.148 284.205 162.69 283.916C162.242 283.617 161.888 283.267 161.626 282.866C161.374 282.465 161.248 282.021 161.248 281.536V281.144ZM161.066 272.576H162.074V273.15C162.074 273.589 161.981 273.999 161.794 274.382C161.608 274.765 161.351 275.115 161.024 275.432C160.707 275.749 160.334 276.034 159.904 276.286C159.484 276.529 159.027 276.734 158.532 276.902C158.038 277.07 157.529 277.191 157.006 277.266L156.586 276.356C157.034 276.3 157.478 276.207 157.916 276.076C158.355 275.936 158.761 275.768 159.134 275.572C159.517 275.367 159.853 275.138 160.142 274.886C160.441 274.634 160.67 274.363 160.828 274.074C160.987 273.775 161.066 273.467 161.066 273.15V272.576ZM161.262 272.576H162.256V273.15C162.256 273.467 162.336 273.771 162.494 274.06C162.662 274.34 162.891 274.611 163.18 274.872C163.47 275.124 163.801 275.353 164.174 275.558C164.557 275.763 164.968 275.936 165.406 276.076C165.845 276.207 166.288 276.3 166.736 276.356L166.316 277.266C165.794 277.191 165.285 277.07 164.79 276.902C164.296 276.734 163.834 276.524 163.404 276.272C162.984 276.02 162.611 275.735 162.284 275.418C161.967 275.101 161.715 274.751 161.528 274.368C161.351 273.985 161.262 273.579 161.262 273.15V272.576ZM171.943 274.242H172.881V276.286C172.881 276.949 172.788 277.607 172.601 278.26C172.414 278.904 172.153 279.515 171.817 280.094C171.49 280.663 171.112 281.172 170.683 281.62C170.254 282.059 169.792 282.404 169.297 282.656L168.611 281.732C169.068 281.508 169.493 281.205 169.885 280.822C170.286 280.43 170.641 279.987 170.949 279.492C171.257 278.988 171.5 278.465 171.677 277.924C171.854 277.373 171.943 276.827 171.943 276.286V274.242ZM172.167 274.242H173.091V276.286C173.091 276.79 173.17 277.299 173.329 277.812C173.497 278.325 173.73 278.815 174.029 279.282C174.328 279.749 174.673 280.169 175.065 280.542C175.466 280.906 175.891 281.2 176.339 281.424L175.681 282.348C175.186 282.096 174.724 281.76 174.295 281.34C173.866 280.911 173.492 280.425 173.175 279.884C172.858 279.343 172.61 278.764 172.433 278.148C172.256 277.532 172.167 276.911 172.167 276.286V274.242ZM169.059 273.724H175.891V274.69H169.059V273.724ZM177.389 272.422H178.551V285.092H177.389V272.422ZM178.285 277.532H180.623V278.512H178.285V277.532ZM190.268 272.422H191.43V285.078H190.268V272.422ZM191.122 277.56H193.446V278.526H191.122V277.56ZM187.034 273.78H188.168C188.168 274.984 187.972 276.137 187.58 277.238C187.188 278.33 186.572 279.343 185.732 280.276C184.892 281.2 183.786 282.003 182.414 282.684L181.77 281.788C182.946 281.2 183.921 280.514 184.696 279.73C185.48 278.937 186.063 278.059 186.446 277.098C186.838 276.127 187.034 275.082 187.034 273.962V273.78ZM182.358 273.78H187.622V274.746H182.358V273.78ZM198.852 273.29H200.938V274.228H198.852V273.29ZM201.988 276.258H203.066V279.24H201.988V276.258ZM200.588 273.29H201.68V273.808C201.68 274.172 201.657 274.685 201.61 275.348C201.573 276.001 201.428 276.776 201.176 277.672L200.084 277.504C200.252 276.916 200.369 276.393 200.434 275.936C200.509 275.469 200.551 275.059 200.56 274.704C200.579 274.349 200.588 274.051 200.588 273.808V273.29ZM207.182 272.422H208.344V280.29H207.182V272.422ZM207.742 276.02H210.08V276.986H207.742V276.02ZM198.544 279.716L198.432 278.75C199.198 278.75 200.028 278.745 200.924 278.736C201.82 278.717 202.735 278.685 203.668 278.638C204.602 278.582 205.493 278.498 206.342 278.386L206.426 279.226C205.549 279.366 204.648 279.473 203.724 279.548C202.8 279.613 201.895 279.66 201.008 279.688C200.122 279.707 199.3 279.716 198.544 279.716ZM199.916 280.878H208.344V285.008H207.182V281.83H199.916V280.878ZM202.38 273.29H204.662V274.228H202.38V273.29ZM204.522 273.29H205.628V273.99C205.628 274.41 205.61 274.923 205.572 275.53C205.544 276.137 205.437 276.841 205.25 277.644L204.144 277.504C204.34 276.711 204.452 276.034 204.48 275.474C204.508 274.905 204.522 274.41 204.522 273.99V273.29ZM218.413 275.432H219.337V276.524C219.337 277.187 219.248 277.835 219.071 278.47C218.903 279.095 218.66 279.679 218.343 280.22C218.035 280.761 217.671 281.242 217.251 281.662C216.831 282.073 216.369 282.399 215.865 282.642L215.207 281.746C215.673 281.522 216.103 281.228 216.495 280.864C216.887 280.5 217.223 280.085 217.503 279.618C217.792 279.151 218.016 278.657 218.175 278.134C218.333 277.602 218.413 277.065 218.413 276.524V275.432ZM218.637 275.432H219.547V276.524C219.547 277.028 219.621 277.532 219.771 278.036C219.929 278.531 220.144 279.002 220.415 279.45C220.685 279.889 221.007 280.29 221.381 280.654C221.763 281.009 222.183 281.298 222.641 281.522L221.983 282.404C221.488 282.161 221.035 281.839 220.625 281.438C220.223 281.027 219.873 280.565 219.575 280.052C219.276 279.529 219.043 278.969 218.875 278.372C218.716 277.765 218.637 277.149 218.637 276.524V275.432ZM215.557 274.62H222.361V275.558H215.557V274.62ZM218.399 272.66H219.561V275.138H218.399V272.66ZM223.901 272.422H225.063V285.092H223.901V272.422ZM224.797 277.616H227.135V278.596H224.797V277.616ZM237.858 272.422H238.978V285.092H237.858V272.422ZM232.356 277.602H235.548V278.54H232.356V277.602ZM235.226 272.758H236.318V284.448H235.226V272.758ZM232.51 274.032H233.63C233.63 275.133 233.471 276.193 233.154 277.21C232.846 278.218 232.342 279.161 231.642 280.038C230.942 280.906 230.022 281.681 228.884 282.362L228.212 281.522C229.201 280.925 230.013 280.253 230.648 279.506C231.282 278.75 231.749 277.933 232.048 277.056C232.356 276.169 232.51 275.231 232.51 274.242V274.032ZM228.758 274.032H232.944V274.984H228.758V274.032ZM245.546 273.29H251.37V278.708H245.546V273.29ZM250.236 274.228H246.68V277.77H250.236V274.228ZM253.694 272.422H254.856V279.646H253.694V272.422ZM254.534 275.46H256.718V276.426H254.534V275.46ZM250.32 280.822H251.3V281.158C251.3 281.653 251.179 282.115 250.936 282.544C250.703 282.973 250.371 283.356 249.942 283.692C249.522 284.028 249.037 284.308 248.486 284.532C247.935 284.765 247.347 284.933 246.722 285.036L246.288 284.14C246.829 284.065 247.343 283.935 247.828 283.748C248.313 283.561 248.743 283.337 249.116 283.076C249.489 282.805 249.783 282.507 249.998 282.18C250.213 281.853 250.32 281.513 250.32 281.158V280.822ZM250.53 280.822H251.524V281.158C251.524 281.513 251.631 281.849 251.846 282.166C252.07 282.483 252.369 282.777 252.742 283.048C253.115 283.319 253.54 283.552 254.016 283.748C254.501 283.935 255.015 284.07 255.556 284.154L255.122 285.05C254.497 284.938 253.909 284.765 253.358 284.532C252.807 284.308 252.317 284.028 251.888 283.692C251.468 283.347 251.137 282.959 250.894 282.53C250.651 282.101 250.53 281.643 250.53 281.158V280.822ZM246.778 280.388H255.066V281.326H246.778V280.388ZM261.365 274.592H262.317V274.774C262.317 275.381 262.172 275.945 261.883 276.468C261.603 276.981 261.202 277.42 260.679 277.784C260.166 278.148 259.559 278.419 258.859 278.596L258.369 277.7C258.966 277.56 259.489 277.345 259.937 277.056C260.385 276.767 260.735 276.426 260.987 276.034C261.239 275.642 261.365 275.222 261.365 274.774V274.592ZM261.631 274.592H262.569V274.774C262.569 275.194 262.695 275.591 262.947 275.964C263.208 276.328 263.563 276.645 264.011 276.916C264.459 277.177 264.972 277.373 265.551 277.504L265.061 278.414C264.37 278.246 263.768 277.989 263.255 277.644C262.742 277.289 262.34 276.869 262.051 276.384C261.771 275.889 261.631 275.353 261.631 274.774V274.592ZM258.635 273.822H265.271V274.746H258.635V273.822ZM261.393 272.45H262.541V274.382H261.393V272.45ZM261.337 279.618H262.499V284.7H261.337V279.618ZM267.133 272.436H268.309V285.092H267.133V272.436ZM258.005 280.388L257.851 279.408C258.644 279.408 259.508 279.403 260.441 279.394C261.384 279.375 262.345 279.333 263.325 279.268C264.305 279.203 265.252 279.109 266.167 278.988L266.237 279.856C265.294 280.015 264.338 280.131 263.367 280.206C262.396 280.281 261.454 280.332 260.539 280.36C259.634 280.379 258.789 280.388 258.005 280.388ZM264.277 281.284H267.441V282.208H264.277V281.284ZM275.854 273.682H276.862V274.214C276.862 274.662 276.773 275.087 276.596 275.488C276.419 275.889 276.171 276.263 275.854 276.608C275.537 276.944 275.168 277.243 274.748 277.504C274.328 277.765 273.875 277.989 273.39 278.176C272.914 278.353 272.419 278.484 271.906 278.568L271.458 277.644C271.906 277.588 272.34 277.485 272.76 277.336C273.189 277.177 273.591 276.991 273.964 276.776C274.337 276.561 274.664 276.319 274.944 276.048C275.233 275.777 275.457 275.488 275.616 275.18C275.775 274.863 275.854 274.541 275.854 274.214V273.682ZM276.148 273.682H277.156V274.214C277.156 274.541 277.235 274.863 277.394 275.18C277.553 275.488 277.772 275.777 278.052 276.048C278.341 276.319 278.673 276.561 279.046 276.776C279.419 276.991 279.816 277.177 280.236 277.336C280.665 277.485 281.104 277.588 281.552 277.644L281.118 278.568C280.605 278.484 280.105 278.353 279.62 278.176C279.135 277.989 278.682 277.765 278.262 277.504C277.842 277.243 277.473 276.944 277.156 276.608C276.839 276.263 276.591 275.889 276.414 275.488C276.237 275.087 276.148 274.662 276.148 274.214V273.682ZM275.91 280.262H277.058V285.078H275.91V280.262ZM270.786 279.632H282.224V280.584H270.786V279.632ZM271.864 273.206H281.132V274.144H271.864V273.206ZM288.649 276.958H291.085V277.924H288.649V276.958ZM286.297 273.612H287.207V276.034C287.207 276.687 287.137 277.331 286.997 277.966C286.866 278.601 286.67 279.198 286.409 279.758C286.157 280.318 285.849 280.822 285.485 281.27C285.121 281.718 284.71 282.082 284.253 282.362L283.525 281.494C283.954 281.233 284.342 280.906 284.687 280.514C285.032 280.122 285.322 279.683 285.555 279.198C285.798 278.703 285.98 278.19 286.101 277.658C286.232 277.117 286.297 276.575 286.297 276.034V273.612ZM286.521 273.612H287.417V275.992C287.417 276.496 287.473 277.005 287.585 277.518C287.706 278.022 287.874 278.507 288.089 278.974C288.313 279.431 288.588 279.851 288.915 280.234C289.242 280.617 289.61 280.934 290.021 281.186L289.363 282.082C288.906 281.802 288.5 281.447 288.145 281.018C287.79 280.579 287.492 280.089 287.249 279.548C287.006 278.997 286.824 278.419 286.703 277.812C286.582 277.205 286.521 276.599 286.521 275.992V273.612ZM293.311 272.422H294.431V285.092H293.311V272.422ZM290.735 272.688H291.827V284.448H290.735V272.688ZM299.358 278.946H300.506V282.726H299.358V278.946ZM304.034 278.946H305.196V282.726H304.034V278.946ZM296.544 282.502H308.024V283.468H296.544V282.502ZM302.256 273.22C303.152 273.22 303.945 273.355 304.636 273.626C305.326 273.897 305.868 274.275 306.26 274.76C306.661 275.245 306.862 275.819 306.862 276.482C306.862 277.135 306.661 277.709 306.26 278.204C305.868 278.689 305.326 279.067 304.636 279.338C303.945 279.599 303.152 279.73 302.256 279.73C301.369 279.73 300.576 279.599 299.876 279.338C299.185 279.067 298.644 278.689 298.252 278.204C297.86 277.709 297.664 277.135 297.664 276.482C297.664 275.819 297.86 275.245 298.252 274.76C298.644 274.275 299.185 273.897 299.876 273.626C300.576 273.355 301.369 273.22 302.256 273.22ZM302.256 274.144C301.584 274.144 300.986 274.242 300.464 274.438C299.941 274.634 299.53 274.909 299.232 275.264C298.933 275.609 298.784 276.015 298.784 276.482C298.784 276.949 298.933 277.359 299.232 277.714C299.53 278.059 299.941 278.33 300.464 278.526C300.986 278.722 301.584 278.82 302.256 278.82C302.937 278.82 303.539 278.722 304.062 278.526C304.584 278.33 304.995 278.059 305.294 277.714C305.592 277.359 305.742 276.949 305.742 276.482C305.742 276.015 305.592 275.609 305.294 275.264C304.995 274.909 304.584 274.634 304.062 274.438C303.539 274.242 302.937 274.144 302.256 274.144Z" fill="white"/>
<path d="M293 311H69C64.5817 311 61 314.582 61 319V403C61 407.418 64.5817 411 69 411H293C297.418 411 301 407.418 301 403V319C301 314.582 297.418 311 293 311Z" stroke="#FBBF24" stroke-width="4" stroke-dasharray="8 6"/>
<path opacity="0.7" d="M161 361H201" stroke="#10B981" stroke-width="3"/>
<path opacity="0.7" d="M181 341V381" stroke="#10B981" stroke-width="3"/>
<path d="M243 621H119C109.059 621 101 629.059 101 639C101 648.941 109.059 657 119 657H243C252.941 657 261 648.941 261 639C261 629.059 252.941 621 243 621Z" fill="black" fill-opacity="0.5"/>
<path d="M123.599 633.818V644H122.366V635.111H122.307L119.821 636.761V635.509L122.366 633.818H123.599ZM127.422 636.364L129.252 639.486L131.082 636.364H132.434L129.968 640.182L132.434 644H131.082L129.252 641.037L127.422 644H126.07L128.496 640.182L126.07 636.364H127.422Z" fill="white"/>
<path d="M181 653C188.732 653 195 646.732 195 639C195 631.268 188.732 625 181 625C173.268 625 167 631.268 167 639C167 646.732 173.268 653 181 653Z" fill="#FBBF24"/>
<path d="M173.397 644V642.449L177.021 639.093C177.329 638.795 177.588 638.526 177.796 638.288C178.009 638.049 178.169 637.815 178.279 637.587C178.388 637.355 178.443 637.104 178.443 636.836C178.443 636.538 178.375 636.281 178.239 636.065C178.103 635.847 177.917 635.679 177.682 635.563C177.447 635.444 177.18 635.384 176.882 635.384C176.57 635.384 176.298 635.447 176.066 635.573C175.834 635.699 175.655 635.88 175.529 636.115C175.403 636.35 175.34 636.63 175.34 636.955H173.297C173.297 636.289 173.448 635.711 173.75 635.22C174.051 634.73 174.474 634.35 175.017 634.082C175.561 633.813 176.187 633.679 176.897 633.679C177.626 633.679 178.26 633.808 178.801 634.067C179.344 634.322 179.767 634.677 180.068 635.131C180.37 635.585 180.521 636.105 180.521 636.692C180.521 637.076 180.445 637.456 180.292 637.83C180.143 638.205 179.876 638.621 179.492 639.078C179.107 639.532 178.565 640.077 177.866 640.714L176.38 642.17V642.24H180.655V644H173.397ZM184.005 636.364L185.407 639.033L186.843 636.364H189.016L186.804 640.182L189.076 644H186.913L185.407 641.36L183.925 644H181.738L184.005 640.182L181.817 636.364H184.005Z" fill="#111827"/>
<path d="M232.257 644.139C231.601 644.139 231.016 644.027 230.502 643.801C229.992 643.576 229.586 643.263 229.284 642.862C228.986 642.457 228.823 641.988 228.797 641.455H230.05C230.076 641.783 230.189 642.066 230.388 642.305C230.587 642.54 230.847 642.722 231.168 642.852C231.49 642.981 231.846 643.045 232.237 643.045C232.675 643.045 233.062 642.969 233.4 642.817C233.739 642.664 234.004 642.452 234.196 642.18C234.388 641.909 234.484 641.594 234.484 641.236C234.484 640.861 234.391 640.531 234.206 640.246C234.02 639.958 233.748 639.733 233.391 639.57C233.033 639.408 232.595 639.327 232.078 639.327H231.263V638.233H232.078C232.482 638.233 232.837 638.16 233.142 638.014C233.45 637.868 233.69 637.663 233.863 637.398C234.039 637.133 234.126 636.821 234.126 636.463C234.126 636.118 234.05 635.818 233.898 635.563C233.745 635.308 233.53 635.109 233.251 634.967C232.976 634.824 232.651 634.753 232.277 634.753C231.926 634.753 231.594 634.817 231.283 634.947C230.974 635.073 230.722 635.257 230.527 635.499C230.331 635.737 230.225 636.026 230.209 636.364H229.016C229.035 635.83 229.196 635.363 229.498 634.962C229.799 634.557 230.194 634.242 230.681 634.017C231.172 633.792 231.71 633.679 232.297 633.679C232.927 633.679 233.467 633.807 233.918 634.062C234.368 634.314 234.715 634.647 234.957 635.061C235.199 635.475 235.32 635.923 235.32 636.403C235.32 636.977 235.169 637.466 234.867 637.87C234.569 638.274 234.163 638.554 233.649 638.71V638.79C234.292 638.896 234.794 639.169 235.155 639.61C235.517 640.048 235.697 640.589 235.697 641.236C235.697 641.789 235.547 642.286 235.245 642.727C234.947 643.165 234.539 643.509 234.022 643.761C233.505 644.013 232.917 644.139 232.257 644.139ZM238.626 636.364L240.455 639.486L242.285 636.364H243.637L241.171 640.182L243.637 644H242.285L240.455 641.037L238.626 644H237.273L239.699 640.182L237.273 636.364H238.626Z" fill="white"/>
<path d="M69 681H39C34.5817 681 31 684.582 31 689V719C31 723.418 34.5817 727 39 727H69C73.4183 727 77 723.418 77 719V689C77 684.582 73.4183 681 69 681Z" fill="#4B5563" stroke="white" stroke-width="2"/>
<path d="M45 709.26H63V691.26H45V709.26Z" fill="black"/>
<path d="M181 744C203.091 744 221 726.091 221 704C221 681.909 203.091 664 181 664C158.909 664 141 681.909 141 704C141 726.091 158.909 744 181 744Z" fill="white"/>
<path d="M181 738C199.778 738 215 722.778 215 704C215 685.222 199.778 670 181 670C162.222 670 147 685.222 147 704C147 722.778 162.222 738 181 738Z" stroke="#D1D5DB" stroke-width="3"/>
</svg>
