<svg width="362" height="782" viewBox="0 0 362 782" fill="none" xmlns="http://www.w3.org/2000/svg">
<path d="M361 1H1V781H361V1Z" fill="white" stroke="#D1D5DB" stroke-width="2"/>
<path d="M38.64 33.26H41.32V47.36H38.64V33.26ZM36.24 37.86H39.64V39.98H36.24V37.86ZM36.24 41.82H39.64V43.94H36.24V41.82ZM25.86 35.2H36.04V37.28H25.86V35.2ZM31.06 37.94C31.9133 37.94 32.6667 38.0933 33.32 38.4C33.9733 38.7067 34.4867 39.1333 34.86 39.68C35.2333 40.2267 35.42 40.86 35.42 41.58C35.42 42.2867 35.2333 42.9133 34.86 43.46C34.4867 44.0067 33.9733 44.44 33.32 44.76C32.6667 45.0667 31.9133 45.22 31.06 45.22C30.2333 45.22 29.4867 45.0667 28.82 44.76C28.1667 44.44 27.6533 44.0067 27.28 43.46C26.9067 42.9133 26.72 42.2867 26.72 41.58C26.72 40.86 26.9067 40.2267 27.28 39.68C27.6533 39.1333 28.1667 38.7067 28.82 38.4C29.4867 38.0933 30.2333 37.94 31.06 37.94ZM31.08 39.98C30.5333 39.98 30.0867 40.12 29.74 40.4C29.4067 40.6667 29.24 41.06 29.24 41.58C29.24 42.0867 29.4067 42.48 29.74 42.76C30.0867 43.04 30.5333 43.18 31.08 43.18C31.6133 43.18 32.0533 43.04 32.4 42.76C32.7467 42.48 32.92 42.0867 32.92 41.58C32.92 41.06 32.7467 40.6667 32.4 40.4C32.0533 40.12 31.6133 39.98 31.08 39.98ZM29.74 33.2H32.42V36.48H29.74V33.2ZM29.06 49.32H41.72V51.46H29.06V49.32ZM29.06 46.2H31.72V50.32H29.06V46.2ZM48.3384 35.32H50.5184V36.48C50.5184 37.6533 50.3251 38.7667 49.9384 39.82C49.5651 40.8733 48.9918 41.8 48.2184 42.6C47.4451 43.3867 46.4651 43.9733 45.2784 44.36L43.9584 42.26C44.9718 41.9267 45.7984 41.46 46.4384 40.86C47.0918 40.2467 47.5718 39.56 47.8784 38.8C48.1851 38.0267 48.3384 37.2533 48.3384 36.48V35.32ZM48.8784 35.32H51.0184V36.48C51.0184 37.2 51.1651 37.9 51.4584 38.58C51.7518 39.2467 52.2051 39.8467 52.8184 40.38C53.4451 40.9133 54.2584 41.3333 55.2584 41.64L53.9784 43.72C52.8051 43.3733 51.8384 42.84 51.0784 42.12C50.3318 41.3867 49.7784 40.54 49.4184 39.58C49.0584 38.6067 48.8784 37.5733 48.8784 36.48V35.32ZM44.6384 34.48H54.6584V36.6H44.6384V34.48ZM56.1184 33.26H58.7784V44.24H56.1184V33.26ZM58.0584 37.5H61.2384V39.68H58.0584V37.5ZM52.7384 44.56C54.0318 44.56 55.1451 44.7067 56.0784 45C57.0118 45.28 57.7318 45.6867 58.2384 46.22C58.7451 46.7533 58.9984 47.4 58.9984 48.16C58.9984 48.92 58.7451 49.5667 58.2384 50.1C57.7318 50.6467 57.0118 51.06 56.0784 51.34C55.1451 51.6333 54.0318 51.78 52.7384 51.78C51.4584 51.78 50.3451 51.6333 49.3984 51.34C48.4651 51.06 47.7384 50.6467 47.2184 50.1C46.7118 49.5667 46.4584 48.92 46.4584 48.16C46.4584 47.4 46.7118 46.7533 47.2184 46.22C47.7384 45.6867 48.4651 45.28 49.3984 45C50.3451 44.7067 51.4584 44.56 52.7384 44.56ZM52.7384 46.64C51.9518 46.64 51.2918 46.6933 50.7584 46.8C50.2251 46.9067 49.8184 47.0733 49.5384 47.3C49.2584 47.5267 49.1184 47.8133 49.1184 48.16C49.1184 48.52 49.2584 48.8133 49.5384 49.04C49.8184 49.2667 50.2251 49.44 50.7584 49.56C51.2918 49.6667 51.9518 49.72 52.7384 49.72C53.5251 49.72 54.1851 49.6667 54.7184 49.56C55.2651 49.44 55.6718 49.2667 55.9384 49.04C56.2184 48.8133 56.3584 48.52 56.3584 48.16C56.3584 47.8133 56.2184 47.5267 55.9384 47.3C55.6718 47.0733 55.2651 46.9067 54.7184 46.8C54.1851 46.6933 53.5251 46.64 52.7384 46.64ZM80.6258 33.24H83.1458V51.76H80.6258V33.24ZM73.5858 40H77.8858V42.14H73.5858V40ZM76.7858 33.58H79.2658V50.96H76.7858V33.58ZM67.7658 45.48H69.0658C69.9324 45.48 70.7191 45.4667 71.4258 45.44C72.1458 45.4133 72.8258 45.3667 73.4658 45.3C74.1191 45.2333 74.7791 45.1333 75.4458 45L75.6658 47.16C74.9724 47.3067 74.2924 47.4133 73.6258 47.48C72.9591 47.5467 72.2524 47.5933 71.5058 47.62C70.7724 47.6467 69.9591 47.66 69.0658 47.66H67.7658V45.48ZM67.7658 35.34H74.8458V37.44H70.3858V46.4H67.7658V35.34ZM98.3442 33.22H101.004V51.8H98.3442V33.22ZM91.0242 34.52C91.9709 34.52 92.8109 34.7933 93.5442 35.34C94.2776 35.8733 94.8509 36.64 95.2642 37.64C95.6909 38.6267 95.9042 39.7933 95.9042 41.14C95.9042 42.5 95.6909 43.68 95.2642 44.68C94.8509 45.6667 94.2776 46.4333 93.5442 46.98C92.8109 47.5133 91.9709 47.78 91.0242 47.78C90.0909 47.78 89.2576 47.5133 88.5242 46.98C87.7909 46.4333 87.2109 45.6667 86.7842 44.68C86.3709 43.68 86.1642 42.5 86.1642 41.14C86.1642 39.7933 86.3709 38.6267 86.7842 37.64C87.2109 36.64 87.7909 35.8733 88.5242 35.34C89.2576 34.7933 90.0909 34.52 91.0242 34.52ZM91.0242 36.94C90.5709 36.94 90.1709 37.1 89.8242 37.42C89.4776 37.74 89.2042 38.2133 89.0042 38.84C88.8176 39.4533 88.7242 40.22 88.7242 41.14C88.7242 42.0467 88.8176 42.82 89.0042 43.46C89.2042 44.0867 89.4776 44.56 89.8242 44.88C90.1709 45.2 90.5709 45.36 91.0242 45.36C91.4909 45.36 91.8976 45.2 92.2442 44.88C92.5909 44.56 92.8576 44.0867 93.0442 43.46C93.2442 42.82 93.3442 42.0467 93.3442 41.14C93.3442 40.22 93.2442 39.4533 93.0442 38.84C92.8576 38.2133 92.5909 37.74 92.2442 37.42C91.8976 37.1 91.4909 36.94 91.0242 36.94ZM116.923 33.22H119.583V51.8H116.923V33.22ZM113.743 39.76H117.243V41.92H113.743V39.76ZM104.863 45.48H106.363C107.389 45.48 108.336 45.4667 109.203 45.44C110.083 45.4133 110.936 45.3667 111.763 45.3C112.589 45.2333 113.436 45.14 114.303 45.02L114.563 47.12C113.669 47.2667 112.789 47.3733 111.923 47.44C111.069 47.5067 110.189 47.5533 109.283 47.58C108.376 47.6067 107.403 47.62 106.363 47.62H104.863V45.48ZM104.863 34.78H113.443V36.94H107.523V46.14H104.863V34.78ZM106.903 39.94H112.823V42.02H106.903V39.94ZM134.05 33.78H136.37V34.66C136.37 35.3667 136.257 36.0533 136.03 36.72C135.817 37.3733 135.497 37.9867 135.07 38.56C134.643 39.1333 134.123 39.6467 133.51 40.1C132.897 40.5533 132.183 40.94 131.37 41.26C130.57 41.5667 129.69 41.8 128.73 41.96L127.69 39.82C128.543 39.7133 129.303 39.5333 129.97 39.28C130.65 39.0267 131.243 38.7267 131.75 38.38C132.27 38.0333 132.697 37.6533 133.03 37.24C133.363 36.8267 133.617 36.4 133.79 35.96C133.963 35.52 134.05 35.0867 134.05 34.66V33.78ZM134.55 33.78H136.87V34.66C136.87 35.0867 136.957 35.52 137.13 35.96C137.303 36.4 137.557 36.8267 137.89 37.24C138.223 37.6533 138.643 38.0333 139.15 38.38C139.67 38.7267 140.263 39.0267 140.93 39.28C141.61 39.5333 142.377 39.7133 143.23 39.82L142.19 41.96C141.217 41.8 140.33 41.5667 139.53 41.26C138.73 40.94 138.023 40.5533 137.41 40.1C136.797 39.6333 136.277 39.1133 135.85 38.54C135.423 37.9667 135.097 37.3533 134.87 36.7C134.657 36.0467 134.55 35.3667 134.55 34.66V33.78ZM134.05 44.98H136.71V51.78H134.05V44.98ZM127.07 43.3H143.83V45.46H127.07V43.3ZM149.948 34.84H152.128V35.98C152.128 37.0867 151.935 38.14 151.548 39.14C151.175 40.14 150.595 41.0067 149.808 41.74C149.035 42.4733 148.048 43.0267 146.848 43.4L145.528 41.32C146.302 41.0933 146.962 40.7933 147.508 40.42C148.068 40.0333 148.528 39.6067 148.888 39.14C149.248 38.66 149.515 38.1533 149.688 37.62C149.862 37.0733 149.948 36.5267 149.948 35.98V34.84ZM150.508 34.84H152.668V35.98C152.668 36.5 152.755 37.0133 152.928 37.52C153.102 38.0133 153.362 38.4867 153.708 38.94C154.068 39.3933 154.522 39.8 155.068 40.16C155.615 40.5067 156.268 40.7933 157.028 41.02L155.708 43.08C154.548 42.7333 153.582 42.2133 152.808 41.52C152.035 40.8133 151.455 39.98 151.068 39.02C150.695 38.06 150.508 37.0467 150.508 35.98V34.84ZM146.248 34.24H156.328V36.34H146.248V34.24ZM158.188 33.26H160.848V43.3H158.188V33.26ZM148.548 44.1H151.168V45.78H158.208V44.1H160.848V51.58H148.548V44.1ZM151.168 47.82V49.44H158.208V47.82H151.168ZM176.627 33.24H179.287V51.76H176.627V33.24ZM171.167 35.16H173.787C173.787 36.5733 173.647 37.9267 173.367 39.22C173.1 40.5 172.647 41.7067 172.007 42.84C171.38 43.9733 170.514 45.0267 169.407 46C168.314 46.96 166.947 47.84 165.307 48.64L163.907 46.54C165.694 45.6733 167.114 44.72 168.167 43.68C169.234 42.6267 170 41.44 170.467 40.12C170.934 38.7867 171.167 37.2933 171.167 35.64V35.16ZM164.907 35.16H172.407V37.28H164.907V35.16Z" fill="#111827"/>
<path d="M295 33H273C266.373 33 261 38.3726 261 45C261 51.6274 266.373 57 273 57H295C301.627 57 307 51.6274 307 45C307 38.3726 301.627 33 295 33Z" fill="#DCFCE7"/>
<path d="M271 50.84H283V38.84H271V50.84ZM294.556 45.6364C294.556 46.5881 294.375 47.3977 294.015 48.0653C293.657 48.733 293.168 49.2429 292.549 49.5952C291.932 49.9446 291.239 50.1193 290.469 50.1193C289.694 50.1193 288.998 49.9432 288.381 49.5909C287.765 49.2386 287.277 48.7287 286.919 48.0611C286.561 47.3935 286.382 46.5852 286.382 45.6364C286.382 44.6847 286.561 43.875 286.919 43.2074C287.277 42.5398 287.765 42.0312 288.381 41.6818C288.998 41.3295 289.694 41.1534 290.469 41.1534C291.239 41.1534 291.932 41.3295 292.549 41.6818C293.168 42.0312 293.657 42.5398 294.015 43.2074C294.375 43.875 294.556 44.6847 294.556 45.6364ZM292.685 45.6364C292.685 45.0199 292.593 44.5 292.408 44.0767C292.226 43.6534 291.969 43.3324 291.637 43.1136C291.304 42.8949 290.915 42.7855 290.469 42.7855C290.023 42.7855 289.634 42.8949 289.301 43.1136C288.969 43.3324 288.711 43.6534 288.526 44.0767C288.344 44.5 288.253 45.0199 288.253 45.6364C288.253 46.2528 288.344 46.7727 288.526 47.196C288.711 47.6193 288.969 47.9403 289.301 48.1591C289.634 48.3778 290.023 48.4872 290.469 48.4872C290.915 48.4872 291.304 48.3778 291.637 48.1591C291.969 47.9403 292.226 47.6193 292.408 47.196C292.593 46.7727 292.685 46.2528 292.685 45.6364ZM303.222 41.2727V50H301.629L297.832 44.5071H297.768V50H295.923V41.2727H297.542L301.309 46.7614H301.386V41.2727H303.222Z" fill="#166534"/>
<path d="M316 51.26H334V33.26H316V51.26Z" fill="black"/>
<path d="M1 71H361" stroke="#F3F4F6" stroke-width="2"/>
<path d="M25.656 107.984H39.08V109.712H25.656V107.984ZM31.304 104.704H33.416V108.464H31.304V104.704ZM31.224 98.528H33.032V99.072C33.032 99.6907 32.9413 100.283 32.76 100.848C32.5893 101.413 32.3333 101.941 31.992 102.432C31.6613 102.923 31.2507 103.36 30.76 103.744C30.2693 104.128 29.7093 104.459 29.08 104.736C28.4507 105.013 27.7627 105.221 27.016 105.36L26.168 103.664C26.8293 103.557 27.4267 103.397 27.96 103.184C28.504 102.971 28.9787 102.715 29.384 102.416C29.7893 102.117 30.1253 101.787 30.392 101.424C30.6693 101.061 30.8773 100.683 31.016 100.288C31.1547 99.8933 31.224 99.488 31.224 99.072V98.528ZM31.672 98.528H33.464V99.072C33.464 99.488 33.5333 99.8933 33.672 100.288C33.8107 100.672 34.0187 101.045 34.296 101.408C34.5733 101.76 34.9147 102.085 35.32 102.384C35.736 102.672 36.216 102.923 36.76 103.136C37.3147 103.349 37.928 103.504 38.6 103.6L37.768 105.28C37 105.141 36.296 104.939 35.656 104.672C35.0267 104.405 34.4613 104.08 33.96 103.696C33.4693 103.312 33.0533 102.885 32.712 102.416C32.3707 101.936 32.1093 101.413 31.928 100.848C31.7573 100.283 31.672 99.6907 31.672 99.072V98.528ZM26.76 97.728H37.928V99.424H26.76V97.728ZM43.7028 97.744H45.4148V99.888C45.4148 100.805 45.3348 101.701 45.1748 102.576C45.0148 103.44 44.7641 104.245 44.4227 104.992C44.0921 105.739 43.6708 106.405 43.1588 106.992C42.6468 107.568 42.0441 108.027 41.3508 108.368L40.0708 106.656C40.7001 106.368 41.2388 105.984 41.6868 105.504C42.1454 105.024 42.5241 104.48 42.8228 103.872C43.1214 103.264 43.3401 102.624 43.4788 101.952C43.6281 101.269 43.7028 100.581 43.7028 99.888V97.744ZM44.1188 97.744H45.8308V99.888C45.8308 100.56 45.8948 101.221 46.0228 101.872C46.1614 102.523 46.3694 103.141 46.6468 103.728C46.9348 104.304 47.2921 104.821 47.7188 105.28C48.1454 105.739 48.6574 106.117 49.2548 106.416L47.9588 108.112C47.2974 107.771 46.7214 107.323 46.2308 106.768C45.7508 106.203 45.3561 105.557 45.0468 104.832C44.7374 104.096 44.5028 103.312 44.3428 102.48C44.1934 101.637 44.1188 100.773 44.1188 99.888V97.744ZM49.8308 96.608H51.9748V111.424H49.8308V96.608ZM51.5108 102.304H54.1188V104.064H51.5108V102.304ZM64.6135 96.592H66.7415V104.592H64.6135V96.592ZM65.9095 99.744H68.7095V101.472H65.9095V99.744ZM56.9655 105.184H66.7415V108.944H59.0935V110.272H56.9815V107.488H64.6455V106.72H56.9655V105.184ZM56.9815 109.76H67.1735V111.328H56.9815V109.76ZM55.0935 97.696H63.7975V99.28H55.0935V97.696ZM59.4455 99.632C60.5548 99.632 61.4402 99.8507 62.1015 100.288C62.7628 100.725 63.0935 101.317 63.0935 102.064C63.0935 102.811 62.7628 103.403 62.1015 103.84C61.4402 104.267 60.5548 104.48 59.4455 104.48C58.3468 104.48 57.4615 104.267 56.7895 103.84C56.1282 103.403 55.7975 102.811 55.7975 102.064C55.7975 101.317 56.1282 100.725 56.7895 100.288C57.4615 99.8507 58.3468 99.632 59.4455 99.632ZM59.4455 101.136C58.9548 101.136 58.5655 101.216 58.2775 101.376C57.9895 101.525 57.8455 101.755 57.8455 102.064C57.8455 102.373 57.9895 102.603 58.2775 102.752C58.5655 102.901 58.9548 102.976 59.4455 102.976C59.9468 102.976 60.3362 102.901 60.6135 102.752C60.9015 102.603 61.0455 102.373 61.0455 102.064C61.0455 101.755 60.9015 101.525 60.6135 101.376C60.3362 101.216 59.9468 101.136 59.4455 101.136ZM58.3895 96.496H60.5015V98.816H58.3895V96.496ZM83.0354 96.608H85.1634V106H83.0354V96.608ZM84.5874 100.384H87.1314V102.112H84.5874V100.384ZM80.3634 106.144C81.3767 106.144 82.2567 106.251 83.0034 106.464C83.75 106.677 84.3207 106.981 84.7154 107.376C85.1207 107.771 85.3234 108.24 85.3234 108.784C85.3234 109.339 85.1207 109.813 84.7154 110.208C84.3207 110.603 83.75 110.901 83.0034 111.104C82.2567 111.317 81.3767 111.424 80.3634 111.424C79.3394 111.424 78.454 111.317 77.7074 111.104C76.9607 110.901 76.3847 110.603 75.9794 110.208C75.574 109.813 75.3714 109.339 75.3714 108.784C75.3714 108.24 75.574 107.771 75.9794 107.376C76.3847 106.981 76.9607 106.677 77.7074 106.464C78.454 106.251 79.3394 106.144 80.3634 106.144ZM80.3634 107.76C79.4247 107.76 78.71 107.845 78.2194 108.016C77.7394 108.176 77.4994 108.432 77.4994 108.784C77.4994 109.147 77.7394 109.413 78.2194 109.584C78.71 109.755 79.4247 109.84 80.3634 109.84C81.2914 109.84 81.9954 109.755 82.4754 109.584C82.966 109.413 83.2114 109.147 83.2114 108.784C83.2114 108.432 82.966 108.176 82.4754 108.016C81.9954 107.845 81.2914 107.76 80.3634 107.76ZM73.5154 98H82.2194V99.664H73.5154V98ZM77.8674 100.16C78.5927 100.16 79.2274 100.272 79.7714 100.496C80.3154 100.709 80.742 101.019 81.0514 101.424C81.3607 101.819 81.5154 102.283 81.5154 102.816C81.5154 103.339 81.3607 103.803 81.0514 104.208C80.742 104.603 80.3154 104.912 79.7714 105.136C79.2274 105.349 78.5927 105.456 77.8674 105.456C77.1527 105.456 76.518 105.349 75.9634 105.136C75.4194 104.912 74.9927 104.603 74.6834 104.208C74.374 103.803 74.2194 103.339 74.2194 102.816C74.2194 102.283 74.374 101.819 74.6834 101.424C74.9927 101.019 75.4194 100.709 75.9634 100.496C76.518 100.272 77.1527 100.16 77.8674 100.16ZM77.8674 101.696C77.398 101.696 77.014 101.792 76.7154 101.984C76.4167 102.165 76.2674 102.443 76.2674 102.816C76.2674 103.179 76.4167 103.451 76.7154 103.632C77.014 103.813 77.398 103.904 77.8674 103.904C78.3474 103.904 78.7314 103.813 79.0194 103.632C79.318 103.451 79.4674 103.179 79.4674 102.816C79.4674 102.443 79.318 102.165 79.0194 101.984C78.7314 101.792 78.3474 101.696 77.8674 101.696ZM76.8114 96.496H78.9234V98.896H76.8114V96.496ZM89.8661 97.184H99.9301V102.416H89.8661V97.184ZM97.8341 98.848H91.9621V100.752H97.8341V98.848ZM88.2181 103.824H101.626V105.504H88.2181V103.824ZM93.8501 102.048H95.9621V104.288H93.8501V102.048ZM89.7061 106.576H100.01V111.424H97.8821V108.24H89.7061V106.576ZM109.657 96.8C111.342 96.8 112.654 97.0187 113.593 97.456C114.542 97.8933 115.017 98.5227 115.017 99.344C115.017 100.155 114.542 100.779 113.593 101.216C112.654 101.653 111.342 101.872 109.657 101.872C107.961 101.872 106.638 101.653 105.689 101.216C104.75 100.779 104.281 100.155 104.281 99.344C104.281 98.5227 104.75 97.8933 105.689 97.456C106.638 97.0187 107.961 96.8 109.657 96.8ZM109.641 98.368C108.937 98.368 108.35 98.4053 107.881 98.48C107.412 98.544 107.06 98.6507 106.825 98.8C106.601 98.9387 106.489 99.12 106.489 99.344C106.489 99.568 106.601 99.7547 106.825 99.904C107.06 100.043 107.412 100.144 107.881 100.208C108.35 100.272 108.937 100.304 109.641 100.304C110.356 100.304 110.948 100.272 111.417 100.208C111.886 100.144 112.233 100.043 112.457 99.904C112.681 99.7547 112.793 99.568 112.793 99.344C112.793 99.12 112.681 98.9387 112.457 98.8C112.233 98.6507 111.886 98.544 111.417 98.48C110.948 98.4053 110.356 98.368 109.641 98.368ZM102.937 102.56H116.345V104.24H102.937V102.56ZM104.473 105.072H114.713V108.864H106.601V110.176H104.489V107.392H112.617V106.64H104.473V105.072ZM104.489 109.712H115.113V111.328H104.489V109.712ZM128.927 99.744H132.367V101.472H128.927V99.744ZM124.767 97.504H126.479V99.104C126.479 100.107 126.335 101.051 126.047 101.936C125.759 102.821 125.311 103.595 124.703 104.256C124.105 104.907 123.337 105.403 122.399 105.744L121.279 104.08C121.897 103.867 122.425 103.589 122.863 103.248C123.3 102.907 123.657 102.517 123.935 102.08C124.212 101.632 124.42 101.157 124.559 100.656C124.697 100.155 124.767 99.6373 124.767 99.104V97.504ZM125.215 97.504H126.911V99.12C126.911 99.6 126.975 100.069 127.103 100.528C127.231 100.987 127.428 101.424 127.695 101.84C127.961 102.256 128.303 102.629 128.719 102.96C129.145 103.28 129.647 103.541 130.223 103.744L129.103 105.376C128.217 105.045 127.487 104.571 126.911 103.952C126.335 103.333 125.908 102.608 125.631 101.776C125.353 100.944 125.215 100.059 125.215 99.12V97.504ZM131.631 96.608H133.775V107.536H131.631V96.608ZM123.967 109.456H134.095V111.168H123.967V109.456ZM123.967 106.448H126.095V110.416H123.967V106.448ZM136.59 103.36H137.614C138.328 103.36 138.968 103.355 139.534 103.344C140.11 103.323 140.654 103.291 141.166 103.248C141.678 103.195 142.206 103.125 142.75 103.04L142.942 104.736C142.376 104.832 141.827 104.907 141.294 104.96C140.76 105.013 140.195 105.045 139.598 105.056C139.011 105.067 138.35 105.072 137.614 105.072H136.59V103.36ZM136.59 97.584H142.414V99.28H138.638V104.304H136.59V97.584ZM138.03 100.496H142.27V102.096H138.03V100.496ZM146.686 96.592H148.718V105.648H146.686V96.592ZM144.926 100.224H147.278V101.936H144.926V100.224ZM143.534 96.864H145.518V105.552H143.534V96.864ZM138.526 106.272H148.718V111.424H146.59V107.984H138.526V106.272ZM160.3 96.608H162.428V111.424H160.3V96.608ZM161.948 102.384H164.556V104.144H161.948V102.384ZM150.732 98.784H159.372V100.48H150.732V98.784ZM155.084 101.328C155.799 101.328 156.439 101.483 157.004 101.792C157.57 102.091 158.012 102.501 158.332 103.024C158.663 103.547 158.828 104.155 158.828 104.848C158.828 105.541 158.663 106.155 158.332 106.688C158.012 107.211 157.57 107.627 157.004 107.936C156.45 108.235 155.81 108.384 155.084 108.384C154.37 108.384 153.724 108.235 153.148 107.936C152.583 107.627 152.135 107.211 151.804 106.688C151.484 106.155 151.324 105.541 151.324 104.848C151.324 104.155 151.484 103.547 151.804 103.024C152.135 102.501 152.583 102.091 153.148 101.792C153.724 101.483 154.37 101.328 155.084 101.328ZM155.084 103.056C154.743 103.056 154.444 103.125 154.188 103.264C153.932 103.403 153.73 103.605 153.58 103.872C153.431 104.139 153.356 104.464 153.356 104.848C153.356 105.221 153.431 105.547 153.58 105.824C153.73 106.091 153.932 106.299 154.188 106.448C154.444 106.587 154.743 106.656 155.084 106.656C155.415 106.656 155.708 106.587 155.964 106.448C156.22 106.299 156.423 106.091 156.572 105.824C156.722 105.547 156.796 105.221 156.796 104.848C156.796 104.464 156.722 104.139 156.572 103.872C156.423 103.605 156.22 103.403 155.964 103.264C155.708 103.125 155.415 103.056 155.084 103.056ZM153.996 96.848H156.14V99.44H153.996V96.848ZM171.355 101.584H173.819V103.312H171.355V101.584ZM168.203 97.888H169.819V100.368C169.819 101.211 169.76 102.037 169.643 102.848C169.526 103.659 169.334 104.421 169.067 105.136C168.811 105.851 168.47 106.496 168.043 107.072C167.627 107.637 167.12 108.101 166.523 108.464L165.243 106.864C165.798 106.533 166.262 106.128 166.635 105.648C167.008 105.168 167.312 104.64 167.547 104.064C167.782 103.488 167.947 102.891 168.043 102.272C168.15 101.643 168.203 101.008 168.203 100.368V97.888ZM168.667 97.888H170.251V100.272C170.251 100.88 170.294 101.483 170.379 102.08C170.475 102.677 170.624 103.248 170.827 103.792C171.03 104.336 171.296 104.837 171.627 105.296C171.968 105.755 172.395 106.149 172.907 106.48L171.739 108.144C171.163 107.781 170.672 107.323 170.267 106.768C169.872 106.203 169.558 105.568 169.323 104.864C169.088 104.16 168.918 103.419 168.811 102.64C168.715 101.861 168.667 101.072 168.667 100.272V97.888ZM176.219 96.592H178.251V111.408H176.219V96.592ZM173.211 96.832H175.195V110.752H173.211V96.832ZM183.194 104.128H185.322V108.272H183.194V104.128ZM188.57 104.128H190.698V108.272H188.57V104.128ZM180.25 107.968H193.674V109.696H180.25V107.968ZM186.938 97.328C188.004 97.328 188.954 97.4933 189.786 97.824C190.628 98.1547 191.284 98.6187 191.754 99.216C192.234 99.8027 192.474 100.501 192.474 101.312C192.474 102.112 192.234 102.811 191.754 103.408C191.284 103.995 190.628 104.453 189.786 104.784C188.954 105.115 188.004 105.28 186.938 105.28C185.882 105.28 184.932 105.115 184.09 104.784C183.258 104.453 182.602 103.995 182.122 103.408C181.642 102.811 181.402 102.112 181.402 101.312C181.402 100.501 181.642 99.8027 182.122 99.216C182.602 98.6187 183.258 98.1547 184.09 97.824C184.932 97.4933 185.882 97.328 186.938 97.328ZM186.938 98.976C186.255 98.976 185.652 99.072 185.13 99.264C184.618 99.4453 184.218 99.7067 183.93 100.048C183.642 100.389 183.498 100.811 183.498 101.312C183.498 101.792 183.642 102.208 183.93 102.56C184.218 102.901 184.618 103.168 185.13 103.36C185.652 103.541 186.255 103.632 186.938 103.632C187.631 103.632 188.234 103.541 188.746 103.36C189.268 103.168 189.668 102.901 189.946 102.56C190.234 102.208 190.378 101.792 190.378 101.312C190.378 100.811 190.234 100.389 189.946 100.048C189.668 99.7067 189.268 99.4453 188.746 99.264C188.234 99.072 187.631 98.976 186.938 98.976Z" fill="#374151"/>
<path d="M337 131H25V261H337V131Z" fill="#EFF6FF" stroke="#3B82F6" stroke-width="2"/>
<path d="M45 171.24H77V139.24H45V171.24Z" fill="black"/>
<path d="M46.48 202.4H48.02C49.2333 202.4 50.3 202.393 51.22 202.38C52.1533 202.353 53.0133 202.307 53.8 202.24C54.5867 202.16 55.38 202.053 56.18 201.92L56.46 203.96C55.6333 204.12 54.8067 204.24 53.98 204.32C53.1667 204.387 52.28 204.433 51.32 204.46C50.3733 204.487 49.2733 204.5 48.02 204.5H46.48V202.4ZM46.48 194.66H55.18V196.78H49.14V203.12H46.48V194.66ZM48.32 198.5H54.8V200.58H48.32V198.5ZM57.72 193.26H60.38V206.98H57.72V193.26ZM59.64 198.72H62.84V200.9H59.64V198.72ZM48.44 209.32H61.04V211.46H48.44V209.32ZM48.44 205.72H51.12V210.66H48.44V205.72ZM68.3584 194.38H70.5584V196.38C70.5584 197.607 70.3651 198.76 69.9784 199.84C69.6051 200.907 69.0318 201.84 68.2584 202.64C67.4984 203.44 66.5251 204.04 65.3384 204.44L63.9184 202.38C64.9718 202.033 65.8251 201.553 66.4784 200.94C67.1318 200.313 67.6051 199.607 67.8984 198.82C68.2051 198.02 68.3584 197.207 68.3584 196.38V194.38ZM68.8984 194.38H71.0584V196.4C71.0584 196.987 71.1384 197.567 71.2984 198.14C71.4584 198.7 71.7118 199.233 72.0584 199.74C72.4051 200.233 72.8451 200.68 73.3784 201.08C73.9118 201.467 74.5518 201.78 75.2984 202.02L73.9384 204.1C72.7784 203.713 71.8251 203.14 71.0784 202.38C70.3451 201.607 69.7984 200.707 69.4384 199.68C69.0784 198.653 68.8984 197.56 68.8984 196.4V194.38ZM76.1184 193.26H78.7784V206.8H76.1184V193.26ZM78.0384 198.62H81.2384V200.8H78.0384V198.62ZM66.8584 209.32H79.4384V211.46H66.8584V209.32ZM66.8584 205.5H69.5384V210.46H66.8584V205.5ZM86.8969 204.22H89.5569V207.2H86.8969V204.22ZM94.6769 193.26H97.3369V211.78H94.6769V193.26ZM96.4169 200.78H99.6769V202.96H96.4169V200.78ZM82.7369 208.7L82.4169 206.54C83.4835 206.54 84.6502 206.533 85.9169 206.52C87.1969 206.507 88.5035 206.46 89.8369 206.38C91.1835 206.3 92.4835 206.18 93.7369 206.02L93.9369 207.94C92.6435 208.18 91.3302 208.36 89.9969 208.48C88.6635 208.587 87.3769 208.653 86.1369 208.68C84.9102 208.693 83.7769 208.7 82.7369 208.7ZM82.7569 195.28H93.6569V197.36H82.7569V195.28ZM88.2169 198.1C89.1102 198.1 89.8969 198.247 90.5769 198.54C91.2569 198.833 91.7902 199.24 92.1769 199.76C92.5635 200.28 92.7569 200.887 92.7569 201.58C92.7569 202.26 92.5635 202.867 92.1769 203.4C91.7902 203.92 91.2569 204.327 90.5769 204.62C89.8969 204.913 89.1102 205.06 88.2169 205.06C87.3369 205.06 86.5569 204.913 85.8769 204.62C85.1969 204.327 84.6635 203.92 84.2769 203.4C83.8902 202.867 83.6969 202.26 83.6969 201.58C83.6969 200.887 83.8902 200.28 84.2769 199.76C84.6635 199.24 85.1969 198.833 85.8769 198.54C86.5569 198.247 87.3369 198.1 88.2169 198.1ZM88.2169 200.1C87.6169 200.1 87.1302 200.233 86.7569 200.5C86.3969 200.753 86.2169 201.113 86.2169 201.58C86.2169 202.06 86.3969 202.427 86.7569 202.68C87.1302 202.933 87.6169 203.06 88.2169 203.06C88.8302 203.06 89.3169 202.933 89.6769 202.68C90.0502 202.427 90.2369 202.06 90.2369 201.58C90.2369 201.113 90.0502 200.753 89.6769 200.5C89.3169 200.233 88.8302 200.1 88.2169 200.1ZM86.8969 193.34H89.5569V196.84H86.8969V193.34ZM105.644 207.48H122.424V209.64H105.644V207.48ZM112.704 203.38H115.344V208.08H112.704V203.38ZM112.604 195.66H114.864V196.34C114.864 197.113 114.751 197.853 114.524 198.56C114.311 199.267 113.991 199.927 113.564 200.54C113.151 201.153 112.638 201.7 112.024 202.18C111.411 202.66 110.711 203.073 109.924 203.42C109.138 203.767 108.278 204.027 107.344 204.2L106.284 202.08C107.111 201.947 107.858 201.747 108.524 201.48C109.204 201.213 109.798 200.893 110.304 200.52C110.811 200.147 111.231 199.733 111.564 199.28C111.911 198.827 112.171 198.353 112.344 197.86C112.518 197.367 112.604 196.86 112.604 196.34V195.66ZM113.164 195.66H115.404V196.34C115.404 196.86 115.491 197.367 115.664 197.86C115.838 198.34 116.098 198.807 116.444 199.26C116.791 199.7 117.218 200.107 117.724 200.48C118.244 200.84 118.844 201.153 119.524 201.42C120.218 201.687 120.984 201.88 121.824 202L120.784 204.1C119.824 203.927 118.944 203.673 118.144 203.34C117.358 203.007 116.651 202.6 116.024 202.12C115.411 201.64 114.891 201.107 114.464 200.52C114.038 199.92 113.711 199.267 113.484 198.56C113.271 197.853 113.164 197.113 113.164 196.34V195.66ZM107.024 194.66H120.984V196.78H107.024V194.66ZM128.203 194.68H130.343V197.36C130.343 198.507 130.243 199.627 130.043 200.72C129.843 201.8 129.529 202.807 129.103 203.74C128.689 204.673 128.163 205.507 127.523 206.24C126.883 206.96 126.129 207.533 125.263 207.96L123.663 205.82C124.449 205.46 125.123 204.98 125.683 204.38C126.256 203.78 126.729 203.1 127.103 202.34C127.476 201.58 127.749 200.78 127.923 199.94C128.109 199.087 128.203 198.227 128.203 197.36V194.68ZM128.723 194.68H130.863V197.36C130.863 198.2 130.943 199.027 131.103 199.84C131.276 200.653 131.536 201.427 131.883 202.16C132.243 202.88 132.689 203.527 133.223 204.1C133.756 204.673 134.396 205.147 135.143 205.52L133.523 207.64C132.696 207.213 131.976 206.653 131.363 205.96C130.763 205.253 130.269 204.447 129.883 203.54C129.496 202.62 129.203 201.64 129.003 200.6C128.816 199.547 128.723 198.467 128.723 197.36V194.68ZM135.863 193.26H138.543V211.78H135.863V193.26ZM137.963 200.38H141.223V202.58H137.963V200.38Z" fill="#1E3A8A"/>
<path d="M46.4915 231.705C46.4915 230.452 46.6539 229.3 46.9787 228.249C47.3068 227.195 47.7741 226.226 48.3807 225.341H49.4148C49.1761 225.669 48.9524 226.073 48.7436 226.554C48.5381 227.031 48.3575 227.557 48.2017 228.13C48.0459 228.7 47.9233 229.29 47.8338 229.9C47.7476 230.51 47.7045 231.111 47.7045 231.705C47.7045 232.493 47.7808 233.294 47.9332 234.106C48.0857 234.918 48.2912 235.672 48.5497 236.368C48.8082 237.064 49.0966 237.631 49.4148 238.068H48.3807C47.7741 237.183 47.3068 236.215 46.9787 235.165C46.6539 234.111 46.4915 232.957 46.4915 231.705ZM60.0403 224.422H61.1883V237.106H60.0403V224.422ZM56.7083 229.126H60.3763V230.078H56.7083V229.126ZM51.2763 225.416H52.4383V228.706H55.9523V225.416H57.0863V233.914H51.2763V225.416ZM52.4383 229.63V232.962H55.9523V229.63H52.4383ZM72.8632 224.422H74.0112V237.092H72.8632V224.422ZM64.4492 225.668H65.5972V233.508H64.4492V225.668ZM64.4492 232.822H65.4852C66.4558 232.822 67.4405 232.78 68.4392 232.696C69.4472 232.603 70.4832 232.449 71.5472 232.234L71.7012 233.214C70.5998 233.447 69.5405 233.611 68.5232 233.704C67.5058 233.788 66.4932 233.83 65.4852 233.83H64.4492V232.822ZM79.9041 225.402C80.5201 225.402 81.0661 225.584 81.5421 225.948C82.0181 226.303 82.3867 226.811 82.6481 227.474C82.9187 228.137 83.0541 228.916 83.0541 229.812C83.0541 230.708 82.9187 231.487 82.6481 232.15C82.3867 232.813 82.0181 233.326 81.5421 233.69C81.0661 234.054 80.5201 234.236 79.9041 234.236C79.2974 234.236 78.7514 234.054 78.2661 233.69C77.7901 233.326 77.4167 232.813 77.1461 232.15C76.8847 231.487 76.7541 230.708 76.7541 229.812C76.7541 228.916 76.8847 228.137 77.1461 227.474C77.4167 226.811 77.7901 226.303 78.2661 225.948C78.7514 225.584 79.2974 225.402 79.9041 225.402ZM79.9041 226.438C79.5027 226.438 79.1481 226.578 78.8401 226.858C78.5321 227.129 78.2894 227.521 78.1121 228.034C77.9441 228.538 77.8601 229.131 77.8601 229.812C77.8601 230.493 77.9441 231.091 78.1121 231.604C78.2894 232.108 78.5321 232.5 78.8401 232.78C79.1481 233.06 79.5027 233.2 79.9041 233.2C80.3147 233.2 80.6741 233.06 80.9821 232.78C81.2901 232.5 81.5281 232.108 81.6961 231.604C81.8734 231.091 81.9621 230.493 81.9621 229.812C81.9621 229.131 81.8734 228.538 81.6961 228.034C81.5281 227.521 81.2901 227.129 80.9821 226.858C80.6741 226.578 80.3147 226.438 79.9041 226.438ZM85.7981 224.422H86.9461V237.106H85.7981V224.422ZM82.6761 229.252H86.3161V230.19H82.6761V229.252ZM97.8405 225.136H98.9605C98.9605 226.135 98.7832 227.045 98.4285 227.866C98.0832 228.678 97.5465 229.401 96.8185 230.036C96.0905 230.661 95.1618 231.189 94.0325 231.618L93.5145 230.778C94.5132 230.405 95.3298 229.957 95.9645 229.434C96.6085 228.911 97.0798 228.323 97.3785 227.67C97.6865 227.007 97.8405 226.289 97.8405 225.514V225.136ZM94.0325 225.136H98.2185V226.088H94.0325V225.136ZM97.7145 227.348V228.146L93.6265 228.58L93.4445 227.628L97.7145 227.348ZM102.908 224.436H104.014V231.072H102.908V224.436ZM100.892 227.334H103.286V228.286H100.892V227.334ZM100.136 224.674H101.242V230.988H100.136V224.674ZM95.6565 231.66H104.014V234.642H96.8325V236.518H95.6845V233.774H102.88V232.584H95.6565V231.66ZM95.6845 236H104.504V236.924H95.6845V236ZM115.451 224.422H116.599V237.106H115.451V224.422ZM106.953 233.074H108.003C108.722 233.074 109.413 233.065 110.075 233.046C110.747 233.018 111.424 232.971 112.105 232.906C112.796 232.841 113.515 232.747 114.261 232.626L114.373 233.578C113.235 233.765 112.161 233.891 111.153 233.956C110.145 234.012 109.095 234.04 108.003 234.04H106.953V233.074ZM106.925 225.598H112.777V230.12H108.129V233.438H106.953V229.182H111.601V226.55H106.925V225.598ZM119.398 225.752H126.384V226.704H119.398V225.752ZM119.132 233.97L119.006 232.99C119.753 232.981 120.565 232.971 121.442 232.962C122.329 232.943 123.23 232.911 124.144 232.864C125.059 232.817 125.936 232.747 126.776 232.654L126.846 233.508C125.997 233.639 125.115 233.741 124.2 233.816C123.295 233.881 122.408 233.923 121.54 233.942C120.672 233.961 119.87 233.97 119.132 233.97ZM120.672 226.508H121.806V233.242H120.672V226.508ZM123.836 226.508H124.956V233.242H123.836V226.508ZM128.372 224.422H129.52V237.092H128.372V224.422ZM125.95 229.196H129.156V230.148H125.95V229.196ZM137.051 225.29H138.073V226.27C138.073 226.821 137.975 227.343 137.779 227.838C137.593 228.333 137.331 228.795 136.995 229.224C136.669 229.644 136.286 230.022 135.847 230.358C135.418 230.694 134.956 230.979 134.461 231.212C133.976 231.445 133.481 231.623 132.977 231.744L132.459 230.778C132.898 230.685 133.337 230.54 133.775 230.344C134.223 230.148 134.643 229.91 135.035 229.63C135.427 229.341 135.773 229.019 136.071 228.664C136.379 228.309 136.617 227.931 136.785 227.53C136.963 227.119 137.051 226.699 137.051 226.27V225.29ZM137.275 225.29H138.269V226.27C138.269 226.699 138.358 227.119 138.535 227.53C138.713 227.931 138.951 228.309 139.249 228.664C139.557 229.019 139.907 229.341 140.299 229.63C140.691 229.91 141.107 230.153 141.545 230.358C141.993 230.554 142.441 230.694 142.889 230.778L142.357 231.744C141.853 231.623 141.359 231.445 140.873 231.212C140.388 230.979 139.926 230.694 139.487 230.358C139.058 230.022 138.675 229.644 138.339 229.224C138.003 228.795 137.742 228.333 137.555 227.838C137.369 227.343 137.275 226.821 137.275 226.27V225.29ZM131.983 234.418H143.463V235.384H131.983V234.418ZM153.924 224.87H154.946V225.584C154.946 226.069 154.852 226.527 154.666 226.956C154.479 227.376 154.222 227.763 153.896 228.118C153.578 228.473 153.205 228.79 152.776 229.07C152.346 229.35 151.88 229.583 151.376 229.77C150.881 229.957 150.372 230.092 149.85 230.176L149.374 229.238C149.84 229.173 150.293 229.061 150.732 228.902C151.18 228.743 151.595 228.552 151.978 228.328C152.36 228.095 152.696 227.833 152.986 227.544C153.284 227.255 153.513 226.947 153.672 226.62C153.84 226.284 153.924 225.939 153.924 225.584V224.87ZM154.12 224.87H155.128V225.584C155.128 225.939 155.212 226.279 155.38 226.606C155.548 226.933 155.776 227.241 156.066 227.53C156.364 227.819 156.705 228.081 157.088 228.314C157.47 228.547 157.881 228.743 158.32 228.902C158.768 229.061 159.22 229.173 159.678 229.238L159.216 230.176C158.693 230.092 158.184 229.957 157.69 229.77C157.195 229.574 156.728 229.336 156.29 229.056C155.86 228.776 155.482 228.459 155.156 228.104C154.838 227.749 154.586 227.362 154.4 226.942C154.213 226.513 154.12 226.06 154.12 225.584V224.87ZM153.924 232.276H155.072V237.092H153.924V232.276ZM148.8 231.548H160.238V232.514H148.8V231.548ZM170.877 224.422H172.053V237.092H170.877V224.422ZM165.193 227.432H166.131V228.524C166.131 229.196 166.042 229.849 165.865 230.484C165.687 231.109 165.435 231.693 165.109 232.234C164.791 232.775 164.413 233.251 163.975 233.662C163.545 234.073 163.074 234.399 162.561 234.642L161.917 233.746C162.383 233.531 162.813 233.242 163.205 232.878C163.606 232.514 163.951 232.103 164.241 231.646C164.539 231.179 164.773 230.68 164.941 230.148C165.109 229.616 165.193 229.075 165.193 228.524V227.432ZM165.403 227.432H166.341V228.524C166.341 229.047 166.425 229.565 166.593 230.078C166.761 230.582 166.994 231.058 167.293 231.506C167.591 231.945 167.941 232.337 168.343 232.682C168.744 233.027 169.183 233.307 169.659 233.522L169.015 234.418C168.501 234.185 168.025 233.872 167.587 233.48C167.148 233.079 166.765 232.621 166.439 232.108C166.112 231.585 165.855 231.021 165.669 230.414C165.491 229.807 165.403 229.177 165.403 228.524V227.432ZM162.253 226.62H169.225V227.558H162.253V226.62ZM165.179 224.66H166.341V227.138H165.179V224.66ZM187.707 224.436H188.869V233.676H187.707V224.436ZM180.735 235.86H189.261V236.812H180.735V235.86ZM180.735 232.738H181.897V236.182H180.735V232.738ZM182.079 225.318C182.714 225.318 183.278 225.449 183.773 225.71C184.268 225.971 184.66 226.34 184.949 226.816C185.238 227.283 185.383 227.819 185.383 228.426C185.383 229.033 185.238 229.574 184.949 230.05C184.66 230.517 184.268 230.885 183.773 231.156C183.278 231.417 182.714 231.548 182.079 231.548C181.454 231.548 180.889 231.417 180.385 231.156C179.89 230.885 179.498 230.517 179.209 230.05C178.92 229.574 178.775 229.033 178.775 228.426C178.775 227.819 178.92 227.283 179.209 226.816C179.498 226.34 179.89 225.971 180.385 225.71C180.889 225.449 181.454 225.318 182.079 225.318ZM182.079 226.326C181.668 226.326 181.3 226.415 180.973 226.592C180.646 226.769 180.385 227.017 180.189 227.334C180.002 227.651 179.909 228.015 179.909 228.426C179.909 228.846 180.002 229.215 180.189 229.532C180.385 229.84 180.646 230.083 180.973 230.26C181.3 230.437 181.668 230.526 182.079 230.526C182.49 230.526 182.858 230.437 183.185 230.26C183.521 230.083 183.782 229.84 183.969 229.532C184.156 229.215 184.249 228.846 184.249 228.426C184.249 228.015 184.156 227.651 183.969 227.334C183.782 227.017 183.521 226.769 183.185 226.592C182.858 226.415 182.49 226.326 182.079 226.326ZM194.664 225.024H195.63V226.256C195.63 227.059 195.48 227.81 195.182 228.51C194.892 229.21 194.477 229.821 193.936 230.344C193.404 230.857 192.783 231.249 192.074 231.52L191.486 230.596C191.962 230.419 192.391 230.185 192.774 229.896C193.166 229.597 193.502 229.257 193.782 228.874C194.071 228.491 194.29 228.076 194.44 227.628C194.589 227.18 194.664 226.723 194.664 226.256V225.024ZM194.874 225.024H195.84V226.256C195.84 226.713 195.914 227.152 196.064 227.572C196.222 227.992 196.442 228.384 196.722 228.748C197.002 229.112 197.333 229.434 197.716 229.714C198.108 229.994 198.537 230.213 199.004 230.372L198.43 231.296C197.73 231.035 197.109 230.661 196.568 230.176C196.036 229.681 195.62 229.098 195.322 228.426C195.023 227.754 194.874 227.031 194.874 226.256V225.024ZM193.292 232.682H201.748V237.092H200.586V233.634H193.292V232.682ZM200.586 224.422H201.748V232.038H200.586V224.422ZM207.132 231.705C207.132 232.957 206.968 234.111 206.64 235.165C206.315 236.215 205.85 237.183 205.243 238.068H204.209C204.448 237.74 204.67 237.336 204.875 236.855C205.084 236.378 205.266 235.854 205.422 235.284C205.578 234.711 205.699 234.119 205.785 233.509C205.874 232.896 205.919 232.295 205.919 231.705C205.919 230.916 205.843 230.115 205.691 229.303C205.538 228.491 205.333 227.737 205.074 227.041C204.816 226.345 204.527 225.778 204.209 225.341H205.243C205.85 226.226 206.315 227.195 206.64 228.249C206.968 229.3 207.132 230.452 207.132 231.705Z" fill="#3B82F6"/>
<path d="M337 276H25V386H337V276Z" fill="#F9FAFB" stroke="#E5E7EB" stroke-width="2"/>
<path d="M45 315.96H73V287.96H45V315.96Z" fill="black"/>
<path d="M46.072 337.92H48.072V341.248H49.944V337.92H51.912V347.904H46.072V337.92ZM48.072 342.896V346.208H49.944V342.896H48.072ZM56.344 336.592H58.376V351.408H56.344V336.592ZM54.536 342.256H56.984V343.952H54.536V342.256ZM53.112 336.832H55.096V350.752H53.112V336.832ZM62.0228 337.408H71.3828V339.104H62.0228V337.408ZM60.3748 343.152H73.7988V344.848H60.3748V343.152ZM70.1188 337.408H72.2308V338.688C72.2308 339.392 72.2094 340.155 72.1668 340.976C72.1348 341.797 72.0014 342.741 71.7668 343.808L69.6708 343.616C69.8948 342.571 70.0228 341.664 70.0548 340.896C70.0974 340.117 70.1188 339.381 70.1188 338.688V337.408ZM62.0548 349.456H72.6468V351.152H62.0548V349.456ZM62.0548 346.112H64.1668V349.616H62.0548V346.112ZM88.3006 336.608H90.4446V347.2H88.3006V336.608ZM89.8526 340.736H92.4126V342.48H89.8526V340.736ZM84.1886 337.712H86.4446C86.4446 339.056 86.178 340.256 85.6446 341.312C85.1113 342.368 84.3326 343.269 83.3086 344.016C82.2953 344.763 81.0473 345.349 79.5646 345.776L78.6846 344.096C79.89 343.755 80.898 343.317 81.7086 342.784C82.53 342.251 83.1486 341.643 83.5646 340.96C83.9806 340.277 84.1886 339.541 84.1886 338.752V337.712ZM79.3246 337.712H85.3246V339.408H79.3246V337.712ZM80.8766 349.456H90.9566V351.168H80.8766V349.456ZM80.8766 346.128H83.0046V350.224H80.8766V346.128ZM99.1314 337.536H101.371C101.371 338.859 101.099 340.037 100.555 341.072C100.022 342.107 99.2434 342.987 98.2194 343.712C97.1954 344.437 95.9474 344.997 94.4754 345.392L93.6594 343.728C94.8754 343.408 95.8887 342.992 96.6994 342.48C97.51 341.957 98.118 341.365 98.5234 340.704C98.9287 340.043 99.1314 339.333 99.1314 338.576V337.536ZM94.4914 337.536H100.507V339.232H94.4914V337.536ZM95.8034 346.016H105.915V351.376H103.771V347.696H95.8034V346.016ZM103.771 336.592H105.915V345.392H103.771V336.592ZM100.667 338.976H104.139V340.672H100.667V338.976ZM100.523 342.128H103.995V343.84H100.523V342.128ZM111.937 347.984H125.361V349.712H111.937V347.984ZM117.585 344.704H119.697V348.464H117.585V344.704ZM117.505 338.528H119.313V339.072C119.313 339.691 119.223 340.283 119.041 340.848C118.871 341.413 118.615 341.941 118.273 342.432C117.943 342.923 117.532 343.36 117.041 343.744C116.551 344.128 115.991 344.459 115.361 344.736C114.732 345.013 114.044 345.221 113.297 345.36L112.449 343.664C113.111 343.557 113.708 343.397 114.241 343.184C114.785 342.971 115.26 342.715 115.665 342.416C116.071 342.117 116.407 341.787 116.673 341.424C116.951 341.061 117.159 340.683 117.297 340.288C117.436 339.893 117.505 339.488 117.505 339.072V338.528ZM117.953 338.528H119.745V339.072C119.745 339.488 119.815 339.893 119.953 340.288C120.092 340.672 120.3 341.045 120.577 341.408C120.855 341.76 121.196 342.085 121.601 342.384C122.017 342.672 122.497 342.923 123.041 343.136C123.596 343.349 124.209 343.504 124.881 343.6L124.049 345.28C123.281 345.141 122.577 344.939 121.937 344.672C121.308 344.405 120.743 344.08 120.241 343.696C119.751 343.312 119.335 342.885 118.993 342.416C118.652 341.936 118.391 341.413 118.209 340.848C118.039 340.283 117.953 339.691 117.953 339.072V338.528ZM113.041 337.728H124.209V339.424H113.041V337.728ZM129.984 337.744H131.696V339.888C131.696 340.805 131.616 341.701 131.456 342.576C131.296 343.44 131.045 344.245 130.704 344.992C130.373 345.739 129.952 346.405 129.44 346.992C128.928 347.568 128.325 348.027 127.632 348.368L126.352 346.656C126.981 346.368 127.52 345.984 127.968 345.504C128.427 345.024 128.805 344.48 129.104 343.872C129.403 343.264 129.621 342.624 129.76 341.952C129.909 341.269 129.984 340.581 129.984 339.888V337.744ZM130.4 337.744H132.112V339.888C132.112 340.56 132.176 341.221 132.304 341.872C132.443 342.523 132.651 343.141 132.928 343.728C133.216 344.304 133.573 344.821 134 345.28C134.427 345.739 134.939 346.117 135.536 346.416L134.24 348.112C133.579 347.771 133.003 347.323 132.512 346.768C132.032 346.203 131.637 345.557 131.328 344.832C131.019 344.096 130.784 343.312 130.624 342.48C130.475 341.637 130.4 340.773 130.4 339.888V337.744ZM136.112 336.608H138.256V351.424H136.112V336.608ZM137.792 342.304H140.4V344.064H137.792V342.304ZM145.922 345.335C145.922 343.926 146.109 342.629 146.484 341.443C146.863 340.258 147.441 339.159 148.217 338.148H150.53C150.234 338.523 149.96 338.981 149.706 339.523C149.452 340.061 149.231 340.652 149.041 341.295C148.852 341.939 148.704 342.606 148.598 343.295C148.492 343.981 148.439 344.661 148.439 345.335C148.439 346.233 148.53 347.14 148.712 348.057C148.897 348.97 149.147 349.818 149.462 350.602C149.78 351.386 150.136 352.028 150.53 352.528H148.217C147.441 351.517 146.863 350.419 146.484 349.233C146.109 348.047 145.922 346.748 145.922 345.335ZM157.257 343.648H159.369V345.728H157.257V343.648ZM151.609 342.48H165.017V344.144H151.609V342.48ZM153.145 345.072H163.385V348.896H155.273V350.192H153.161V347.424H161.289V346.64H153.145V345.072ZM153.161 349.728H163.785V351.328H153.161V349.728ZM157.049 337.632H158.905V338.016C158.905 338.432 158.819 338.832 158.649 339.216C158.489 339.6 158.243 339.957 157.913 340.288C157.582 340.608 157.171 340.896 156.681 341.152C156.201 341.397 155.641 341.6 155.001 341.76C154.361 341.92 153.646 342.027 152.857 342.08L152.201 340.48C152.883 340.437 153.486 340.363 154.009 340.256C154.531 340.139 154.985 339.995 155.369 339.824C155.753 339.653 156.067 339.472 156.313 339.28C156.558 339.077 156.739 338.869 156.857 338.656C156.985 338.443 157.049 338.229 157.049 338.016V337.632ZM157.737 337.632H159.593V338.016C159.593 338.229 159.651 338.443 159.769 338.656C159.886 338.869 160.067 339.077 160.313 339.28C160.569 339.483 160.883 339.669 161.257 339.84C161.641 340 162.094 340.139 162.617 340.256C163.15 340.363 163.753 340.437 164.425 340.48L163.769 342.08C162.979 342.027 162.265 341.92 161.625 341.76C160.985 341.6 160.419 341.397 159.929 341.152C159.449 340.896 159.043 340.608 158.713 340.288C158.393 339.968 158.147 339.616 157.977 339.232C157.817 338.848 157.737 338.443 157.737 338.016V337.632ZM152.841 336.992H163.817V338.656H152.841V336.992ZM169.656 338.944H171.336V340.608C171.336 341.429 171.245 342.251 171.064 343.072C170.893 343.893 170.637 344.667 170.296 345.392C169.954 346.107 169.522 346.747 169 347.312C168.488 347.877 167.89 348.32 167.208 348.64L166.008 346.96C166.626 346.672 167.16 346.293 167.608 345.824C168.066 345.355 168.445 344.832 168.744 344.256C169.053 343.68 169.282 343.083 169.432 342.464C169.581 341.835 169.656 341.216 169.656 340.608V338.944ZM170.104 338.944H171.784V340.608C171.784 341.163 171.858 341.733 172.008 342.32C172.157 342.907 172.376 343.472 172.664 344.016C172.962 344.56 173.336 345.056 173.784 345.504C174.242 345.941 174.776 346.299 175.384 346.576L174.2 348.272C173.517 347.952 172.92 347.525 172.408 346.992C171.906 346.448 171.48 345.835 171.128 345.152C170.786 344.459 170.53 343.728 170.36 342.96C170.189 342.181 170.104 341.397 170.104 340.608V338.944ZM166.584 338.016H174.727V339.776H166.584V338.016ZM175.8 336.608H177.944V351.424H175.8V336.608ZM177.48 342.256H180.088V344H177.48V342.256ZM185.452 345.335C185.452 346.748 185.262 348.047 184.884 349.233C184.509 350.419 183.933 351.517 183.156 352.528H180.844C181.139 352.153 181.414 351.695 181.668 351.153C181.921 350.612 182.143 350.021 182.332 349.381C182.522 348.737 182.67 348.07 182.776 347.381C182.882 346.691 182.935 346.009 182.935 345.335C182.935 344.437 182.842 343.532 182.656 342.619C182.474 341.703 182.224 340.854 181.906 340.074C181.592 339.29 181.238 338.648 180.844 338.148H183.156C183.933 339.159 184.509 340.258 184.884 341.443C185.262 342.629 185.452 343.926 185.452 345.335Z" fill="#9CA3AF"/>
<path d="M52.028 363.72H55.542V364.672H52.028V363.72ZM48.962 360.514H49.914V362.782C49.914 363.482 49.8253 364.173 49.648 364.854C49.48 365.535 49.2373 366.17 48.92 366.758C48.6027 367.346 48.2293 367.869 47.8 368.326C47.38 368.783 46.918 369.147 46.414 369.418L45.686 368.48C46.1527 368.256 46.582 367.943 46.974 367.542C47.3753 367.141 47.7253 366.683 48.024 366.17C48.3227 365.647 48.5513 365.101 48.71 364.532C48.878 363.953 48.962 363.37 48.962 362.782V360.514ZM49.2 360.514H50.138V362.782C50.138 363.351 50.2173 363.916 50.376 364.476C50.544 365.036 50.7773 365.563 51.076 366.058C51.3747 366.543 51.72 366.977 52.112 367.36C52.5133 367.743 52.9427 368.041 53.4 368.256L52.7 369.194C52.196 368.933 51.7293 368.583 51.3 368.144C50.8707 367.705 50.4973 367.201 50.18 366.632C49.872 366.063 49.6293 365.451 49.452 364.798C49.284 364.145 49.2 363.473 49.2 362.782V360.514ZM54.968 359.422H56.116V372.106H54.968V359.422ZM67.7769 359.422H68.9389V372.106H67.7769V359.422ZM59.2929 360.5H60.4549V363.832H64.1089V360.5H65.2569V369.054H59.2929V360.5ZM60.4549 364.756V368.088H64.1089V364.756H60.4549ZM76.5258 360.29H77.5478V361.27C77.5478 361.821 77.4498 362.343 77.2538 362.838C77.0671 363.333 76.8058 363.795 76.4698 364.224C76.1431 364.644 75.7605 365.022 75.3218 365.358C74.8925 365.694 74.4305 365.979 73.9358 366.212C73.4505 366.445 72.9558 366.623 72.4518 366.744L71.9338 365.778C72.3725 365.685 72.8111 365.54 73.2498 365.344C73.6978 365.148 74.1178 364.91 74.5098 364.63C74.9018 364.341 75.2471 364.019 75.5458 363.664C75.8538 363.309 76.0918 362.931 76.2598 362.53C76.4371 362.119 76.5258 361.699 76.5258 361.27V360.29ZM76.7498 360.29H77.7438V361.27C77.7438 361.699 77.8325 362.119 78.0098 362.53C78.1871 362.931 78.4251 363.309 78.7238 363.664C79.0318 364.019 79.3818 364.341 79.7738 364.63C80.1658 364.91 80.5811 365.153 81.0198 365.358C81.4678 365.554 81.9158 365.694 82.3638 365.778L81.8318 366.744C81.3278 366.623 80.8331 366.445 80.3478 366.212C79.8625 365.979 79.4005 365.694 78.9618 365.358C78.5325 365.022 78.1498 364.644 77.8138 364.224C77.4778 363.795 77.2165 363.333 77.0298 362.838C76.8431 362.343 76.7498 361.821 76.7498 361.27V360.29ZM71.4578 369.418H82.9378V370.384H71.4578V369.418ZM93.2442 360.626H94.2662V361.004C94.2662 361.536 94.1356 362.026 93.8742 362.474C93.6129 362.922 93.2536 363.323 92.7962 363.678C92.3482 364.023 91.8302 364.313 91.2422 364.546C90.6636 364.77 90.0476 364.929 89.3942 365.022L88.9602 364.098C89.4082 364.033 89.8422 363.935 90.2622 363.804C90.6916 363.673 91.0836 363.515 91.4382 363.328C91.7929 363.132 92.1056 362.913 92.3762 362.67C92.6469 362.427 92.8569 362.166 93.0062 361.886C93.1649 361.606 93.2442 361.312 93.2442 361.004V360.626ZM93.7202 360.626H94.7422V361.004C94.7422 361.303 94.8169 361.592 94.9662 361.872C95.1249 362.152 95.3396 362.418 95.6102 362.67C95.8809 362.913 96.1936 363.132 96.5482 363.328C96.9122 363.515 97.3042 363.673 97.7242 363.804C98.1442 363.935 98.5782 364.033 99.0262 364.098L98.5922 365.022C97.9482 364.929 97.3322 364.77 96.7442 364.546C96.1562 364.313 95.6382 364.023 95.1902 363.678C94.7422 363.323 94.3829 362.922 94.1122 362.474C93.8509 362.026 93.7202 361.536 93.7202 361.004V360.626ZM89.3242 360.052H98.6762V360.99H89.3242V360.052ZM88.2602 365.932H99.7402V366.884H88.2602V365.932ZM93.4962 366.534H94.6582V369.446H93.4962V366.534ZM89.7162 370.86H98.4662V371.812H89.7162V370.86ZM89.7162 368.214H90.8782V371.21H89.7162V368.214ZM110.351 359.422H111.513V372.106H110.351V359.422ZM101.867 360.5H103.029V363.832H106.683V360.5H107.831V369.054H101.867V360.5ZM103.029 364.756V368.088H106.683V364.756H103.029ZM123.108 365.75H124.256V367.962H123.108V365.75ZM117.97 365.344H129.408V366.296H117.97V365.344ZM123.682 367.612C125.035 367.612 126.094 367.803 126.86 368.186C127.625 368.569 128.008 369.119 128.008 369.838C128.008 370.547 127.625 371.093 126.86 371.476C126.094 371.868 125.035 372.064 123.682 372.064C122.328 372.064 121.264 371.868 120.49 371.476C119.724 371.093 119.342 370.547 119.342 369.838C119.342 369.119 119.724 368.569 120.49 368.186C121.264 367.803 122.328 367.612 123.682 367.612ZM123.682 368.522C123.019 368.522 122.45 368.573 121.974 368.676C121.507 368.779 121.148 368.928 120.896 369.124C120.644 369.32 120.518 369.558 120.518 369.838C120.518 370.118 120.644 370.356 120.896 370.552C121.148 370.748 121.507 370.897 121.974 371C122.45 371.112 123.019 371.168 123.682 371.168C124.344 371.168 124.909 371.112 125.376 371C125.852 370.897 126.216 370.748 126.468 370.552C126.72 370.356 126.846 370.118 126.846 369.838C126.846 369.558 126.72 369.32 126.468 369.124C126.216 368.928 125.852 368.779 125.376 368.676C124.909 368.573 124.344 368.522 123.682 368.522ZM122.94 360.472H123.962V360.85C123.962 361.261 123.873 361.639 123.696 361.984C123.528 362.329 123.29 362.651 122.982 362.95C122.674 363.239 122.31 363.496 121.89 363.72C121.479 363.944 121.031 364.131 120.546 364.28C120.06 364.42 119.552 364.523 119.02 364.588L118.6 363.664C119.057 363.617 119.496 363.538 119.916 363.426C120.345 363.305 120.742 363.16 121.106 362.992C121.479 362.815 121.801 362.614 122.072 362.39C122.342 362.166 122.552 361.923 122.702 361.662C122.86 361.401 122.94 361.13 122.94 360.85V360.472ZM123.416 360.472H124.438V360.85C124.438 361.139 124.512 361.415 124.662 361.676C124.82 361.928 125.035 362.166 125.306 362.39C125.576 362.605 125.894 362.801 126.258 362.978C126.631 363.146 127.028 363.291 127.448 363.412C127.877 363.533 128.32 363.617 128.778 363.664L128.358 364.588C127.826 364.523 127.317 364.42 126.832 364.28C126.346 364.131 125.894 363.944 125.474 363.72C125.063 363.496 124.704 363.239 124.396 362.95C124.088 362.661 123.845 362.339 123.668 361.984C123.5 361.629 123.416 361.251 123.416 360.85V360.472ZM119.02 360.01H128.372V360.948H119.02V360.01ZM132.077 371.08C131.832 371.08 131.622 370.992 131.446 370.816C131.27 370.64 131.183 370.43 131.183 370.185C131.183 369.939 131.27 369.729 131.446 369.553C131.622 369.378 131.832 369.29 132.077 369.29C132.323 369.29 132.533 369.378 132.709 369.553C132.884 369.729 132.972 369.939 132.972 370.185C132.972 370.347 132.931 370.496 132.848 370.632C132.768 370.768 132.661 370.877 132.525 370.96C132.392 371.04 132.243 371.08 132.077 371.08ZM135.933 371.08C135.688 371.08 135.477 370.992 135.301 370.816C135.126 370.64 135.038 370.43 135.038 370.185C135.038 369.939 135.126 369.729 135.301 369.553C135.477 369.378 135.688 369.29 135.933 369.29C136.178 369.29 136.389 369.378 136.564 369.553C136.74 369.729 136.828 369.939 136.828 370.185C136.828 370.347 136.786 370.496 136.703 370.632C136.624 370.768 136.516 370.877 136.38 370.96C136.248 371.04 136.099 371.08 135.933 371.08ZM139.788 371.08C139.543 371.08 139.333 370.992 139.157 370.816C138.981 370.64 138.893 370.43 138.893 370.185C138.893 369.939 138.981 369.729 139.157 369.553C139.333 369.378 139.543 369.29 139.788 369.29C140.034 369.29 140.244 369.378 140.42 369.553C140.595 369.729 140.683 369.939 140.683 370.185C140.683 370.347 140.642 370.496 140.559 370.632C140.479 370.768 140.372 370.877 140.236 370.96C140.103 371.04 139.954 371.08 139.788 371.08Z" fill="#9CA3AF"/>
<path d="M331 581H31C14.4315 581 1 594.431 1 611V751C1 767.569 14.4315 781 31 781H331C347.569 781 361 767.569 361 751V611C361 594.431 347.569 581 331 581Z" fill="#F8FAFC"/>
<path d="M31.288 609.928H33.4V613.304H31.288V609.928ZM32.344 602.36C33.4 602.36 34.344 602.531 35.176 602.872C36.0187 603.203 36.68 603.672 37.16 604.28C37.64 604.888 37.88 605.608 37.88 606.44C37.88 607.261 37.64 607.981 37.16 608.6C36.68 609.219 36.0187 609.699 35.176 610.04C34.344 610.371 33.4 610.536 32.344 610.536C31.2987 610.536 30.3547 610.371 29.512 610.04C28.68 609.699 28.0187 609.219 27.528 608.6C27.048 607.981 26.808 607.261 26.808 606.44C26.808 605.608 27.048 604.888 27.528 604.28C28.0187 603.672 28.68 603.203 29.512 602.872C30.3547 602.531 31.2987 602.36 32.344 602.36ZM32.344 604.04C31.672 604.04 31.0747 604.136 30.552 604.328C30.04 604.52 29.6347 604.792 29.336 605.144C29.048 605.496 28.904 605.928 28.904 606.44C28.904 606.941 29.048 607.373 29.336 607.736C29.6347 608.088 30.04 608.36 30.552 608.552C31.0747 608.744 31.672 608.84 32.344 608.84C33.0267 608.84 33.624 608.744 34.136 608.552C34.6587 608.36 35.064 608.088 35.352 607.736C35.64 607.373 35.784 606.941 35.784 606.44C35.784 605.928 35.64 605.496 35.352 605.144C35.064 604.792 34.6587 604.52 34.136 604.328C33.624 604.136 33.0267 604.04 32.344 604.04ZM25.656 612.968H39.08V614.696H25.656V612.968ZM42.0228 604.552H52.2468V606.232H42.0228V604.552ZM40.3748 607.208H53.7828V608.888H40.3748V607.208ZM42.0228 601.752H44.1348V605.448H42.0228V601.752ZM41.8788 609.784H52.1988V613.72H44.0388V615.016H41.8948V612.216H50.0708V611.384H41.8788V609.784ZM41.8948 614.648H52.6308V616.264H41.8948V614.648ZM59.8615 602.584C60.6295 602.584 61.3228 602.739 61.9415 603.048C62.5602 603.357 63.0455 603.789 63.3975 604.344C63.7495 604.888 63.9255 605.517 63.9255 606.232C63.9255 606.936 63.7495 607.565 63.3975 608.12C63.0455 608.675 62.5602 609.107 61.9415 609.416C61.3228 609.725 60.6295 609.88 59.8615 609.88C59.0828 609.88 58.3842 609.725 57.7655 609.416C57.1468 609.107 56.6562 608.675 56.2935 608.12C55.9415 607.565 55.7655 606.936 55.7655 606.232C55.7655 605.517 55.9415 604.888 56.2935 604.344C56.6562 603.789 57.1468 603.357 57.7655 603.048C58.3842 602.739 59.0828 602.584 59.8615 602.584ZM59.8615 604.408C59.4775 604.408 59.1308 604.483 58.8215 604.632C58.5228 604.771 58.2828 604.979 58.1015 605.256C57.9308 605.523 57.8455 605.848 57.8455 606.232C57.8455 606.616 57.9308 606.947 58.1015 607.224C58.2828 607.501 58.5228 607.715 58.8215 607.864C59.1308 608.003 59.4775 608.072 59.8615 608.072C60.2348 608.072 60.5708 608.003 60.8695 607.864C61.1682 607.715 61.4028 607.501 61.5735 607.224C61.7548 606.947 61.8455 606.616 61.8455 606.232C61.8455 605.848 61.7548 605.523 61.5735 605.256C61.4028 604.979 61.1682 604.771 60.8695 604.632C60.5708 604.483 60.2348 604.408 59.8615 604.408ZM65.3175 601.576H67.4455V616.44H65.3175V601.576ZM55.3975 613.448L55.1575 611.72C56.0215 611.72 56.9762 611.715 58.0215 611.704C59.0775 611.683 60.1602 611.64 61.2695 611.576C62.3895 611.501 63.4722 611.389 64.5175 611.24L64.6615 612.776C63.5948 612.989 62.5122 613.144 61.4135 613.24C60.3148 613.325 59.2535 613.384 58.2295 613.416C57.2055 613.437 56.2615 613.448 55.3975 613.448ZM79.0994 602.024H80.9554V602.728C80.9554 603.293 80.8647 603.843 80.6834 604.376C80.5127 604.899 80.2567 605.389 79.9154 605.848C79.574 606.307 79.158 606.717 78.6674 607.08C78.1767 607.443 77.606 607.752 76.9554 608.008C76.3154 608.253 75.6114 608.44 74.8434 608.568L74.0114 606.856C74.694 606.771 75.302 606.627 75.8354 606.424C76.3794 606.221 76.854 605.981 77.2594 605.704C77.6754 605.427 78.0167 605.123 78.2834 604.792C78.55 604.461 78.7527 604.12 78.8914 603.768C79.03 603.416 79.0994 603.069 79.0994 602.728V602.024ZM79.4994 602.024H81.3554V602.728C81.3554 603.069 81.4247 603.416 81.5634 603.768C81.702 604.12 81.9047 604.461 82.1714 604.792C82.438 605.123 82.774 605.427 83.1794 605.704C83.5954 605.981 84.07 606.221 84.6034 606.424C85.1474 606.627 85.7607 606.771 86.4434 606.856L85.6114 608.568C84.8327 608.44 84.1234 608.253 83.4834 608.008C82.8434 607.752 82.278 607.443 81.7874 607.08C81.2967 606.707 80.8807 606.291 80.5394 605.832C80.198 605.373 79.9367 604.883 79.7554 604.36C79.5847 603.837 79.4994 603.293 79.4994 602.728V602.024ZM79.0994 610.984H81.2274V616.424H79.0994V610.984ZM73.5154 609.64H86.9234V611.368H73.5154V609.64ZM91.8181 602.872H93.5621V603.784C93.5621 604.669 93.4075 605.512 93.0981 606.312C92.7995 607.112 92.3355 607.805 91.7061 608.392C91.0875 608.979 90.2981 609.421 89.3381 609.72L88.2821 608.056C88.9008 607.875 89.4288 607.635 89.8661 607.336C90.3141 607.027 90.6821 606.685 90.9701 606.312C91.2581 605.928 91.4715 605.523 91.6101 605.096C91.7488 604.659 91.8181 604.221 91.8181 603.784V602.872ZM92.2661 602.872H93.9941V603.784C93.9941 604.2 94.0635 604.611 94.2021 605.016C94.3408 605.411 94.5488 605.789 94.8261 606.152C95.1141 606.515 95.4768 606.84 95.9141 607.128C96.3515 607.405 96.8741 607.635 97.4821 607.816L96.4261 609.464C95.4981 609.187 94.7248 608.771 94.1061 608.216C93.4875 607.651 93.0235 606.984 92.7141 606.216C92.4155 605.448 92.2661 604.637 92.2661 603.784V602.872ZM88.8581 602.392H96.9221V604.072H88.8581V602.392ZM98.4101 601.608H100.538V609.64H98.4101V601.608ZM90.6981 610.28H92.7941V611.624H98.4261V610.28H100.538V616.264H90.6981V610.28ZM92.7941 613.256V614.552H98.4261V613.256H92.7941ZM116.912 601.608H119.056V612.888H116.912V601.608ZM114.992 605.288H117.712V606.984H114.992V605.288ZM114.992 608.456H117.712V610.152H114.992V608.456ZM106.688 603.16H114.832V604.824H106.688V603.16ZM110.848 605.352C111.531 605.352 112.133 605.475 112.656 605.72C113.179 605.965 113.589 606.307 113.888 606.744C114.187 607.181 114.336 607.688 114.336 608.264C114.336 608.829 114.187 609.331 113.888 609.768C113.589 610.205 113.179 610.552 112.656 610.808C112.133 611.053 111.531 611.176 110.848 611.176C110.187 611.176 109.589 611.053 109.056 610.808C108.533 610.552 108.123 610.205 107.824 609.768C107.525 609.331 107.376 608.829 107.376 608.264C107.376 607.688 107.525 607.181 107.824 606.744C108.123 606.307 108.533 605.965 109.056 605.72C109.589 605.475 110.187 605.352 110.848 605.352ZM110.864 606.984C110.427 606.984 110.069 607.096 109.792 607.32C109.525 607.533 109.392 607.848 109.392 608.264C109.392 608.669 109.525 608.984 109.792 609.208C110.069 609.432 110.427 609.544 110.864 609.544C111.291 609.544 111.643 609.432 111.92 609.208C112.197 608.984 112.336 608.669 112.336 608.264C112.336 607.848 112.197 607.533 111.92 607.32C111.643 607.096 111.291 606.984 110.864 606.984ZM109.792 601.56H111.936V604.184H109.792V601.56ZM109.248 614.456H119.376V616.168H109.248V614.456ZM109.248 611.96H111.376V615.256H109.248V611.96ZM130.991 601.608H133.119V611.608H130.991V601.608ZM132.383 605.8H134.991V607.544H132.383V605.8ZM128.159 611.752C129.759 611.752 131.001 611.955 131.887 612.36C132.772 612.755 133.215 613.331 133.215 614.088C133.215 614.856 132.772 615.437 131.887 615.832C131.001 616.237 129.759 616.44 128.159 616.44C126.569 616.44 125.332 616.237 124.447 615.832C123.561 615.437 123.119 614.861 123.119 614.104C123.119 613.336 123.561 612.755 124.447 612.36C125.332 611.955 126.569 611.752 128.159 611.752ZM128.159 613.288C127.167 613.288 126.436 613.352 125.967 613.48C125.497 613.608 125.263 613.811 125.263 614.088C125.263 614.376 125.497 614.584 125.967 614.712C126.436 614.84 127.167 614.904 128.159 614.904C129.161 614.904 129.897 614.84 130.367 614.712C130.836 614.584 131.071 614.376 131.071 614.088C131.071 613.811 130.836 613.608 130.367 613.48C129.897 613.352 129.161 613.288 128.159 613.288ZM124.719 608.136H126.847V610.296H124.719V608.136ZM121.439 611.224L121.199 609.624C122.084 609.624 123.039 609.619 124.063 609.608C125.097 609.587 126.153 609.549 127.231 609.496C128.308 609.432 129.348 609.336 130.351 609.208L130.495 610.632C129.46 610.813 128.409 610.947 127.343 611.032C126.276 611.117 125.236 611.171 124.223 611.192C123.22 611.213 122.292 611.224 121.439 611.224ZM121.567 602.664H129.983V604.184H121.567V602.664ZM125.775 604.552C126.873 604.552 127.748 604.744 128.399 605.128C129.06 605.501 129.391 606.019 129.391 606.68C129.391 607.331 129.06 607.848 128.399 608.232C127.748 608.605 126.879 608.792 125.791 608.792C124.692 608.792 123.812 608.605 123.151 608.232C122.5 607.848 122.175 607.331 122.175 606.68C122.175 606.019 122.5 605.501 123.151 605.128C123.812 604.744 124.687 604.552 125.775 604.552ZM125.775 605.928C125.273 605.928 124.884 605.992 124.607 606.12C124.329 606.248 124.191 606.435 124.191 606.68C124.191 606.925 124.329 607.112 124.607 607.24C124.884 607.357 125.273 607.416 125.775 607.416C126.287 607.416 126.681 607.357 126.959 607.24C127.236 607.112 127.375 606.925 127.375 606.68C127.375 606.435 127.236 606.248 126.959 606.12C126.681 605.992 126.287 605.928 125.775 605.928ZM124.719 601.496H126.847V603.32H124.719V601.496Z" fill="#374151"/>
<path d="M262.534 614.516H274.014V615.482H262.534V614.516ZM267.672 611.478H268.82V614.796H267.672V611.478ZM263.878 605.318H265.04V607.572H271.48V605.318H272.628V611.8H263.878V605.318ZM265.04 608.524V610.848H271.48V608.524H265.04ZM276.099 605.402H281.699V606.368H276.099V605.402ZM278.003 608.23H279.151V611.394H278.003V608.23ZM281.237 605.402H282.371V606.074C282.371 606.494 282.357 607.017 282.329 607.642C282.31 608.267 282.217 608.995 282.049 609.826L280.901 609.714C281.069 608.874 281.167 608.16 281.195 607.572C281.223 606.984 281.237 606.485 281.237 606.074V605.402ZM284.093 604.422H285.269V613.956H284.093V604.422ZM284.737 608.538H287.075V609.518H284.737V608.538ZM277.261 615.86H285.675V616.812H277.261V615.86ZM277.261 613.088H278.423V616.14H277.261V613.088ZM275.455 611.94L275.329 610.988C276.076 610.988 276.902 610.979 277.807 610.96C278.712 610.941 279.632 610.904 280.565 610.848C281.498 610.783 282.394 610.694 283.253 610.582L283.323 611.436C282.455 611.585 281.554 611.697 280.621 611.772C279.688 611.847 278.778 611.893 277.891 611.912C277.014 611.931 276.202 611.94 275.455 611.94ZM296.958 604.422H298.12V612.052H296.958V604.422ZM297.798 607.782H299.982V608.762H297.798V607.782ZM290.168 612.766H298.12V616.924H290.168V612.766ZM296.972 613.704H291.302V615.972H296.972V613.704ZM288.32 605.766H295.796V606.704H288.32V605.766ZM292.058 607.334C292.664 607.334 293.192 607.427 293.64 607.614C294.097 607.801 294.452 608.067 294.704 608.412C294.956 608.748 295.082 609.14 295.082 609.588C295.082 610.045 294.956 610.442 294.704 610.778C294.452 611.114 294.097 611.375 293.64 611.562C293.192 611.749 292.664 611.842 292.058 611.842C291.451 611.842 290.919 611.749 290.462 611.562C290.014 611.375 289.659 611.114 289.398 610.778C289.146 610.442 289.02 610.045 289.02 609.588C289.02 609.14 289.146 608.748 289.398 608.412C289.659 608.067 290.014 607.801 290.462 607.614C290.919 607.427 291.451 607.334 292.058 607.334ZM292.058 608.23C291.479 608.23 291.012 608.351 290.658 608.594C290.312 608.837 290.14 609.168 290.14 609.588C290.14 610.008 290.312 610.344 290.658 610.596C291.012 610.839 291.479 610.96 292.058 610.96C292.627 610.96 293.089 610.839 293.444 610.596C293.798 610.344 293.976 610.008 293.976 609.588C293.976 609.168 293.798 608.837 293.444 608.594C293.098 608.351 292.636 608.23 292.058 608.23ZM291.484 604.324H292.646V606.242H291.484V604.324ZM305.108 614.516H316.588V615.482H305.108V614.516ZM310.246 611.478H311.394V614.796H310.246V611.478ZM306.452 605.318H307.614V607.572H314.054V605.318H315.202V611.8H306.452V605.318ZM307.614 608.524V610.848H314.054V608.524H307.614ZM327.213 604.422H328.375V617.092H327.213V604.422ZM323.503 605.794H324.651C324.651 606.709 324.539 607.591 324.315 608.44C324.1 609.289 323.76 610.097 323.293 610.862C322.826 611.618 322.22 612.323 321.473 612.976C320.726 613.629 319.821 614.213 318.757 614.726L318.141 613.788C319.364 613.2 320.372 612.514 321.165 611.73C321.958 610.946 322.546 610.073 322.929 609.112C323.312 608.141 323.503 607.096 323.503 605.976V605.794ZM318.729 605.794H323.993V606.732H318.729V605.794Z" fill="#2563EB"/>
<path d="M329 636H33C28.5817 636 25 639.582 25 644V688C25 692.418 28.5817 696 33 696H329C333.418 696 337 692.418 337 688V644C337 639.582 333.418 636 329 636Z" fill="white" stroke="#E5E7EB"/>
<path d="M41.6 656.692H51.404V657.508H41.6V656.692ZM46.004 655.36H46.988V657.064H46.004V655.36ZM46.004 651.052H46.988V652.564H46.004V651.052ZM45.956 652.66H46.832V652.828C46.832 653.276 46.716 653.676 46.484 654.028C46.26 654.38 45.944 654.684 45.536 654.94C45.136 655.196 44.672 655.404 44.144 655.564C43.624 655.716 43.068 655.824 42.476 655.888L42.164 655.12C42.692 655.072 43.184 654.984 43.64 654.856C44.096 654.728 44.496 654.564 44.84 654.364C45.192 654.164 45.464 653.936 45.656 653.68C45.856 653.424 45.956 653.14 45.956 652.828V652.66ZM46.172 652.66H47.036V652.828C47.036 653.14 47.132 653.424 47.324 653.68C47.524 653.936 47.796 654.164 48.14 654.364C48.492 654.564 48.896 654.728 49.352 654.856C49.808 654.984 50.3 655.072 50.828 655.12L50.528 655.888C49.936 655.824 49.376 655.716 48.848 655.564C48.328 655.404 47.864 655.196 47.456 654.94C47.056 654.684 46.74 654.38 46.508 654.028C46.284 653.676 46.172 653.276 46.172 652.828V652.66ZM42.608 652.132H50.408V652.936H42.608V652.132ZM46.496 658.312C47.664 658.312 48.572 658.468 49.22 658.78C49.876 659.084 50.204 659.528 50.204 660.112C50.204 660.696 49.876 661.14 49.22 661.444C48.572 661.756 47.664 661.912 46.496 661.912C45.328 661.912 44.416 661.756 43.76 661.444C43.104 661.14 42.776 660.696 42.776 660.112C42.776 659.528 43.104 659.084 43.76 658.78C44.416 658.468 45.328 658.312 46.496 658.312ZM46.496 659.068C45.632 659.068 44.964 659.16 44.492 659.344C44.02 659.52 43.784 659.776 43.784 660.112C43.784 660.448 44.02 660.708 44.492 660.892C44.964 661.068 45.632 661.156 46.496 661.156C47.352 661.156 48.016 661.068 48.488 660.892C48.968 660.708 49.208 660.448 49.208 660.112C49.208 659.776 48.968 659.52 48.488 659.344C48.016 659.16 47.352 659.068 46.496 659.068ZM58.9061 652.564H59.6741V652.72C59.6741 653.16 59.5461 653.564 59.2901 653.932C59.0341 654.292 58.6781 654.596 58.2221 654.844C57.7661 655.092 57.2381 655.272 56.6381 655.384L56.2901 654.664C56.7941 654.576 57.2421 654.44 57.6341 654.256C58.0261 654.072 58.3341 653.848 58.5581 653.584C58.7901 653.32 58.9061 653.032 58.9061 652.72V652.564ZM59.1221 652.564H59.8901V652.72C59.8901 653.016 60.0021 653.288 60.2261 653.536C60.4581 653.784 60.7701 653.996 61.1621 654.172C61.5621 654.34 62.0061 654.464 62.4941 654.544L62.1461 655.276C61.5541 655.172 61.0301 655 60.5741 654.76C60.1261 654.52 59.7701 654.228 59.5061 653.884C59.2501 653.532 59.1221 653.144 59.1221 652.72V652.564ZM56.5421 652H62.2541V652.744H56.5421V652ZM58.9061 654.892H59.8901V656.44H58.9061V654.892ZM58.9061 651.052H59.8901V652.348H58.9061V651.052ZM57.3941 657.712H64.4261V660.064H58.4021V661.396H57.4181V659.356H63.4421V658.456H57.3941V657.712ZM57.4181 661.048H64.8341V661.816H57.4181V661.048ZM63.4301 651.076H64.4261V657.232H63.4301V651.076ZM64.0061 653.68H66.0101V654.496H64.0061V653.68ZM56.1221 656.896L56.0021 656.116C56.6501 656.116 57.3541 656.112 58.1141 656.104C58.8821 656.088 59.6661 656.056 60.4661 656.008C61.2661 655.96 62.0301 655.888 62.7581 655.792L62.8301 656.488C62.0701 656.616 61.2941 656.708 60.5021 656.764C59.7181 656.82 58.9501 656.856 58.1981 656.872C57.4461 656.888 56.7541 656.896 56.1221 656.896ZM71.9971 652.648H75.2971V653.452H71.9971V652.648ZM71.9971 655.144H75.2971V655.96H71.9971V655.144ZM70.0171 651.724C70.5451 651.724 71.0171 651.836 71.4331 652.06C71.8571 652.276 72.1891 652.58 72.4291 652.972C72.6771 653.356 72.8011 653.8 72.8011 654.304C72.8011 654.808 72.6771 655.256 72.4291 655.648C72.1891 656.032 71.8571 656.336 71.4331 656.56C71.0171 656.776 70.5451 656.884 70.0171 656.884C69.4811 656.884 69.0011 656.776 68.5771 656.56C68.1611 656.336 67.8291 656.032 67.5811 655.648C67.3411 655.256 67.2211 654.808 67.2211 654.304C67.2211 653.8 67.3411 653.356 67.5811 652.972C67.8291 652.58 68.1611 652.276 68.5771 652.06C69.0011 651.836 69.4811 651.724 70.0171 651.724ZM70.0171 652.576C69.6651 652.576 69.3491 652.648 69.0691 652.792C68.7891 652.936 68.5691 653.14 68.4091 653.404C68.2491 653.66 68.1691 653.96 68.1691 654.304C68.1691 654.64 68.2491 654.94 68.4091 655.204C68.5691 655.46 68.7891 655.664 69.0691 655.816C69.3491 655.96 69.6651 656.032 70.0171 656.032C70.3691 656.032 70.6811 655.96 70.9531 655.816C71.2331 655.664 71.4531 655.46 71.6131 655.204C71.7731 654.94 71.8531 654.64 71.8531 654.304C71.8531 653.96 71.7731 653.66 71.6131 653.404C71.4531 653.14 71.2331 652.936 70.9531 652.792C70.6811 652.648 70.3691 652.576 70.0171 652.576ZM74.9851 651.076H75.9811V657.496H74.9851V651.076ZM72.4051 657.76C73.1571 657.76 73.8011 657.844 74.3371 658.012C74.8731 658.172 75.2851 658.408 75.5731 658.72C75.8691 659.024 76.0171 659.396 76.0171 659.836C76.0171 660.268 75.8691 660.64 75.5731 660.952C75.2851 661.264 74.8731 661.5 74.3371 661.66C73.8011 661.828 73.1571 661.912 72.4051 661.912C71.6611 661.912 71.0171 661.828 70.4731 661.66C69.9371 661.5 69.5211 661.264 69.2251 660.952C68.9371 660.64 68.7931 660.268 68.7931 659.836C68.7931 659.396 68.9371 659.024 69.2251 658.72C69.5211 658.408 69.9371 658.172 70.4731 658.012C71.0171 657.844 71.6611 657.76 72.4051 657.76ZM72.4051 658.54C71.8611 658.54 71.3891 658.592 70.9891 658.696C70.5971 658.8 70.2931 658.948 70.0771 659.14C69.8691 659.332 69.7651 659.564 69.7651 659.836C69.7651 660.1 69.8691 660.328 70.0771 660.52C70.2931 660.712 70.5971 660.86 70.9891 660.964C71.3891 661.068 71.8611 661.12 72.4051 661.12C72.9571 661.12 73.4291 661.068 73.8211 660.964C74.2131 660.86 74.5131 660.712 74.7211 660.52C74.9371 660.328 75.0451 660.1 75.0451 659.836C75.0451 659.564 74.9371 659.332 74.7211 659.14C74.5131 658.948 74.2131 658.8 73.8211 658.696C73.4291 658.592 72.9571 658.54 72.4051 658.54Z" fill="#6B7280"/>
<path d="M48.5071 673.455V688H45.4318V676.374H45.3466L42.0156 678.462V675.734L45.6165 673.455H48.5071ZM57.2766 688.199C56.2728 688.199 55.378 688.014 54.592 687.645C53.8107 687.276 53.1905 686.767 52.7312 686.118C52.2719 685.469 52.0328 684.726 52.0138 683.888H54.9968C55.0299 684.451 55.2667 684.908 55.707 685.259C56.1474 685.609 56.6706 685.784 57.2766 685.784C57.7596 685.784 58.1857 685.678 58.555 685.464C58.9291 685.247 59.2203 684.946 59.4286 684.562C59.6417 684.174 59.7482 683.729 59.7482 683.227C59.7482 682.716 59.6393 682.266 59.4215 681.878C59.2085 681.49 58.9125 681.187 58.5337 680.969C58.1549 680.751 57.7217 680.64 57.234 680.635C56.8079 680.635 56.3936 680.723 55.9911 680.898C55.5934 681.073 55.2833 681.312 55.0607 681.615L52.3263 681.125L53.0153 673.455H61.9073V675.969H55.5508L55.1744 679.612H55.2596C55.5153 679.252 55.9012 678.954 56.4173 678.717C56.9334 678.481 57.511 678.362 58.1502 678.362C59.0262 678.362 59.8074 678.568 60.494 678.98C61.1805 679.392 61.7227 679.958 62.1204 680.678C62.5181 681.393 62.7146 682.216 62.7099 683.149C62.7146 684.129 62.4873 685 62.0281 685.763C61.5735 686.52 60.9367 687.117 60.1175 687.553C59.3031 687.983 58.3562 688.199 57.2766 688.199ZM64.8548 688V685.784L70.0323 680.99C70.4727 680.564 70.842 680.18 71.1403 679.839C71.4433 679.499 71.6729 679.165 71.8292 678.838C71.9854 678.507 72.0636 678.149 72.0636 677.766C72.0636 677.339 71.9665 676.973 71.7724 676.665C71.5782 676.352 71.3131 676.113 70.9769 675.947C70.6407 675.777 70.2596 675.692 69.8335 675.692C69.3884 675.692 69.0001 675.782 68.6687 675.962C68.3372 676.142 68.0816 676.4 67.9016 676.736C67.7217 677.072 67.6317 677.472 67.6317 677.936H64.7127C64.7127 676.984 64.9281 676.158 65.359 675.457C65.7899 674.757 66.3936 674.214 67.1701 673.831C67.9466 673.447 68.8415 673.256 69.8548 673.256C70.8964 673.256 71.8031 673.44 72.5749 673.81C73.3514 674.174 73.9551 674.681 74.386 675.33C74.8169 675.978 75.0323 676.722 75.0323 677.56C75.0323 678.109 74.9234 678.651 74.7056 679.186C74.4925 679.721 74.1114 680.315 73.5621 680.969C73.0129 681.617 72.2388 682.396 71.2397 683.305L69.1161 685.386V685.486H75.2241V688H64.8548Z" fill="#111827"/>
<path d="M121 646V686" stroke="#E5E7EB"/>
<path d="M142.212 652.144H147.204V659.212H142.212V652.144ZM146.244 652.936H143.196V658.408H146.244V652.936ZM149.484 651.076H150.48V661.948H149.484V651.076ZM158.387 654.076H161.135V654.892H158.387V654.076ZM160.571 651.088H161.567V659.044H160.571V651.088ZM154.643 660.88H161.867V661.696H154.643V660.88ZM154.643 658.336H155.627V661.288H154.643V658.336ZM155.399 652.432H156.215V653.308C156.215 653.964 156.087 654.584 155.831 655.168C155.583 655.744 155.231 656.248 154.775 656.68C154.319 657.104 153.791 657.432 153.191 657.664L152.675 656.86C153.075 656.716 153.439 656.524 153.767 656.284C154.103 656.044 154.395 655.768 154.643 655.456C154.891 655.144 155.079 654.804 155.207 654.436C155.335 654.068 155.399 653.692 155.399 653.308V652.432ZM155.591 652.432H156.407V653.308C156.407 653.772 156.515 654.224 156.731 654.664C156.947 655.104 157.255 655.496 157.655 655.84C158.055 656.176 158.515 656.436 159.035 656.62L158.531 657.412C157.939 657.196 157.423 656.884 156.983 656.476C156.543 656.06 156.199 655.58 155.951 655.036C155.711 654.492 155.591 653.916 155.591 653.308V652.432ZM152.987 651.964H158.783V652.78H152.987V651.964ZM168.082 654.88H169.066V656.896H168.082V654.88ZM168.07 651.244H168.922V651.736C168.922 652.12 168.846 652.484 168.694 652.828C168.542 653.172 168.326 653.488 168.046 653.776C167.774 654.064 167.458 654.32 167.098 654.544C166.738 654.76 166.35 654.948 165.934 655.108C165.518 655.26 165.086 655.372 164.638 655.444L164.266 654.652C164.65 654.596 165.026 654.508 165.394 654.388C165.77 654.26 166.118 654.108 166.438 653.932C166.758 653.748 167.038 653.54 167.278 653.308C167.526 653.076 167.718 652.828 167.854 652.564C167.998 652.3 168.07 652.024 168.07 651.736V651.244ZM168.226 651.244H169.078V651.736C169.078 652.024 169.146 652.3 169.282 652.564C169.418 652.828 169.61 653.076 169.858 653.308C170.106 653.532 170.39 653.736 170.71 653.92C171.03 654.104 171.374 654.26 171.742 654.388C172.118 654.508 172.498 654.596 172.882 654.652L172.498 655.444C172.058 655.372 171.63 655.26 171.214 655.108C170.806 654.948 170.418 654.756 170.05 654.532C169.69 654.308 169.37 654.056 169.09 653.776C168.818 653.488 168.606 653.176 168.454 652.84C168.302 652.496 168.226 652.128 168.226 651.736V651.244ZM163.678 656.464H173.482V657.268H163.678V656.464ZM168.574 658.156C169.734 658.156 170.642 658.32 171.298 658.648C171.954 658.976 172.282 659.44 172.282 660.04C172.282 660.64 171.954 661.1 171.298 661.42C170.642 661.748 169.734 661.912 168.574 661.912C167.406 661.912 166.494 661.748 165.838 661.42C165.182 661.1 164.854 660.64 164.854 660.04C164.854 659.44 165.182 658.976 165.838 658.648C166.494 658.32 167.406 658.156 168.574 658.156ZM168.574 658.936C167.718 658.936 167.05 659.032 166.57 659.224C166.098 659.408 165.862 659.68 165.862 660.04C165.862 660.392 166.098 660.664 166.57 660.856C167.05 661.048 167.718 661.144 168.574 661.144C169.422 661.144 170.086 661.048 170.566 660.856C171.046 660.664 171.286 660.392 171.286 660.04C171.286 659.68 171.046 659.408 170.566 659.224C170.086 659.032 169.422 658.936 168.574 658.936ZM186.348 651.076H187.296V661.936H186.348V651.076ZM184.512 655.432H186.6V656.248H184.512V655.432ZM183.888 651.316H184.812V661.372H183.888V651.316ZM178.476 658.42H179.184C179.72 658.42 180.204 658.416 180.636 658.408C181.076 658.392 181.492 658.36 181.884 658.312C182.284 658.264 182.692 658.196 183.108 658.108L183.204 658.936C182.772 659.024 182.352 659.092 181.944 659.14C181.544 659.188 181.12 659.22 180.672 659.236C180.232 659.252 179.736 659.26 179.184 659.26H178.476V658.42ZM178.476 652.396H182.508V653.212H179.472V658.804H178.476V652.396ZM197.039 651.076H198.035V661.936H197.039V651.076ZM193.859 652.252H194.843C194.843 653.036 194.747 653.792 194.555 654.52C194.371 655.248 194.079 655.94 193.679 656.596C193.279 657.244 192.759 657.848 192.119 658.408C191.479 658.968 190.703 659.468 189.791 659.908L189.263 659.104C190.311 658.6 191.175 658.012 191.855 657.34C192.535 656.668 193.039 655.92 193.367 655.096C193.695 654.264 193.859 653.368 193.859 652.408V652.252ZM189.767 652.252H194.279V653.056H189.767V652.252Z" fill="#6B7280"/>
<path d="M148.507 673.455V688H145.432V676.374H145.347L142.016 678.462V675.734L145.616 673.455H148.507ZM151.964 688V685.784L157.142 680.99C157.582 680.564 157.951 680.18 158.25 679.839C158.553 679.499 158.782 679.165 158.939 678.838C159.095 678.507 159.173 678.149 159.173 677.766C159.173 677.339 159.076 676.973 158.882 676.665C158.688 676.352 158.422 676.113 158.086 675.947C157.75 675.777 157.369 675.692 156.943 675.692C156.498 675.692 156.109 675.782 155.778 675.962C155.447 676.142 155.191 676.4 155.011 676.736C154.831 677.072 154.741 677.472 154.741 677.936H151.822C151.822 676.984 152.038 676.158 152.468 675.457C152.899 674.757 153.503 674.214 154.279 673.831C155.056 673.447 155.951 673.256 156.964 673.256C158.006 673.256 158.913 673.44 159.684 673.81C160.461 674.174 161.065 674.681 161.495 675.33C161.926 675.978 162.142 676.722 162.142 677.56C162.142 678.109 162.033 678.651 161.815 679.186C161.602 679.721 161.221 680.315 160.672 680.969C160.122 681.617 159.348 682.396 158.349 683.305L156.225 685.386V685.486H162.333V688H151.964Z" fill="#EF4444"/>
<path d="M231 646V686" stroke="#E5E7EB"/>
<path d="M257.348 654.076H260.096V654.892H257.348V654.076ZM259.532 651.088H260.528V659.044H259.532V651.088ZM253.604 660.88H260.828V661.696H253.604V660.88ZM253.604 658.336H254.588V661.288H253.604V658.336ZM254.36 652.432H255.176V653.308C255.176 653.964 255.048 654.584 254.792 655.168C254.544 655.744 254.192 656.248 253.736 656.68C253.28 657.104 252.752 657.432 252.152 657.664L251.636 656.86C252.036 656.716 252.4 656.524 252.728 656.284C253.064 656.044 253.356 655.768 253.604 655.456C253.852 655.144 254.04 654.804 254.168 654.436C254.296 654.068 254.36 653.692 254.36 653.308V652.432ZM254.552 652.432H255.368V653.308C255.368 653.772 255.476 654.224 255.692 654.664C255.908 655.104 256.216 655.496 256.616 655.84C257.016 656.176 257.476 656.436 257.996 656.62L257.492 657.412C256.9 657.196 256.384 656.884 255.944 656.476C255.504 656.06 255.16 655.58 254.912 655.036C254.672 654.492 254.552 653.916 254.552 653.308V652.432ZM251.948 651.964H257.744V652.78H251.948V651.964ZM267.043 654.88H268.027V656.896H267.043V654.88ZM267.031 651.244H267.883V651.736C267.883 652.12 267.807 652.484 267.655 652.828C267.503 653.172 267.287 653.488 267.007 653.776C266.735 654.064 266.419 654.32 266.059 654.544C265.699 654.76 265.311 654.948 264.895 655.108C264.479 655.26 264.047 655.372 263.599 655.444L263.227 654.652C263.611 654.596 263.987 654.508 264.355 654.388C264.731 654.26 265.079 654.108 265.399 653.932C265.719 653.748 265.999 653.54 266.239 653.308C266.487 653.076 266.679 652.828 266.815 652.564C266.959 652.3 267.031 652.024 267.031 651.736V651.244ZM267.187 651.244H268.039V651.736C268.039 652.024 268.107 652.3 268.243 652.564C268.379 652.828 268.571 653.076 268.819 653.308C269.067 653.532 269.351 653.736 269.671 653.92C269.991 654.104 270.335 654.26 270.703 654.388C271.079 654.508 271.459 654.596 271.843 654.652L271.459 655.444C271.019 655.372 270.591 655.26 270.175 655.108C269.767 654.948 269.379 654.756 269.011 654.532C268.651 654.308 268.331 654.056 268.051 653.776C267.779 653.488 267.567 653.176 267.415 652.84C267.263 652.496 267.187 652.128 267.187 651.736V651.244ZM262.639 656.464H272.443V657.268H262.639V656.464ZM267.535 658.156C268.695 658.156 269.603 658.32 270.259 658.648C270.915 658.976 271.243 659.44 271.243 660.04C271.243 660.64 270.915 661.1 270.259 661.42C269.603 661.748 268.695 661.912 267.535 661.912C266.367 661.912 265.455 661.748 264.799 661.42C264.143 661.1 263.815 660.64 263.815 660.04C263.815 659.44 264.143 658.976 264.799 658.648C265.455 658.32 266.367 658.156 267.535 658.156ZM267.535 658.936C266.679 658.936 266.011 659.032 265.531 659.224C265.059 659.408 264.823 659.68 264.823 660.04C264.823 660.392 265.059 660.664 265.531 660.856C266.011 661.048 266.679 661.144 267.535 661.144C268.383 661.144 269.047 661.048 269.527 660.856C270.007 660.664 270.247 660.392 270.247 660.04C270.247 659.68 270.007 659.408 269.527 659.224C269.047 659.032 268.383 658.936 267.535 658.936ZM279.861 655.588H280.857V657.232H279.861V655.588ZM280.329 651.58C280.849 651.58 281.309 651.672 281.709 651.856C282.117 652.032 282.433 652.28 282.657 652.6C282.889 652.92 283.005 653.292 283.005 653.716C283.005 654.14 282.889 654.516 282.657 654.844C282.433 655.164 282.117 655.416 281.709 655.6C281.309 655.776 280.849 655.864 280.329 655.864C279.809 655.864 279.345 655.776 278.937 655.6C278.537 655.416 278.221 655.164 277.989 654.844C277.765 654.516 277.653 654.14 277.653 653.716C277.653 653.292 277.765 652.92 277.989 652.6C278.221 652.28 278.537 652.032 278.937 651.856C279.345 651.672 279.809 651.58 280.329 651.58ZM280.329 652.348C279.993 652.348 279.693 652.404 279.429 652.516C279.165 652.628 278.957 652.788 278.805 652.996C278.661 653.204 278.589 653.444 278.589 653.716C278.589 653.988 278.661 654.228 278.805 654.436C278.957 654.644 279.165 654.808 279.429 654.928C279.693 655.04 279.993 655.096 280.329 655.096C280.673 655.096 280.973 655.04 281.229 654.928C281.493 654.808 281.697 654.644 281.841 654.436C281.993 654.228 282.069 653.988 282.069 653.716C282.069 653.444 281.993 653.204 281.841 652.996C281.697 652.788 281.493 652.628 281.229 652.516C280.973 652.404 280.673 652.348 280.329 652.348ZM284.469 651.088H285.465V659.392H284.469V651.088ZM285.045 654.748H287.049V655.588H285.045V654.748ZM278.601 660.868H285.849V661.684H278.601V660.868ZM278.601 658.684H279.597V661.228H278.601V658.684ZM277.161 657.784L277.041 656.956C277.673 656.956 278.369 656.952 279.129 656.944C279.897 656.928 280.681 656.896 281.481 656.848C282.281 656.792 283.049 656.708 283.785 656.596L283.857 657.328C283.105 657.464 282.329 657.564 281.529 657.628C280.737 657.692 279.965 657.736 279.213 657.76C278.469 657.776 277.785 657.784 277.161 657.784ZM290.84 657.436H291.812V660.1H290.84V657.436ZM294.308 657.424H295.28V660.088H294.308V657.424ZM288.092 659.764H297.932V660.592H288.092V659.764ZM289.292 651.88H296.708V655.168H290.3V657.34H289.316V654.364H295.724V652.696H289.292V651.88ZM289.316 656.908H296.96V657.724H289.316V656.908Z" fill="#6B7280"/>
<path d="M258.507 673.455V688H255.432V676.374H255.347L252.016 678.462V675.734L255.616 673.455H258.507ZM261.744 685.443V683.021L267.816 673.455H269.904V676.807H268.669L264.841 682.865V682.979H273.47V685.443H261.744ZM268.725 688V684.705L268.782 683.632V673.455H271.666V688H268.725ZM281.222 688.32C280 688.315 278.949 688.014 278.069 687.418C277.193 686.821 276.518 685.957 276.044 684.825C275.576 683.694 275.344 682.332 275.348 680.741C275.348 679.155 275.583 677.804 276.051 676.686C276.525 675.569 277.2 674.719 278.076 674.136C278.956 673.549 280.005 673.256 281.222 673.256C282.439 673.256 283.485 673.549 284.361 674.136C285.242 674.723 285.919 675.576 286.392 676.693C286.866 677.806 287.1 679.155 287.096 680.741C287.096 682.337 286.859 683.701 286.385 684.832C285.917 685.964 285.244 686.828 284.368 687.425C283.492 688.021 282.444 688.32 281.222 688.32ZM281.222 685.77C282.055 685.77 282.721 685.351 283.218 684.513C283.715 683.675 283.961 682.418 283.956 680.741C283.956 679.638 283.843 678.72 283.615 677.986C283.393 677.252 283.076 676.7 282.664 676.331C282.257 675.962 281.776 675.777 281.222 675.777C280.393 675.777 279.73 676.191 279.233 677.02C278.736 677.848 278.485 679.089 278.48 680.741C278.48 681.859 278.592 682.792 278.814 683.54C279.042 684.283 279.361 684.842 279.773 685.216C280.185 685.585 280.668 685.77 281.222 685.77Z" fill="#10B981"/>
<path d="M337 711H25V759H337V711Z" fill="#2563EB"/>
<path d="M90.5057 728.364V740H88.0455V730.699H87.9773L85.3125 732.369V730.188L88.1932 728.364H90.5057ZM93.2713 740V738.227L97.4134 734.392C97.7656 734.051 98.0611 733.744 98.2997 733.472C98.5421 733.199 98.7259 732.932 98.8509 732.67C98.9759 732.405 99.0384 732.119 99.0384 731.812C99.0384 731.472 98.9607 731.178 98.8054 730.932C98.6501 730.682 98.438 730.491 98.169 730.358C97.9001 730.222 97.5952 730.153 97.2543 730.153C96.8982 730.153 96.5876 730.225 96.3224 730.369C96.0573 730.513 95.8527 730.72 95.7088 730.989C95.5649 731.258 95.4929 731.578 95.4929 731.949H93.1577C93.1577 731.187 93.33 730.527 93.6747 729.966C94.0194 729.405 94.5024 728.972 95.1236 728.665C95.7448 728.358 96.4607 728.205 97.2713 728.205C98.1046 728.205 98.83 728.352 99.4474 728.648C100.069 728.939 100.552 729.345 100.896 729.864C101.241 730.383 101.413 730.977 101.413 731.648C101.413 732.087 101.326 732.521 101.152 732.949C100.982 733.377 100.677 733.852 100.237 734.375C99.7978 734.894 99.1785 735.517 98.3793 736.244L96.6804 737.909V737.989H101.567V740H93.2713ZM113.318 726.592H115.462V737.424H113.318V726.592ZM110.774 730.912H113.622V732.64H110.774V730.912ZM108.662 727.712H110.886C110.886 729.045 110.62 730.251 110.086 731.328C109.553 732.405 108.78 733.339 107.766 734.128C106.764 734.917 105.542 735.541 104.102 736L103.222 734.304C104.364 733.941 105.34 733.483 106.15 732.928C106.961 732.363 107.58 731.723 108.006 731.008C108.444 730.283 108.662 729.504 108.662 728.672V727.712ZM103.99 727.712H110.006V729.408H103.99V727.712ZM105.75 739.456H115.83V741.168H105.75V739.456ZM105.75 736.352H107.878V740.448H105.75V736.352ZM125.644 727.024C126.412 727.024 127.089 727.173 127.676 727.472C128.273 727.76 128.743 728.16 129.084 728.672C129.436 729.173 129.612 729.755 129.612 730.416C129.612 731.077 129.436 731.664 129.084 732.176C128.743 732.677 128.273 733.072 127.676 733.36C127.089 733.648 126.412 733.792 125.644 733.792C124.897 733.792 124.225 733.648 123.628 733.36C123.031 733.072 122.556 732.677 122.204 732.176C121.863 731.664 121.692 731.077 121.692 730.416C121.692 729.755 121.863 729.168 122.204 728.656C122.556 728.144 123.031 727.744 123.628 727.456C124.225 727.168 124.897 727.024 125.644 727.024ZM125.66 728.752C125.297 728.752 124.972 728.821 124.684 728.96C124.396 729.088 124.167 729.275 123.996 729.52C123.836 729.765 123.756 730.064 123.756 730.416C123.756 730.768 123.836 731.072 123.996 731.328C124.167 731.573 124.391 731.76 124.668 731.888C124.956 732.016 125.287 732.08 125.66 732.08C126.023 732.08 126.343 732.016 126.62 731.888C126.908 731.76 127.132 731.573 127.292 731.328C127.463 731.072 127.548 730.768 127.548 730.416C127.548 730.064 127.463 729.765 127.292 729.52C127.132 729.275 126.908 729.088 126.62 728.96C126.332 728.821 126.012 728.752 125.66 728.752ZM131.66 726.608H133.788V734.016H131.66V726.608ZM123.916 734.624H133.788V738.672H126.028V740.48H123.932V737.136H131.676V736.256H123.916V734.624ZM123.932 739.6H134.156V741.264H123.932V739.6ZM136.859 727.216H143.195V728.88H136.859V727.216ZM138.667 730.288H140.763V733.376H138.667V730.288ZM142.347 727.216H144.459V728.112C144.459 728.549 144.443 729.083 144.411 729.712C144.39 730.331 144.299 731.019 144.139 731.776L142.075 731.568C142.214 730.821 142.294 730.171 142.315 729.616C142.336 729.051 142.347 728.549 142.347 728.112V727.216ZM145.883 726.592H148.027V734.48H145.883V726.592ZM147.195 729.728H149.803V731.456H147.195V729.728ZM136.171 734.288L135.979 732.64C136.886 732.64 137.851 732.635 138.875 732.624C139.91 732.603 140.955 732.565 142.011 732.512C143.078 732.459 144.107 732.379 145.099 732.272L145.227 733.712C144.203 733.893 143.163 734.027 142.107 734.112C141.051 734.187 140.016 734.235 139.003 734.256C138 734.277 137.056 734.288 136.171 734.288ZM137.867 735.008H148.027V738.832H140.011V740.176H137.899V737.376H145.899V736.56H137.867V735.008ZM137.899 739.712H148.523V741.312H137.899V739.712ZM162.561 730.432H166.001V732.144H162.561V730.432ZM164.881 726.608H167.025V737.408H164.881V726.608ZM157.233 739.456H167.361V741.168H157.233V739.456ZM157.233 736.496H159.361V740.464H157.233V736.496ZM158.049 728.544H159.777V729.472C159.777 730.411 159.627 731.301 159.329 732.144C159.03 732.987 158.571 733.728 157.953 734.368C157.345 734.997 156.561 735.472 155.601 735.792L154.545 734.096C155.153 733.893 155.675 733.632 156.113 733.312C156.561 732.981 156.923 732.608 157.201 732.192C157.489 731.776 157.702 731.339 157.841 730.88C157.979 730.421 158.049 729.952 158.049 729.472V728.544ZM158.497 728.544H160.193V729.472C160.193 730.048 160.31 730.624 160.545 731.2C160.779 731.765 161.142 732.283 161.633 732.752C162.134 733.211 162.774 733.573 163.553 733.84L162.513 735.488C161.595 735.179 160.838 734.725 160.241 734.128C159.654 733.52 159.217 732.816 158.929 732.016C158.641 731.205 158.497 730.357 158.497 729.472V728.544ZM155.121 727.6H163.089V729.296H155.121V727.6ZM174.944 731.856H177.072V734.512H174.944V731.856ZM174.928 726.864H176.752V727.312C176.752 727.856 176.666 728.379 176.496 728.88C176.325 729.371 176.074 729.824 175.744 730.24C175.413 730.656 175.008 731.035 174.528 731.376C174.048 731.707 173.493 731.989 172.864 732.224C172.245 732.459 171.552 732.629 170.784 732.736L170 731.056C170.672 730.981 171.269 730.859 171.792 730.688C172.325 730.507 172.784 730.293 173.168 730.048C173.562 729.803 173.888 729.531 174.144 729.232C174.41 728.933 174.608 728.624 174.736 728.304C174.864 727.973 174.928 727.643 174.928 727.312V726.864ZM175.28 726.864H177.088V727.312C177.088 727.653 177.152 727.989 177.28 728.32C177.408 728.651 177.6 728.965 177.856 729.264C178.112 729.552 178.432 729.819 178.816 730.064C179.21 730.309 179.674 730.517 180.208 730.688C180.741 730.859 181.344 730.981 182.016 731.056L181.232 732.736C180.474 732.629 179.781 732.459 179.152 732.224C178.533 731.989 177.978 731.712 177.488 731.392C177.008 731.061 176.602 730.688 176.272 730.272C175.941 729.845 175.69 729.387 175.52 728.896C175.36 728.405 175.28 727.877 175.28 727.312V726.864ZM169.328 733.664H182.736V735.344H169.328V733.664ZM176 736.144C177.61 736.144 178.869 736.379 179.776 736.848C180.693 737.307 181.152 737.952 181.152 738.784C181.152 739.637 180.693 740.288 179.776 740.736C178.869 741.195 177.61 741.424 176 741.424C174.389 741.424 173.13 741.195 172.224 740.736C171.317 740.288 170.864 739.637 170.864 738.784C170.864 737.952 171.317 737.307 172.224 736.848C173.13 736.379 174.389 736.144 176 736.144ZM176 737.744C175.008 737.744 174.261 737.829 173.76 738C173.258 738.16 173.008 738.421 173.008 738.784C173.008 739.147 173.258 739.413 173.76 739.584C174.261 739.755 175.008 739.84 176 739.84C177.002 739.84 177.749 739.755 178.24 739.584C178.741 739.413 178.992 739.147 178.992 738.784C178.992 738.421 178.741 738.16 178.24 738C177.749 737.829 177.002 737.744 176 737.744ZM188.609 735.335C188.609 733.926 188.797 732.629 189.172 731.443C189.551 730.258 190.128 729.159 190.905 728.148H193.217C192.922 728.523 192.647 728.981 192.393 729.523C192.14 730.061 191.918 730.652 191.729 731.295C191.539 731.939 191.392 732.606 191.286 733.295C191.179 733.981 191.126 734.661 191.126 735.335C191.126 736.233 191.217 737.14 191.399 738.057C191.585 738.97 191.835 739.818 192.149 740.602C192.467 741.386 192.823 742.028 193.217 742.528H190.905C190.128 741.517 189.551 740.419 189.172 739.233C188.797 738.047 188.609 736.748 188.609 735.335ZM201.784 731.232H205.688V732.944H201.784V731.232ZM197.752 727.728H199.464V729.888C199.464 730.816 199.384 731.717 199.224 732.592C199.064 733.467 198.819 734.283 198.488 735.04C198.158 735.797 197.736 736.464 197.224 737.04C196.723 737.616 196.126 738.08 195.432 738.432L194.104 736.736C194.734 736.437 195.272 736.048 195.72 735.568C196.179 735.088 196.558 734.544 196.856 733.936C197.166 733.317 197.39 732.667 197.528 731.984C197.678 731.291 197.752 730.592 197.752 729.888V727.728ZM198.184 727.728H199.88V729.888C199.88 730.581 199.95 731.269 200.088 731.952C200.227 732.624 200.435 733.253 200.712 733.84C201 734.427 201.368 734.949 201.816 735.408C202.264 735.856 202.798 736.219 203.416 736.496L202.136 738.192C201.443 737.851 200.846 737.403 200.344 736.848C199.843 736.283 199.432 735.637 199.112 734.912C198.803 734.187 198.568 733.397 198.408 732.544C198.259 731.691 198.184 730.805 198.184 729.888V727.728ZM204.616 726.576H206.744V741.44H204.616V726.576ZM219.335 726.576H221.463V741.44H219.335V726.576ZM215.975 731.792H219.943V733.504H215.975V731.792ZM209.575 727.744H211.687V731.344H214.599V727.744H216.695V737.952H209.575V727.744ZM211.687 732.992V736.256H214.599V732.992H211.687ZM234.941 729.872H238.653V731.584H234.941V729.872ZM231.533 727.216C232.28 727.216 232.946 727.371 233.533 727.68C234.13 727.979 234.6 728.395 234.941 728.928C235.282 729.451 235.453 730.059 235.453 730.752C235.453 731.435 235.282 732.043 234.941 732.576C234.6 733.109 234.13 733.531 233.533 733.84C232.946 734.139 232.28 734.288 231.533 734.288C230.797 734.288 230.13 734.139 229.533 733.84C228.946 733.531 228.482 733.109 228.141 732.576C227.8 732.043 227.629 731.435 227.629 730.752C227.629 730.059 227.8 729.451 228.141 728.928C228.482 728.395 228.946 727.979 229.533 727.68C230.13 727.371 230.797 727.216 231.533 727.216ZM231.533 728.976C231.17 728.976 230.845 729.045 230.557 729.184C230.28 729.323 230.061 729.525 229.901 729.792C229.741 730.059 229.661 730.379 229.661 730.752C229.661 731.115 229.741 731.429 229.901 731.696C230.061 731.963 230.28 732.165 230.557 732.304C230.845 732.443 231.17 732.512 231.533 732.512C231.896 732.512 232.216 732.443 232.493 732.304C232.781 732.165 233.005 731.963 233.165 731.696C233.325 731.429 233.405 731.115 233.405 730.752C233.405 730.379 233.325 730.059 233.165 729.792C233.005 729.525 232.781 729.323 232.493 729.184C232.216 729.045 231.896 728.976 231.533 728.976ZM237.709 726.608H239.853V734.56H237.709V726.608ZM230.013 735.216H232.125V736.608H237.741V735.216H239.853V741.264H230.013V735.216ZM232.125 738.24V739.568H237.741V738.24H232.125ZM242.172 738.064H255.596V739.792H242.172V738.064ZM247.804 735.248H249.916V738.752H247.804V735.248ZM243.692 727.552H254.076V732.496H245.82V734.976H243.708V730.832H251.964V729.248H243.692V727.552ZM243.708 734.144H254.412V735.84H243.708V734.144ZM258.458 733.44H268.874V735.12H258.458V733.44ZM256.89 737.904H270.314V739.632H256.89V737.904ZM258.458 727.808H268.762V729.536H260.57V734.144H258.458V727.808ZM275.999 735.335C275.999 736.748 275.809 738.047 275.43 739.233C275.055 740.419 274.48 741.517 273.703 742.528H271.391C271.686 742.153 271.961 741.695 272.214 741.153C272.468 740.612 272.69 740.021 272.879 739.381C273.069 738.737 273.216 738.07 273.322 737.381C273.429 736.691 273.482 736.009 273.482 735.335C273.482 734.437 273.389 733.532 273.203 732.619C273.021 731.703 272.771 730.854 272.453 730.074C272.139 729.29 271.785 728.648 271.391 728.148H273.703C274.48 729.159 275.055 730.258 275.43 731.443C275.809 732.629 275.999 733.926 275.999 735.335Z" fill="white"/>
</svg>
