<svg width="362" height="782" viewBox="0 0 362 782" fill="none" xmlns="http://www.w3.org/2000/svg">
<path d="M361 1H1V781H361V1Z" fill="white" stroke="#D1D5DB" stroke-width="2"/>
<path d="M34.1335 50.7955L26.9744 43.6364L34.1335 36.4773L35.7812 38.1108L31.456 42.4361H41.5909V44.8366H31.456L35.7812 49.1548L34.1335 50.7955ZM53.6909 34.68H55.8309V37.36C55.8309 38.5067 55.7309 39.6267 55.5309 40.72C55.3309 41.8 55.0176 42.8067 54.5909 43.74C54.1776 44.6733 53.6509 45.5067 53.0109 46.24C52.3709 46.96 51.6176 47.5333 50.7509 47.96L49.1509 45.82C49.9376 45.46 50.6109 44.98 51.1709 44.38C51.7443 43.78 52.2176 43.1 52.5909 42.34C52.9643 41.58 53.2376 40.78 53.4109 39.94C53.5976 39.0867 53.6909 38.2267 53.6909 37.36V34.68ZM54.2109 34.68H56.3509V37.36C56.3509 38.2 56.4309 39.0267 56.5909 39.84C56.7643 40.6533 57.0243 41.4267 57.3709 42.16C57.7309 42.88 58.1776 43.5267 58.7109 44.1C59.2443 44.6733 59.8843 45.1467 60.6309 45.52L59.0109 47.64C58.1843 47.2133 57.4643 46.6533 56.8509 45.96C56.2509 45.2533 55.7576 44.4467 55.3709 43.54C54.9843 42.62 54.6909 41.64 54.4909 40.6C54.3043 39.5467 54.2109 38.4667 54.2109 37.36V34.68ZM61.3509 33.26H64.0309V51.78H61.3509V33.26ZM63.4509 40.38H66.7109V42.58H63.4509V40.38ZM72.4094 35.32H74.6094V36.88C74.6094 38.04 74.416 39.1467 74.0294 40.2C73.656 41.24 73.0827 42.1533 72.3094 42.94C71.536 43.7133 70.5494 44.2933 69.3494 44.68L67.9894 42.6C69.0294 42.2667 69.8694 41.8 70.5094 41.2C71.1627 40.6 71.6427 39.9267 71.9494 39.18C72.256 38.42 72.4094 37.6533 72.4094 36.88V35.32ZM72.9694 35.32H75.1294V36.88C75.1294 37.4267 75.216 37.9733 75.3894 38.52C75.5627 39.0533 75.8227 39.5667 76.1694 40.06C76.5294 40.54 76.9827 40.9733 77.5294 41.36C78.076 41.7467 78.7227 42.06 79.4694 42.3L78.1294 44.36C76.9694 43.9867 76.0094 43.4267 75.2494 42.68C74.4894 41.9333 73.916 41.06 73.5294 40.06C73.156 39.0467 72.9694 37.9867 72.9694 36.88V35.32ZM68.7094 34.56H78.7894V36.68H68.7094V34.56ZM80.6494 33.26H83.3094V46.62H80.6494V33.26ZM70.9694 49.32H83.7894V51.46H70.9694V49.32ZM70.9694 45.42H73.6294V50.38H70.9694V45.42ZM90.9567 47.46H107.737V49.62H90.9567V47.46ZM97.9967 43.5H100.637V47.98H97.9967V43.5ZM92.7167 34.42H95.3767V37.28H103.257V34.42H105.897V44.06H92.7167V34.42ZM95.3767 39.36V41.94H103.257V39.36H95.3767ZM110.175 34.6H118.095V36.72H110.175V34.6ZM112.455 38.92H115.075V43.54H112.455V38.92ZM117.055 34.6H119.675V35.76C119.675 36.4133 119.655 37.1933 119.615 38.1C119.588 38.9933 119.462 40.0267 119.235 41.2L116.655 40.9C116.855 39.7667 116.968 38.7867 116.995 37.96C117.035 37.1333 117.055 36.4 117.055 35.76V34.6ZM121.455 33.24H124.135V47.1H121.455V33.24ZM123.075 38.9H126.355V41.08H123.075V38.9ZM111.775 49.32H124.735V51.46H111.775V49.32ZM111.775 45.88H114.455V49.98H111.775V45.88ZM109.315 44.64L109.075 42.52C110.142 42.52 111.322 42.5133 112.615 42.5C113.908 42.4733 115.228 42.42 116.575 42.34C117.922 42.2467 119.215 42.1133 120.455 41.94L120.635 43.84C119.355 44.0667 118.048 44.24 116.715 44.36C115.382 44.4667 114.082 44.54 112.815 44.58C111.548 44.6067 110.382 44.6267 109.315 44.64ZM139.654 33.26H142.314V44.4H139.654V33.26ZM141.594 37.82H144.774V40H141.594V37.82ZM130.274 45.22H142.314V51.58H130.274V45.22ZM139.714 47.3H132.894V49.48H139.714V47.3ZM127.754 34.9H138.634V37H127.754V34.9ZM133.194 37.56C134.1 37.56 134.894 37.7 135.574 37.98C136.254 38.26 136.787 38.6533 137.174 39.16C137.56 39.6533 137.754 40.2333 137.754 40.9C137.754 41.5533 137.56 42.1333 137.174 42.64C136.787 43.1333 136.254 43.52 135.574 43.8C134.894 44.08 134.1 44.22 133.194 44.22C132.3 44.22 131.507 44.08 130.814 43.8C130.134 43.52 129.6 43.1333 129.214 42.64C128.827 42.1333 128.634 41.5533 128.634 40.9C128.634 40.2333 128.827 39.6533 129.214 39.16C129.6 38.6533 130.134 38.26 130.814 37.98C131.507 37.7 132.3 37.56 133.194 37.56ZM133.194 39.52C132.607 39.52 132.127 39.64 131.754 39.88C131.38 40.1067 131.194 40.4467 131.194 40.9C131.194 41.3533 131.38 41.7 131.754 41.94C132.127 42.1667 132.607 42.28 133.194 42.28C133.794 42.28 134.274 42.1667 134.634 41.94C135.007 41.7 135.194 41.3533 135.194 40.9C135.194 40.4467 135.007 40.1067 134.634 39.88C134.274 39.64 133.794 39.52 133.194 39.52ZM131.874 33.12H134.514V36.04H131.874V33.12Z" fill="#111827"/>
<path d="M1 71H361" stroke="#F3F4F6" stroke-width="2"/>
<path d="M30.502 96.562H32.35V99.516H30.502V96.562ZM31.426 89.94C32.35 89.94 33.176 90.0893 33.904 90.388C34.6413 90.6773 35.22 91.088 35.64 91.62C36.06 92.152 36.27 92.782 36.27 93.51C36.27 94.2287 36.06 94.8587 35.64 95.4C35.22 95.9413 34.6413 96.3613 33.904 96.66C33.176 96.9493 32.35 97.094 31.426 97.094C30.5113 97.094 29.6853 96.9493 28.948 96.66C28.22 96.3613 27.6413 95.9413 27.212 95.4C26.792 94.8587 26.582 94.2287 26.582 93.51C26.582 92.782 26.792 92.152 27.212 91.62C27.6413 91.088 28.22 90.6773 28.948 90.388C29.6853 90.0893 30.5113 89.94 31.426 89.94ZM31.426 91.41C30.838 91.41 30.3153 91.494 29.858 91.662C29.41 91.83 29.0553 92.068 28.794 92.376C28.542 92.684 28.416 93.062 28.416 93.51C28.416 93.9487 28.542 94.3267 28.794 94.644C29.0553 94.952 29.41 95.19 29.858 95.358C30.3153 95.526 30.838 95.61 31.426 95.61C32.0233 95.61 32.546 95.526 32.994 95.358C33.4513 95.19 33.806 94.952 34.058 94.644C34.31 94.3267 34.436 93.9487 34.436 93.51C34.436 93.062 34.31 92.684 34.058 92.376C33.806 92.068 33.4513 91.83 32.994 91.662C32.546 91.494 32.0233 91.41 31.426 91.41ZM25.574 99.222H37.32V100.734H25.574V99.222ZM39.8949 91.858H48.8409V93.328H39.8949V91.858ZM38.4529 94.182H50.1849V95.652H38.4529V94.182ZM39.8949 89.408H41.7429V92.642H39.8949V89.408ZM39.7689 96.436H48.7989V99.88H41.6589V101.014H39.7829V98.564H46.9369V97.836H39.7689V96.436ZM39.7829 100.692H49.1769V102.106H39.7829V100.692ZM59.458 89.646H61.082V90.262C61.082 90.7567 61.0027 91.2373 60.844 91.704C60.6947 92.1613 60.4707 92.5907 60.172 92.992C59.8734 93.3933 59.5094 93.7527 59.08 94.07C58.6507 94.3873 58.1514 94.658 57.582 94.882C57.022 95.0967 56.406 95.26 55.734 95.372L55.006 93.874C55.6034 93.7993 56.1354 93.6733 56.602 93.496C57.078 93.3187 57.4934 93.1087 57.848 92.866C58.212 92.6233 58.5107 92.3573 58.744 92.068C58.9774 91.7787 59.1547 91.48 59.276 91.172C59.3974 90.864 59.458 90.5607 59.458 90.262V89.646ZM59.808 89.646H61.432V90.262C61.432 90.5607 61.4927 90.864 61.614 91.172C61.7354 91.48 61.9127 91.7787 62.146 92.068C62.3794 92.3573 62.6734 92.6233 63.028 92.866C63.392 93.1087 63.8074 93.3187 64.274 93.496C64.75 93.6733 65.2867 93.7993 65.884 93.874L65.156 95.372C64.4747 95.26 63.854 95.0967 63.294 94.882C62.734 94.658 62.2394 94.3873 61.81 94.07C61.3807 93.7433 61.0167 93.3793 60.718 92.978C60.4194 92.5767 60.1907 92.1473 60.032 91.69C59.8827 91.2327 59.808 90.7567 59.808 90.262V89.646ZM59.458 97.486H61.32V102.246H59.458V97.486ZM54.572 96.31H66.304V97.822H54.572V96.31ZM70.587 90.388H72.113V91.186C72.113 91.9607 71.9776 92.698 71.707 93.398C71.4456 94.098 71.0396 94.7047 70.489 95.218C69.9476 95.7313 69.257 96.1187 68.417 96.38L67.493 94.924C68.0343 94.7653 68.4963 94.5553 68.879 94.294C69.271 94.0233 69.593 93.7247 69.845 93.398C70.097 93.062 70.2836 92.7073 70.405 92.334C70.5263 91.9513 70.587 91.5687 70.587 91.186V90.388ZM70.979 90.388H72.491V91.186C72.491 91.55 72.5516 91.9093 72.673 92.264C72.7943 92.6093 72.9763 92.9407 73.219 93.258C73.471 93.5753 73.7883 93.86 74.171 94.112C74.5536 94.3547 75.011 94.5553 75.543 94.714L74.619 96.156C73.807 95.9133 73.1303 95.5493 72.589 95.064C72.0476 94.5693 71.6416 93.986 71.371 93.314C71.1096 92.642 70.979 91.9327 70.979 91.186V90.388ZM67.997 89.968H75.053V91.438H67.997V89.968ZM76.355 89.282H78.217V96.31H76.355V89.282ZM69.607 96.87H71.441V98.046H76.369V96.87H78.217V102.106H69.607V96.87ZM71.441 99.474V100.608H76.369V99.474H71.441ZM88.6599 89.282H90.5219V98.97H88.6599V89.282ZM90.0039 93.23H92.2439V94.77H90.0039V93.23ZM80.3299 90.64H87.9459V92.096H80.3299V90.64ZM84.1379 92.558C84.7632 92.558 85.3139 92.6653 85.7899 92.88C86.2752 93.0853 86.6532 93.3793 86.9239 93.762C87.1945 94.1353 87.3299 94.5647 87.3299 95.05C87.3299 95.5447 87.1945 95.9833 86.9239 96.366C86.6532 96.7393 86.2752 97.0333 85.7899 97.248C85.3139 97.4533 84.7632 97.556 84.1379 97.556C83.5219 97.556 82.9712 97.4533 82.4859 97.248C82.0005 97.0333 81.6225 96.7393 81.3519 96.366C81.0812 95.9833 80.9459 95.5447 80.9459 95.05C80.9459 94.5647 81.0812 94.1353 81.3519 93.762C81.6225 93.3793 82.0005 93.0853 82.4859 92.88C82.9712 92.6653 83.5219 92.558 84.1379 92.558ZM84.1379 93.972C83.7272 93.972 83.3912 94.0653 83.1299 94.252C82.8685 94.4387 82.7379 94.7093 82.7379 95.064C82.7379 95.4093 82.8685 95.6753 83.1299 95.862C83.3912 96.0487 83.7272 96.142 84.1379 96.142C84.5579 96.142 84.8939 96.0487 85.1459 95.862C85.4072 95.6753 85.5379 95.4093 85.5379 95.064C85.5379 94.7093 85.4072 94.4387 85.1459 94.252C84.8939 94.0653 84.5579 93.972 84.1379 93.972ZM83.2139 89.268H85.0619V91.34H83.2139V89.268ZM82.1639 100.524H90.9839V102.022H82.1639V100.524ZM82.1639 98.242H84.0399V101.168H82.1639V98.242ZM105.815 89.268H107.579V102.232H105.815V89.268ZM100.887 94H103.897V95.498H100.887V94ZM103.127 89.506H104.863V101.672H103.127V89.506ZM96.813 97.836H97.723C98.3297 97.836 98.8803 97.8267 99.375 97.808C99.879 97.7893 100.355 97.7567 100.803 97.71C101.26 97.6633 101.722 97.5933 102.189 97.5L102.343 99.012C101.858 99.1147 101.382 99.1893 100.915 99.236C100.448 99.2827 99.9537 99.3153 99.431 99.334C98.9177 99.3527 98.3483 99.362 97.723 99.362H96.813V97.836ZM96.813 90.738H101.769V92.208H98.647V98.48H96.813V90.738ZM118.218 89.254H120.08V102.26H118.218V89.254ZM113.094 90.164C113.757 90.164 114.345 90.3553 114.858 90.738C115.371 91.1113 115.773 91.648 116.062 92.348C116.361 93.0387 116.51 93.8553 116.51 94.798C116.51 95.75 116.361 96.576 116.062 97.276C115.773 97.9667 115.371 98.5033 114.858 98.886C114.345 99.2593 113.757 99.446 113.094 99.446C112.441 99.446 111.857 99.2593 111.344 98.886C110.831 98.5033 110.425 97.9667 110.126 97.276C109.837 96.576 109.692 95.75 109.692 94.798C109.692 93.8553 109.837 93.0387 110.126 92.348C110.425 91.648 110.831 91.1113 111.344 90.738C111.857 90.3553 112.441 90.164 113.094 90.164ZM113.094 91.858C112.777 91.858 112.497 91.97 112.254 92.194C112.011 92.418 111.82 92.7493 111.68 93.188C111.549 93.6173 111.484 94.154 111.484 94.798C111.484 95.4327 111.549 95.974 111.68 96.422C111.82 96.8607 112.011 97.192 112.254 97.416C112.497 97.64 112.777 97.752 113.094 97.752C113.421 97.752 113.705 97.64 113.948 97.416C114.191 97.192 114.377 96.8607 114.508 96.422C114.648 95.974 114.718 95.4327 114.718 94.798C114.718 94.154 114.648 93.6173 114.508 93.188C114.377 92.7493 114.191 92.418 113.948 92.194C113.705 91.97 113.421 91.858 113.094 91.858ZM131.223 89.254H133.085V102.26H131.223V89.254ZM128.997 93.832H131.447V95.344H128.997V93.832ZM122.781 97.836H123.831C124.549 97.836 125.212 97.8267 125.819 97.808C126.435 97.7893 127.032 97.7567 127.611 97.71C128.189 97.6633 128.782 97.598 129.389 97.514L129.571 98.984C128.945 99.0867 128.329 99.1613 127.723 99.208C127.125 99.2547 126.509 99.2873 125.875 99.306C125.24 99.3247 124.559 99.334 123.831 99.334H122.781V97.836ZM122.781 90.346H128.787V91.858H124.643V98.298H122.781V90.346ZM124.209 93.958H128.353V95.414H124.209V93.958ZM139.064 95.9091C139.064 94.6761 139.229 93.541 139.557 92.5036C139.888 91.4661 140.394 90.505 141.073 89.62H143.096C142.838 89.9482 142.598 90.3492 142.376 90.8232C142.153 91.2938 141.96 91.8108 141.794 92.3743C141.628 92.9377 141.499 93.5211 141.406 94.1243C141.313 94.7242 141.267 95.3191 141.267 95.9091C141.267 96.6946 141.346 97.4884 141.506 98.2905C141.668 99.0893 141.887 99.8317 142.162 100.518C142.44 101.204 142.752 101.766 143.096 102.203H141.073C140.394 101.318 139.888 100.357 139.557 99.3196C139.229 98.2822 139.064 97.1454 139.064 95.9091ZM148.735 90.8182V101H146.583V92.8615H146.523L144.191 94.3232V92.4141L146.712 90.8182H148.735ZM154.874 101.139C154.171 101.139 153.545 101.01 152.995 100.751C152.448 100.493 152.014 100.137 151.692 99.6825C151.371 99.2285 151.203 98.7081 151.19 98.1214H153.278C153.301 98.5159 153.467 98.8357 153.775 99.081C154.084 99.3262 154.45 99.4489 154.874 99.4489C155.212 99.4489 155.51 99.3743 155.769 99.2251C156.031 99.0727 156.235 98.8622 156.381 98.5938C156.53 98.322 156.604 98.0104 156.604 97.6591C156.604 97.3011 156.528 96.9863 156.376 96.7145C156.226 96.4427 156.019 96.2306 155.754 96.0781C155.489 95.9257 155.186 95.8478 154.844 95.8445C154.546 95.8445 154.256 95.9058 153.974 96.0284C153.696 96.151 153.479 96.3184 153.323 96.5305L151.409 96.1875L151.891 90.8182H158.116V92.5781H153.666L153.403 95.1286H153.462C153.641 94.8767 153.911 94.6679 154.273 94.5021C154.634 94.3364 155.038 94.2536 155.486 94.2536C156.099 94.2536 156.646 94.3977 157.126 94.6861C157.607 94.9744 157.986 95.3705 158.265 95.8743C158.543 96.3748 158.681 96.9515 158.677 97.6044C158.681 98.2905 158.522 98.9003 158.2 99.4339C157.882 99.9643 157.436 100.382 156.863 100.687C156.293 100.988 155.63 101.139 154.874 101.139ZM160.179 101V99.4489L163.803 96.093C164.111 95.7947 164.37 95.5263 164.579 95.2876C164.791 95.049 164.952 94.8153 165.061 94.5866C165.17 94.3546 165.225 94.1044 165.225 93.8359C165.225 93.5376 165.157 93.2808 165.021 93.0653C164.885 92.8466 164.7 92.6792 164.464 92.5632C164.229 92.4439 163.962 92.3842 163.664 92.3842C163.352 92.3842 163.081 92.4472 162.849 92.5732C162.617 92.6991 162.438 92.8797 162.312 93.1151C162.186 93.3504 162.123 93.6304 162.123 93.9553H160.079C160.079 93.2891 160.23 92.7107 160.532 92.2202C160.833 91.7296 161.256 91.3501 161.8 91.0817C162.343 90.8132 162.97 90.679 163.679 90.679C164.408 90.679 165.043 90.8082 165.583 91.0668C166.126 91.322 166.549 91.6766 166.851 92.1307C167.152 92.5848 167.303 93.1051 167.303 93.6918C167.303 94.0762 167.227 94.4557 167.074 94.8303C166.925 95.2048 166.658 95.6207 166.274 96.0781C165.89 96.5322 165.348 97.0774 164.648 97.7138L163.162 99.1705V99.2401H167.437V101H160.179ZM172.587 95.9091C172.587 97.1454 172.421 98.2822 172.089 99.3196C171.761 100.357 171.258 101.318 170.578 102.203H168.555C168.813 101.875 169.054 101.474 169.276 101C169.498 100.526 169.692 100.009 169.857 99.4489C170.023 98.8854 170.152 98.3021 170.245 97.6989C170.338 97.0956 170.384 96.4991 170.384 95.9091C170.384 95.1236 170.303 94.3314 170.141 93.5327C169.982 92.7306 169.763 91.9882 169.484 91.3054C169.209 90.6193 168.899 90.0575 168.555 89.62H170.578C171.258 90.505 171.761 91.4661 172.089 92.5036C172.421 93.541 172.587 94.6761 172.587 95.9091Z" fill="#6B7280"/>
<path d="M345 121H17V221H345V121Z" fill="white" stroke="#E5E7EB"/>
<path d="M93 137H41C36.5817 137 33 140.582 33 145V197C33 201.418 36.5817 205 41 205H93C97.4183 205 101 201.418 101 197V145C101 140.582 97.4183 137 93 137Z" fill="#E5E7EB"/>
<path d="M57 177.4H77V157.4H57V177.4Z" fill="black"/>
<path d="M120.972 140.273V149H119.915V141.381H119.864L117.733 142.795V141.722L119.915 140.273H120.972ZM126.328 149.119C125.686 149.119 125.139 148.945 124.688 148.595C124.236 148.243 123.891 147.733 123.652 147.065C123.413 146.395 123.294 145.585 123.294 144.636C123.294 143.693 123.413 142.888 123.652 142.22C123.893 141.55 124.24 141.038 124.692 140.686C125.146 140.331 125.692 140.153 126.328 140.153C126.964 140.153 127.509 140.331 127.96 140.686C128.415 141.038 128.761 141.55 129 142.22C129.241 142.888 129.362 143.693 129.362 144.636C129.362 145.585 129.243 146.395 129.004 147.065C128.766 147.733 128.42 148.243 127.969 148.595C127.517 148.945 126.97 149.119 126.328 149.119ZM126.328 148.182C126.964 148.182 127.459 147.875 127.811 147.261C128.163 146.648 128.339 145.773 128.339 144.636C128.339 143.881 128.259 143.237 128.097 142.706C127.938 142.175 127.707 141.77 127.406 141.491C127.108 141.213 126.749 141.074 126.328 141.074C125.697 141.074 125.205 141.385 124.849 142.007C124.494 142.626 124.317 143.503 124.317 144.636C124.317 145.392 124.396 146.034 124.555 146.562C124.714 147.091 124.943 147.493 125.241 147.768C125.543 148.044 125.905 148.182 126.328 148.182ZM131.732 147.884C131.521 147.884 131.341 147.808 131.19 147.658C131.04 147.507 130.964 147.327 130.964 147.116C130.964 146.906 131.04 146.726 131.19 146.575C131.341 146.425 131.521 146.349 131.732 146.349C131.942 146.349 132.122 146.425 132.273 146.575C132.423 146.726 132.499 146.906 132.499 147.116C132.499 147.256 132.463 147.384 132.392 147.5C132.324 147.616 132.232 147.71 132.115 147.781C132.001 147.849 131.874 147.884 131.732 147.884ZM131.732 143.469C131.521 143.469 131.341 143.393 131.19 143.243C131.04 143.092 130.964 142.912 130.964 142.702C130.964 142.491 131.04 142.311 131.19 142.161C131.341 142.01 131.521 141.935 131.732 141.935C131.942 141.935 132.122 142.01 132.273 142.161C132.423 142.311 132.499 142.491 132.499 142.702C132.499 142.841 132.463 142.969 132.392 143.085C132.324 143.202 132.232 143.295 132.115 143.366C132.001 143.435 131.874 143.469 131.732 143.469ZM137.133 149.119C136.491 149.119 135.944 148.945 135.492 148.595C135.04 148.243 134.695 147.733 134.457 147.065C134.218 146.395 134.099 145.585 134.099 144.636C134.099 143.693 134.218 142.888 134.457 142.22C134.698 141.55 135.045 141.038 135.496 140.686C135.951 140.331 136.496 140.153 137.133 140.153C137.769 140.153 138.313 140.331 138.765 140.686C139.219 141.038 139.566 141.55 139.805 142.22C140.046 142.888 140.167 143.693 140.167 144.636C140.167 145.585 140.048 146.395 139.809 147.065C139.57 147.733 139.225 148.243 138.773 148.595C138.322 148.945 137.775 149.119 137.133 149.119ZM137.133 148.182C137.769 148.182 138.263 147.875 138.616 147.261C138.968 146.648 139.144 145.773 139.144 144.636C139.144 143.881 139.063 143.237 138.901 142.706C138.742 142.175 138.512 141.77 138.211 141.491C137.913 141.213 137.553 141.074 137.133 141.074C136.502 141.074 136.009 141.385 135.654 142.007C135.299 142.626 135.121 143.503 135.121 144.636C135.121 145.392 135.201 146.034 135.36 146.562C135.519 147.091 135.748 147.493 136.046 147.768C136.347 148.044 136.71 148.182 137.133 148.182ZM144.513 149.119C144.013 149.119 143.563 149.02 143.163 148.821C142.762 148.622 142.441 148.349 142.2 148.003C141.958 147.656 141.826 147.261 141.803 146.818H142.826C142.866 147.213 143.045 147.54 143.363 147.798C143.684 148.054 144.067 148.182 144.513 148.182C144.871 148.182 145.19 148.098 145.468 147.93C145.749 147.763 145.969 147.533 146.129 147.24C146.29 146.945 146.371 146.611 146.371 146.239C146.371 145.858 146.288 145.518 146.12 145.22C145.955 144.919 145.728 144.682 145.438 144.509C145.148 144.335 144.817 144.247 144.445 144.244C144.178 144.241 143.904 144.283 143.623 144.368C143.342 144.45 143.11 144.557 142.928 144.688L141.94 144.568L142.468 140.273H147.002V141.21H143.354L143.048 143.784H143.099C143.278 143.642 143.502 143.524 143.772 143.43C144.042 143.337 144.323 143.29 144.616 143.29C145.15 143.29 145.626 143.418 146.043 143.673C146.464 143.926 146.793 144.273 147.032 144.713C147.273 145.153 147.394 145.656 147.394 146.222C147.394 146.778 147.269 147.276 147.019 147.713C146.772 148.148 146.431 148.491 145.996 148.744C145.562 148.994 145.067 149.119 144.513 149.119ZM153.945 137.46V151.812H153.093V137.46H153.945ZM159.951 144.656H160.779C161.515 144.656 162.155 144.648 162.699 144.632C163.243 144.616 163.743 144.588 164.199 144.548C164.663 144.5 165.135 144.436 165.615 144.356L165.723 145.148C165.235 145.244 164.751 145.316 164.271 145.364C163.799 145.404 163.283 145.432 162.723 145.448C162.171 145.464 161.523 145.472 160.779 145.472H159.951V144.656ZM159.951 139.952H164.907V140.756H160.947V144.932H159.951V139.952ZM160.623 142.256H164.715V143.06H160.623V142.256ZM166.887 139.076H167.883V147.116H166.887V139.076ZM167.571 142.448H169.479V143.276H167.571V142.448ZM161.127 148.88H168.363V149.696H161.127V148.88ZM161.127 146.396H162.111V149.312H161.127V146.396ZM173.162 139.736H173.99V141.068C173.99 141.78 173.866 142.436 173.618 143.036C173.37 143.628 173.022 144.144 172.574 144.584C172.126 145.024 171.598 145.36 170.99 145.592L170.45 144.8C171.002 144.608 171.482 144.328 171.89 143.96C172.298 143.584 172.61 143.148 172.826 142.652C173.05 142.156 173.162 141.628 173.162 141.068V139.736ZM173.342 139.736H174.146V141.104C174.146 141.472 174.21 141.832 174.338 142.184C174.474 142.536 174.658 142.868 174.89 143.18C175.13 143.484 175.41 143.752 175.73 143.984C176.058 144.208 176.422 144.392 176.822 144.536L176.318 145.328C175.726 145.104 175.206 144.784 174.758 144.368C174.31 143.952 173.962 143.464 173.714 142.904C173.466 142.344 173.342 141.744 173.342 141.104V139.736ZM177.926 139.076H178.922V147.092H177.926V139.076ZM178.61 142.4H180.518V143.24H178.61V142.4ZM172.178 148.88H179.402V149.696H172.178V148.88ZM172.178 146.324H173.186V149.276H172.178V146.324ZM184.346 145.544H185.342V147.308H184.346V145.544ZM188.906 139.076H189.902V149.936H188.906V139.076ZM189.59 143.684H191.594V144.524H189.59V143.684ZM181.562 147.872L181.406 147.032C182.062 147.032 182.774 147.028 183.542 147.02C184.318 147.004 185.11 146.972 185.918 146.924C186.726 146.876 187.506 146.8 188.258 146.696L188.33 147.428C187.554 147.564 186.762 147.664 185.954 147.728C185.154 147.792 184.378 147.832 183.626 147.848C182.882 147.864 182.194 147.872 181.562 147.872ZM181.598 140.396H188.078V141.2H181.598V140.396ZM184.85 141.824C185.354 141.824 185.798 141.908 186.182 142.076C186.566 142.244 186.866 142.48 187.082 142.784C187.298 143.08 187.406 143.432 187.406 143.84C187.406 144.24 187.298 144.592 187.082 144.896C186.866 145.2 186.566 145.436 186.182 145.604C185.798 145.764 185.354 145.844 184.85 145.844C184.346 145.844 183.898 145.764 183.506 145.604C183.122 145.436 182.822 145.2 182.606 144.896C182.398 144.592 182.294 144.24 182.294 143.84C182.294 143.432 182.398 143.08 182.606 142.784C182.822 142.48 183.122 142.244 183.506 142.076C183.898 141.908 184.346 141.824 184.85 141.824ZM184.85 142.604C184.362 142.604 183.97 142.716 183.674 142.94C183.378 143.164 183.23 143.464 183.23 143.84C183.23 144.208 183.378 144.504 183.674 144.728C183.97 144.952 184.362 145.064 184.85 145.064C185.33 145.064 185.718 144.952 186.014 144.728C186.31 144.504 186.458 144.208 186.458 143.84C186.458 143.464 186.31 143.164 186.014 142.94C185.718 142.716 185.33 142.604 184.85 142.604ZM184.346 139.1H185.342V140.924H184.346V139.1ZM195.952 147.716H205.792V148.544H195.952V147.716ZM200.368 145.088H201.364V147.992H200.368V145.088ZM200.344 140.456H201.196V141.116C201.196 141.564 201.112 141.988 200.944 142.388C200.784 142.78 200.56 143.148 200.272 143.492C199.992 143.828 199.664 144.128 199.288 144.392C198.92 144.648 198.524 144.872 198.1 145.064C197.684 145.248 197.264 145.384 196.84 145.472L196.432 144.68C196.8 144.616 197.172 144.508 197.548 144.356C197.924 144.196 198.276 144.004 198.604 143.78C198.94 143.556 199.236 143.304 199.492 143.024C199.756 142.744 199.964 142.444 200.116 142.124C200.268 141.804 200.344 141.468 200.344 141.116V140.456ZM200.536 140.456H201.376V141.116C201.376 141.468 201.452 141.804 201.604 142.124C201.756 142.436 201.964 142.732 202.228 143.012C202.492 143.292 202.792 143.544 203.128 143.768C203.464 143.984 203.82 144.168 204.196 144.32C204.58 144.472 204.96 144.576 205.336 144.632L204.928 145.424C204.496 145.336 204.068 145.204 203.644 145.028C203.22 144.844 202.82 144.624 202.444 144.368C202.076 144.104 201.748 143.808 201.46 143.48C201.172 143.144 200.944 142.78 200.776 142.388C200.616 141.988 200.536 141.564 200.536 141.116V140.456ZM196.768 140.06H204.952V140.888H196.768V140.06ZM209.643 140.012H210.459V141.956C210.459 142.556 210.383 143.144 210.231 143.72C210.087 144.296 209.879 144.836 209.607 145.34C209.335 145.844 209.015 146.292 208.647 146.684C208.279 147.076 207.879 147.388 207.447 147.62L206.835 146.816C207.235 146.616 207.603 146.348 207.939 146.012C208.283 145.668 208.583 145.276 208.839 144.836C209.095 144.396 209.291 143.932 209.427 143.444C209.571 142.948 209.643 142.452 209.643 141.956V140.012ZM209.823 140.012H210.627V141.956C210.627 142.436 210.695 142.912 210.831 143.384C210.975 143.856 211.175 144.3 211.431 144.716C211.687 145.132 211.979 145.504 212.307 145.832C212.643 146.16 213.003 146.42 213.387 146.612L212.775 147.404C212.351 147.188 211.959 146.892 211.599 146.516C211.247 146.14 210.935 145.712 210.663 145.232C210.399 144.744 210.191 144.224 210.039 143.672C209.895 143.112 209.823 142.54 209.823 141.956V140.012ZM214.335 139.076H215.331V149.936H214.335V139.076ZM215.103 143.468H217.107V144.32H215.103V143.468Z" fill="#6B7280"/>
<path d="M118.179 176V173.784L123.357 168.99C123.797 168.564 124.166 168.18 124.464 167.839C124.768 167.499 124.997 167.165 125.153 166.838C125.31 166.507 125.388 166.149 125.388 165.766C125.388 165.339 125.291 164.973 125.097 164.665C124.902 164.352 124.637 164.113 124.301 163.947C123.965 163.777 123.584 163.692 123.158 163.692C122.713 163.692 122.324 163.782 121.993 163.962C121.661 164.142 121.406 164.4 121.226 164.736C121.046 165.072 120.956 165.472 120.956 165.936H118.037C118.037 164.984 118.252 164.158 118.683 163.457C119.114 162.757 119.718 162.214 120.494 161.831C121.271 161.447 122.166 161.256 123.179 161.256C124.221 161.256 125.127 161.44 125.899 161.81C126.676 162.174 127.279 162.681 127.71 163.33C128.141 163.978 128.357 164.722 128.357 165.56C128.357 166.109 128.248 166.651 128.03 167.186C127.817 167.721 127.436 168.315 126.886 168.969C126.337 169.617 125.563 170.396 124.564 171.305L122.44 173.386V173.486H128.548V176H118.179ZM136.089 176.199C135.085 176.199 134.19 176.014 133.404 175.645C132.623 175.276 132.003 174.767 131.544 174.118C131.084 173.469 130.845 172.726 130.826 171.888H133.809C133.842 172.451 134.079 172.908 134.52 173.259C134.96 173.609 135.483 173.784 136.089 173.784C136.572 173.784 136.998 173.678 137.368 173.464C137.742 173.247 138.033 172.946 138.241 172.562C138.454 172.174 138.561 171.729 138.561 171.227C138.561 170.716 138.452 170.266 138.234 169.878C138.021 169.49 137.725 169.187 137.346 168.969C136.967 168.751 136.534 168.64 136.047 168.635C135.62 168.635 135.206 168.723 134.804 168.898C134.406 169.073 134.096 169.312 133.873 169.615L131.139 169.125L131.828 161.455H140.72V163.969H134.363L133.987 167.612H134.072C134.328 167.252 134.714 166.954 135.23 166.717C135.746 166.481 136.324 166.362 136.963 166.362C137.839 166.362 138.62 166.568 139.306 166.98C139.993 167.392 140.535 167.958 140.933 168.678C141.331 169.393 141.527 170.216 141.522 171.149C141.527 172.129 141.3 173 140.841 173.763C140.386 174.52 139.749 175.117 138.93 175.553C138.116 175.983 137.169 176.199 136.089 176.199ZM144.995 176.185C144.527 176.185 144.124 176.019 143.788 175.688C143.457 175.351 143.291 174.949 143.291 174.48C143.291 174.016 143.457 173.618 143.788 173.287C144.124 172.955 144.527 172.79 144.995 172.79C145.45 172.79 145.848 172.955 146.189 173.287C146.529 173.618 146.7 174.016 146.7 174.48C146.7 174.793 146.619 175.079 146.458 175.339C146.302 175.595 146.096 175.801 145.841 175.957C145.585 176.109 145.303 176.185 144.995 176.185ZM153.996 176.199C152.902 176.199 151.929 176.021 151.077 175.666C150.229 175.306 149.564 174.816 149.081 174.196C148.598 173.576 148.357 172.873 148.357 172.087C148.357 171.481 148.494 170.924 148.768 170.418C149.048 169.906 149.427 169.482 149.905 169.146C150.383 168.805 150.918 168.588 151.51 168.493V168.393C150.733 168.237 150.104 167.861 149.621 167.264C149.138 166.663 148.896 165.964 148.896 165.169C148.896 164.416 149.116 163.746 149.557 163.159C149.997 162.567 150.601 162.103 151.368 161.767C152.14 161.426 153.016 161.256 153.996 161.256C154.976 161.256 155.849 161.426 156.616 161.767C157.388 162.108 157.994 162.574 158.435 163.166C158.875 163.753 159.098 164.421 159.102 165.169C159.098 165.969 158.851 166.668 158.364 167.264C157.876 167.861 157.251 168.237 156.489 168.393V168.493C157.071 168.588 157.599 168.805 158.072 169.146C158.551 169.482 158.929 169.906 159.209 170.418C159.493 170.924 159.637 171.481 159.642 172.087C159.637 172.873 159.393 173.576 158.911 174.196C158.428 174.816 157.76 175.306 156.908 175.666C156.06 176.021 155.089 176.199 153.996 176.199ZM153.996 173.94C154.483 173.94 154.91 173.853 155.274 173.678C155.639 173.498 155.923 173.251 156.126 172.939C156.335 172.622 156.439 172.257 156.439 171.845C156.439 171.424 156.332 171.052 156.119 170.73C155.906 170.403 155.617 170.148 155.253 169.963C154.888 169.774 154.469 169.679 153.996 169.679C153.527 169.679 153.108 169.774 152.739 169.963C152.369 170.148 152.078 170.403 151.865 170.73C151.657 171.052 151.553 171.424 151.553 171.845C151.553 172.257 151.654 172.622 151.858 172.939C152.062 173.251 152.348 173.498 152.717 173.678C153.087 173.853 153.513 173.94 153.996 173.94ZM153.996 167.442C154.403 167.442 154.765 167.359 155.082 167.193C155.4 167.027 155.648 166.798 155.828 166.504C156.008 166.211 156.098 165.872 156.098 165.489C156.098 165.11 156.008 164.778 155.828 164.494C155.648 164.205 155.402 163.981 155.089 163.82C154.777 163.654 154.412 163.571 153.996 163.571C153.584 163.571 153.219 163.654 152.902 163.82C152.585 163.981 152.336 164.205 152.156 164.494C151.981 164.778 151.893 165.11 151.893 165.489C151.893 165.872 151.983 166.211 152.163 166.504C152.343 166.798 152.592 167.027 152.909 167.193C153.226 167.359 153.589 167.442 153.996 167.442ZM167.105 176.199C166.101 176.199 165.206 176.014 164.42 175.645C163.639 175.276 163.019 174.767 162.559 174.118C162.1 173.469 161.861 172.726 161.842 171.888H164.825C164.858 172.451 165.095 172.908 165.535 173.259C165.975 173.609 166.499 173.784 167.105 173.784C167.588 173.784 168.014 173.678 168.383 173.464C168.757 173.247 169.048 172.946 169.257 172.562C169.47 172.174 169.576 171.729 169.576 171.227C169.576 170.716 169.467 170.266 169.25 169.878C169.037 169.49 168.741 169.187 168.362 168.969C167.983 168.751 167.55 168.64 167.062 168.635C166.636 168.635 166.222 168.723 165.819 168.898C165.422 169.073 165.111 169.312 164.889 169.615L162.154 169.125L162.843 161.455H171.735V163.969H165.379L165.002 167.612H165.088C165.343 167.252 165.729 166.954 166.245 166.717C166.761 166.481 167.339 166.362 167.978 166.362C168.854 166.362 169.636 166.568 170.322 166.98C171.009 167.392 171.551 167.958 171.949 168.678C172.346 169.393 172.543 170.216 172.538 171.149C172.543 172.129 172.315 173 171.856 173.763C171.402 174.52 170.765 175.117 169.946 175.553C169.131 175.983 168.184 176.199 167.105 176.199Z" fill="#111827"/>
<path d="M178.978 176V168.364H180.996V169.711H181.086C181.245 169.263 181.51 168.911 181.881 168.652C182.253 168.393 182.697 168.264 183.214 168.264C183.737 168.264 184.183 168.395 184.551 168.657C184.919 168.915 185.164 169.267 185.287 169.711H185.366C185.522 169.273 185.804 168.924 186.212 168.662C186.623 168.397 187.108 168.264 187.668 168.264C188.381 168.264 188.959 168.491 189.403 168.945C189.851 169.396 190.075 170.036 190.075 170.864V176H187.962V171.282C187.962 170.858 187.849 170.54 187.624 170.327C187.398 170.115 187.116 170.009 186.778 170.009C186.394 170.009 186.094 170.132 185.879 170.377C185.663 170.619 185.555 170.939 185.555 171.337V176H183.502V171.237C183.502 170.863 183.394 170.564 183.179 170.342C182.967 170.12 182.687 170.009 182.339 170.009C182.103 170.009 181.891 170.069 181.702 170.188C181.517 170.304 181.369 170.468 181.26 170.68C181.151 170.889 181.096 171.134 181.096 171.416V176H178.978ZM191.748 176V168.364H193.766V169.711H193.855C194.015 169.263 194.28 168.911 194.651 168.652C195.022 168.393 195.466 168.264 195.983 168.264C196.507 168.264 196.953 168.395 197.321 168.657C197.689 168.915 197.934 169.267 198.056 169.711H198.136C198.292 169.273 198.574 168.924 198.981 168.662C199.392 168.397 199.878 168.264 200.438 168.264C201.15 168.264 201.729 168.491 202.173 168.945C202.62 169.396 202.844 170.036 202.844 170.864V176H200.731V171.282C200.731 170.858 200.618 170.54 200.393 170.327C200.168 170.115 199.886 170.009 199.548 170.009C199.163 170.009 198.864 170.132 198.648 170.377C198.433 170.619 198.325 170.939 198.325 171.337V176H196.272V171.237C196.272 170.863 196.164 170.564 195.949 170.342C195.736 170.12 195.456 170.009 195.108 170.009C194.873 170.009 194.661 170.069 194.472 170.188C194.286 170.304 194.139 170.468 194.029 170.68C193.92 170.889 193.865 171.134 193.865 171.416V176H191.748Z" fill="#6B7280"/>
<path d="M173 187H117V207H173V187Z" fill="#FEE2E2"/>
<path d="M130.489 201.136C129.869 201.136 129.287 201.02 128.741 200.787C128.199 200.554 127.72 200.232 127.305 199.82C126.893 199.405 126.57 198.926 126.334 198.384C126.101 197.841 125.986 197.259 125.989 196.636C125.991 196.014 126.109 195.432 126.342 194.889C126.578 194.347 126.902 193.869 127.314 193.457C127.726 193.043 128.203 192.719 128.746 192.486C129.288 192.253 129.869 192.136 130.489 192.136C131.111 192.136 131.693 192.253 132.236 192.486C132.781 192.719 133.259 193.043 133.668 193.457C134.08 193.869 134.402 194.347 134.635 194.889C134.868 195.432 134.986 196.014 134.989 196.636C134.991 197.259 134.876 197.841 134.643 198.384C134.411 198.926 134.088 199.405 133.676 199.82C133.264 200.232 132.786 200.554 132.24 200.787C131.695 201.02 131.111 201.136 130.489 201.136ZM147.266 190.944H148.79V202.056H147.266V190.944ZM145.79 195.228H147.638V196.512H145.79V195.228ZM144.782 191.136H146.258V201.54H144.782V191.136ZM139.562 198.24H140.33C140.794 198.24 141.234 198.236 141.65 198.228C142.066 198.212 142.478 198.184 142.886 198.144C143.302 198.096 143.726 198.036 144.158 197.964L144.29 199.26C143.842 199.34 143.406 199.404 142.982 199.452C142.558 199.5 142.13 199.532 141.698 199.548C141.266 199.556 140.81 199.56 140.33 199.56H139.562V198.24ZM139.562 192.24H143.654V193.524H141.134V198.876H139.562V192.24ZM157.945 190.944H159.541V202.056H157.945V190.944ZM154.669 192.096H156.241C156.241 192.944 156.157 193.756 155.989 194.532C155.829 195.3 155.557 196.024 155.173 196.704C154.797 197.384 154.277 198.016 153.613 198.6C152.957 199.176 152.137 199.704 151.153 200.184L150.313 198.924C151.385 198.404 152.237 197.832 152.869 197.208C153.509 196.576 153.969 195.864 154.249 195.072C154.529 194.272 154.669 193.376 154.669 192.384V192.096ZM150.913 192.096H155.413V193.368H150.913V192.096ZM165.552 196.536H167.136V198.492H165.552V196.536ZM161.316 195.996H171.372V197.268H161.316V195.996ZM166.32 198.048C167.52 198.048 168.464 198.224 169.152 198.576C169.84 198.92 170.184 199.416 170.184 200.064C170.184 200.696 169.84 201.188 169.152 201.54C168.464 201.892 167.52 202.068 166.32 202.068C165.12 202.068 164.176 201.892 163.488 201.54C162.808 201.188 162.468 200.696 162.468 200.064C162.468 199.416 162.808 198.92 163.488 198.576C164.176 198.224 165.12 198.048 166.32 198.048ZM166.32 199.26C165.824 199.26 165.408 199.288 165.072 199.344C164.744 199.4 164.496 199.488 164.328 199.608C164.16 199.72 164.076 199.872 164.076 200.064C164.076 200.24 164.16 200.388 164.328 200.508C164.496 200.628 164.744 200.716 165.072 200.772C165.408 200.828 165.824 200.856 166.32 200.856C166.816 200.856 167.228 200.828 167.556 200.772C167.892 200.716 168.144 200.628 168.312 200.508C168.48 200.388 168.564 200.24 168.564 200.064C168.564 199.872 168.48 199.72 168.312 199.608C168.144 199.488 167.892 199.4 167.556 199.344C167.228 199.288 166.816 199.26 166.32 199.26ZM165.252 192H166.668V192.264C166.668 192.6 166.608 192.92 166.488 193.224C166.368 193.528 166.188 193.812 165.948 194.076C165.716 194.332 165.424 194.564 165.072 194.772C164.72 194.98 164.312 195.152 163.848 195.288C163.384 195.424 162.868 195.52 162.3 195.576L161.748 194.316C162.236 194.276 162.668 194.208 163.044 194.112C163.428 194.016 163.756 193.9 164.028 193.764C164.308 193.62 164.536 193.468 164.712 193.308C164.896 193.14 165.032 192.968 165.12 192.792C165.208 192.616 165.252 192.44 165.252 192.264V192ZM166.032 192H167.436V192.264C167.436 192.44 167.48 192.62 167.568 192.804C167.656 192.98 167.788 193.148 167.964 193.308C168.148 193.468 168.376 193.62 168.648 193.764C168.928 193.9 169.256 194.016 169.632 194.112C170.016 194.208 170.452 194.276 170.94 194.316L170.388 195.576C169.82 195.52 169.304 195.424 168.84 195.288C168.376 195.152 167.968 194.984 167.616 194.784C167.272 194.576 166.98 194.344 166.74 194.088C166.508 193.824 166.332 193.54 166.212 193.236C166.092 192.924 166.032 192.6 166.032 192.264V192ZM162.24 191.412H170.472V192.672H162.24V191.412Z" fill="#991B1B"/>
<path d="M329 151H281V183H329V151Z" fill="white" stroke="#D1D5DB" stroke-width="2"/>
<path d="M297.945 159.87H298.967V160.584C298.967 161.069 298.874 161.527 298.687 161.956C298.5 162.376 298.244 162.763 297.917 163.118C297.6 163.473 297.226 163.79 296.797 164.07C296.368 164.35 295.901 164.583 295.397 164.77C294.902 164.957 294.394 165.092 293.871 165.176L293.395 164.238C293.862 164.173 294.314 164.061 294.753 163.902C295.201 163.743 295.616 163.552 295.999 163.328C296.382 163.095 296.718 162.833 297.007 162.544C297.306 162.255 297.534 161.947 297.693 161.62C297.861 161.284 297.945 160.939 297.945 160.584V159.87ZM298.141 159.87H299.149V160.584C299.149 160.939 299.233 161.279 299.401 161.606C299.569 161.933 299.798 162.241 300.087 162.53C300.386 162.819 300.726 163.081 301.109 163.314C301.492 163.547 301.902 163.743 302.341 163.902C302.789 164.061 303.242 164.173 303.699 164.238L303.237 165.176C302.714 165.092 302.206 164.957 301.711 164.77C301.216 164.574 300.75 164.336 300.311 164.056C299.882 163.776 299.504 163.459 299.177 163.104C298.86 162.749 298.608 162.362 298.421 161.942C298.234 161.513 298.141 161.06 298.141 160.584V159.87ZM297.945 167.276H299.093V172.092H297.945V167.276ZM292.821 166.548H304.259V167.514H292.821V166.548ZM312.462 162.712H315.304V163.678H312.462V162.712ZM314.954 159.422H316.116V166.968H314.954V159.422ZM311.944 167.36C312.821 167.36 313.573 167.453 314.198 167.64C314.833 167.827 315.318 168.097 315.654 168.452C315.99 168.797 316.158 169.222 316.158 169.726C316.158 170.473 315.78 171.051 315.024 171.462C314.277 171.873 313.251 172.078 311.944 172.078C310.637 172.078 309.606 171.873 308.85 171.462C308.103 171.051 307.73 170.473 307.73 169.726C307.73 169.222 307.898 168.797 308.234 168.452C308.579 168.097 309.065 167.827 309.69 167.64C310.325 167.453 311.076 167.36 311.944 167.36ZM311.944 168.27C311.309 168.27 310.763 168.326 310.306 168.438C309.849 168.55 309.494 168.713 309.242 168.928C308.999 169.143 308.878 169.409 308.878 169.726C308.878 170.025 308.999 170.281 309.242 170.496C309.494 170.711 309.849 170.879 310.306 171C310.763 171.112 311.309 171.168 311.944 171.168C312.588 171.168 313.134 171.112 313.582 171C314.039 170.879 314.389 170.711 314.632 170.496C314.884 170.281 315.01 170.025 315.01 169.726C315.01 169.409 314.884 169.143 314.632 168.928C314.389 168.713 314.039 168.55 313.582 168.438C313.134 168.326 312.588 168.27 311.944 168.27ZM308.92 160.71H309.872V161.732C309.872 162.507 309.723 163.235 309.424 163.916C309.135 164.588 308.724 165.181 308.192 165.694C307.66 166.198 307.044 166.585 306.344 166.856L305.742 165.932C306.218 165.764 306.647 165.535 307.03 165.246C307.422 164.957 307.758 164.625 308.038 164.252C308.327 163.879 308.547 163.477 308.696 163.048C308.845 162.619 308.92 162.18 308.92 161.732V160.71ZM309.144 160.71H310.096V161.718C310.096 162.259 310.222 162.787 310.474 163.3C310.726 163.813 311.085 164.266 311.552 164.658C312.019 165.05 312.555 165.358 313.162 165.582L312.574 166.506C311.883 166.254 311.281 165.89 310.768 165.414C310.255 164.929 309.853 164.369 309.564 163.734C309.284 163.099 309.144 162.427 309.144 161.718V160.71ZM306.106 160.346H312.868V161.298H306.106V160.346Z" fill="#374151"/>
<path d="M345 233H17V333H345V233Z" fill="#F9FAFB" stroke="#E5E7EB"/>
<path d="M93 249H41C36.5817 249 33 252.582 33 257V309C33 313.418 36.5817 317 41 317H93C97.4183 317 101 313.418 101 309V257C101 252.582 97.4183 249 93 249Z" fill="#E5E7EB"/>
<path d="M57 289.4H77V269.4H57V289.4Z" fill="black"/>
<path d="M120.75 261.119C120.108 261.119 119.561 260.945 119.109 260.595C118.658 260.243 118.313 259.733 118.074 259.065C117.835 258.395 117.716 257.585 117.716 256.636C117.716 255.693 117.835 254.888 118.074 254.22C118.315 253.55 118.662 253.038 119.114 252.686C119.568 252.331 120.114 252.153 120.75 252.153C121.386 252.153 121.93 252.331 122.382 252.686C122.837 253.038 123.183 253.55 123.422 254.22C123.663 254.888 123.784 255.693 123.784 256.636C123.784 257.585 123.665 258.395 123.426 259.065C123.188 259.733 122.842 260.243 122.391 260.595C121.939 260.945 121.392 261.119 120.75 261.119ZM120.75 260.182C121.386 260.182 121.881 259.875 122.233 259.261C122.585 258.648 122.761 257.773 122.761 256.636C122.761 255.881 122.68 255.237 122.518 254.706C122.359 254.175 122.129 253.77 121.828 253.491C121.53 253.213 121.17 253.074 120.75 253.074C120.119 253.074 119.626 253.385 119.271 254.007C118.916 254.626 118.739 255.503 118.739 256.636C118.739 257.392 118.818 258.034 118.977 258.562C119.136 259.091 119.365 259.493 119.663 259.768C119.964 260.044 120.327 260.182 120.75 260.182ZM128.182 252.153C128.54 252.156 128.898 252.224 129.256 252.358C129.614 252.491 129.94 252.713 130.236 253.023C130.531 253.33 130.768 253.749 130.947 254.28C131.126 254.811 131.216 255.477 131.216 256.278C131.216 257.054 131.142 257.743 130.994 258.345C130.849 258.945 130.639 259.45 130.364 259.862C130.091 260.274 129.759 260.587 129.366 260.8C128.977 261.013 128.537 261.119 128.045 261.119C127.557 261.119 127.121 261.023 126.737 260.83C126.357 260.634 126.044 260.362 125.8 260.016C125.558 259.666 125.403 259.261 125.335 258.801H126.375C126.469 259.202 126.655 259.533 126.933 259.794C127.214 260.053 127.585 260.182 128.045 260.182C128.719 260.182 129.25 259.888 129.639 259.3C130.031 258.712 130.227 257.881 130.227 256.807H130.159C130 257.045 129.811 257.251 129.592 257.425C129.374 257.598 129.131 257.732 128.864 257.825C128.597 257.919 128.313 257.966 128.011 257.966C127.511 257.966 127.053 257.842 126.635 257.595C126.22 257.345 125.888 257.003 125.638 256.568C125.391 256.131 125.267 255.631 125.267 255.068C125.267 254.534 125.386 254.045 125.625 253.602C125.866 253.156 126.205 252.801 126.639 252.537C127.077 252.273 127.591 252.145 128.182 252.153ZM128.182 253.091C127.824 253.091 127.501 253.18 127.214 253.359C126.93 253.536 126.705 253.774 126.537 254.075C126.372 254.374 126.29 254.705 126.29 255.068C126.29 255.432 126.369 255.763 126.528 256.061C126.69 256.357 126.911 256.592 127.189 256.768C127.47 256.942 127.79 257.028 128.148 257.028C128.418 257.028 128.669 256.976 128.902 256.871C129.135 256.763 129.338 256.616 129.511 256.432C129.688 256.244 129.825 256.033 129.925 255.797C130.024 255.558 130.074 255.31 130.074 255.051C130.074 254.71 129.991 254.391 129.827 254.092C129.665 253.794 129.44 253.553 129.153 253.368C128.869 253.183 128.545 253.091 128.182 253.091ZM133.642 259.884C133.431 259.884 133.251 259.808 133.1 259.658C132.95 259.507 132.875 259.327 132.875 259.116C132.875 258.906 132.95 258.726 133.1 258.575C133.251 258.425 133.431 258.349 133.642 258.349C133.852 258.349 134.032 258.425 134.183 258.575C134.333 258.726 134.409 258.906 134.409 259.116C134.409 259.256 134.373 259.384 134.302 259.5C134.234 259.616 134.142 259.71 134.025 259.781C133.912 259.849 133.784 259.884 133.642 259.884ZM133.642 255.469C133.431 255.469 133.251 255.393 133.1 255.243C132.95 255.092 132.875 254.912 132.875 254.702C132.875 254.491 132.95 254.311 133.1 254.161C133.251 254.01 133.431 253.935 133.642 253.935C133.852 253.935 134.032 254.01 134.183 254.161C134.333 254.311 134.409 254.491 134.409 254.702C134.409 254.841 134.373 254.969 134.302 255.085C134.234 255.202 134.142 255.295 134.025 255.366C133.912 255.435 133.784 255.469 133.642 255.469ZM135.992 259.21V258.341L139.827 252.273H140.458V253.619H140.032L137.134 258.205V258.273H142.299V259.21H135.992ZM140.1 261V258.946V258.541V252.273H141.105V261H140.1ZM143.896 261V260.233L146.776 257.08C147.114 256.71 147.393 256.389 147.612 256.116C147.83 255.841 147.992 255.582 148.097 255.341C148.205 255.097 148.259 254.841 148.259 254.574C148.259 254.267 148.185 254.001 148.038 253.777C147.893 253.553 147.694 253.379 147.441 253.257C147.188 253.135 146.904 253.074 146.589 253.074C146.254 253.074 145.961 253.143 145.711 253.283C145.464 253.419 145.272 253.611 145.136 253.858C145.002 254.105 144.935 254.395 144.935 254.727H143.93C143.93 254.216 144.048 253.767 144.283 253.381C144.519 252.994 144.84 252.693 145.246 252.477C145.656 252.261 146.114 252.153 146.623 252.153C147.134 252.153 147.587 252.261 147.982 252.477C148.377 252.693 148.687 252.984 148.911 253.351C149.136 253.717 149.248 254.125 149.248 254.574C149.248 254.895 149.19 255.209 149.073 255.516C148.96 255.82 148.761 256.159 148.477 256.534C148.195 256.906 147.805 257.361 147.305 257.898L145.344 259.994V260.062H149.401V261H143.896ZM156.019 249.46V263.812H155.167V249.46H156.019ZM162.026 256.656H162.854C163.59 256.656 164.23 256.648 164.774 256.632C165.318 256.616 165.818 256.588 166.274 256.548C166.738 256.5 167.21 256.436 167.69 256.356L167.798 257.148C167.31 257.244 166.826 257.316 166.346 257.364C165.874 257.404 165.358 257.432 164.798 257.448C164.246 257.464 163.598 257.472 162.854 257.472H162.026V256.656ZM162.026 251.952H166.982V252.756H163.022V256.932H162.026V251.952ZM162.698 254.256H166.79V255.06H162.698V254.256ZM168.962 251.076H169.958V259.116H168.962V251.076ZM169.646 254.448H171.554V255.276H169.646V254.448ZM163.202 260.88H170.438V261.696H163.202V260.88ZM163.202 258.396H164.186V261.312H163.202V258.396ZM175.237 251.736H176.065V253.068C176.065 253.78 175.941 254.436 175.693 255.036C175.445 255.628 175.097 256.144 174.649 256.584C174.201 257.024 173.673 257.36 173.065 257.592L172.525 256.8C173.077 256.608 173.557 256.328 173.965 255.96C174.373 255.584 174.685 255.148 174.901 254.652C175.125 254.156 175.237 253.628 175.237 253.068V251.736ZM175.417 251.736H176.221V253.104C176.221 253.472 176.285 253.832 176.413 254.184C176.549 254.536 176.733 254.868 176.965 255.18C177.205 255.484 177.485 255.752 177.805 255.984C178.133 256.208 178.497 256.392 178.897 256.536L178.393 257.328C177.801 257.104 177.281 256.784 176.833 256.368C176.385 255.952 176.037 255.464 175.789 254.904C175.541 254.344 175.417 253.744 175.417 253.104V251.736ZM180.001 251.076H180.997V259.092H180.001V251.076ZM180.685 254.4H182.593V255.24H180.685V254.4ZM174.253 260.88H181.477V261.696H174.253V260.88ZM174.253 258.324H175.261V261.276H174.253V258.324ZM186.42 257.544H187.416V259.308H186.42V257.544ZM190.98 251.076H191.976V261.936H190.98V251.076ZM191.664 255.684H193.668V256.524H191.664V255.684ZM183.636 259.872L183.48 259.032C184.136 259.032 184.848 259.028 185.616 259.02C186.392 259.004 187.184 258.972 187.992 258.924C188.8 258.876 189.58 258.8 190.332 258.696L190.404 259.428C189.628 259.564 188.836 259.664 188.028 259.728C187.228 259.792 186.452 259.832 185.7 259.848C184.956 259.864 184.268 259.872 183.636 259.872ZM183.672 252.396H190.152V253.2H183.672V252.396ZM186.924 253.824C187.428 253.824 187.872 253.908 188.256 254.076C188.64 254.244 188.94 254.48 189.156 254.784C189.372 255.08 189.48 255.432 189.48 255.84C189.48 256.24 189.372 256.592 189.156 256.896C188.94 257.2 188.64 257.436 188.256 257.604C187.872 257.764 187.428 257.844 186.924 257.844C186.42 257.844 185.972 257.764 185.58 257.604C185.196 257.436 184.896 257.2 184.68 256.896C184.472 256.592 184.368 256.24 184.368 255.84C184.368 255.432 184.472 255.08 184.68 254.784C184.896 254.48 185.196 254.244 185.58 254.076C185.972 253.908 186.42 253.824 186.924 253.824ZM186.924 254.604C186.436 254.604 186.044 254.716 185.748 254.94C185.452 255.164 185.304 255.464 185.304 255.84C185.304 256.208 185.452 256.504 185.748 256.728C186.044 256.952 186.436 257.064 186.924 257.064C187.404 257.064 187.792 256.952 188.088 256.728C188.384 256.504 188.532 256.208 188.532 255.84C188.532 255.464 188.384 255.164 188.088 254.94C187.792 254.716 187.404 254.604 186.924 254.604ZM186.42 251.1H187.416V252.924H186.42V251.1ZM198.026 259.716H207.866V260.544H198.026V259.716ZM202.442 257.088H203.438V259.992H202.442V257.088ZM202.418 252.456H203.27V253.116C203.27 253.564 203.186 253.988 203.018 254.388C202.858 254.78 202.634 255.148 202.346 255.492C202.066 255.828 201.738 256.128 201.362 256.392C200.994 256.648 200.598 256.872 200.174 257.064C199.758 257.248 199.338 257.384 198.914 257.472L198.506 256.68C198.874 256.616 199.246 256.508 199.622 256.356C199.998 256.196 200.35 256.004 200.678 255.78C201.014 255.556 201.31 255.304 201.566 255.024C201.83 254.744 202.038 254.444 202.19 254.124C202.342 253.804 202.418 253.468 202.418 253.116V252.456ZM202.61 252.456H203.45V253.116C203.45 253.468 203.526 253.804 203.678 254.124C203.83 254.436 204.038 254.732 204.302 255.012C204.566 255.292 204.866 255.544 205.202 255.768C205.538 255.984 205.894 256.168 206.27 256.32C206.654 256.472 207.034 256.576 207.41 256.632L207.002 257.424C206.57 257.336 206.142 257.204 205.718 257.028C205.294 256.844 204.894 256.624 204.518 256.368C204.15 256.104 203.822 255.808 203.534 255.48C203.246 255.144 203.018 254.78 202.85 254.388C202.69 253.988 202.61 253.564 202.61 253.116V252.456ZM198.842 252.06H207.026V252.888H198.842V252.06ZM211.717 252.012H212.533V253.956C212.533 254.556 212.457 255.144 212.305 255.72C212.161 256.296 211.953 256.836 211.681 257.34C211.409 257.844 211.089 258.292 210.721 258.684C210.353 259.076 209.953 259.388 209.521 259.62L208.909 258.816C209.309 258.616 209.677 258.348 210.013 258.012C210.357 257.668 210.657 257.276 210.913 256.836C211.169 256.396 211.365 255.932 211.501 255.444C211.645 254.948 211.717 254.452 211.717 253.956V252.012ZM211.897 252.012H212.701V253.956C212.701 254.436 212.769 254.912 212.905 255.384C213.049 255.856 213.249 256.3 213.505 256.716C213.761 257.132 214.053 257.504 214.381 257.832C214.717 258.16 215.077 258.42 215.461 258.612L214.849 259.404C214.425 259.188 214.033 258.892 213.673 258.516C213.321 258.14 213.009 257.712 212.737 257.232C212.473 256.744 212.265 256.224 212.113 255.672C211.969 255.112 211.897 254.54 211.897 253.956V252.012ZM216.409 251.076H217.405V261.936H216.409V251.076ZM217.177 255.468H219.181V256.32H217.177V255.468Z" fill="#9CA3AF"/>
<path d="M118.754 288L124.784 276.068V275.969H117.76V273.455H127.966V276.004L121.929 288H118.754ZM129.37 288.185C128.902 288.185 128.499 288.019 128.163 287.688C127.832 287.351 127.666 286.949 127.666 286.48C127.666 286.016 127.832 285.618 128.163 285.287C128.499 284.955 128.902 284.79 129.37 284.79C129.825 284.79 130.223 284.955 130.564 285.287C130.904 285.618 131.075 286.016 131.075 286.48C131.075 286.793 130.994 287.079 130.833 287.339C130.677 287.595 130.471 287.801 130.216 287.957C129.96 288.109 129.678 288.185 129.37 288.185ZM138.648 288.32C137.426 288.315 136.375 288.014 135.494 287.418C134.618 286.821 133.944 285.957 133.47 284.825C133.001 283.694 132.769 282.332 132.774 280.741C132.774 279.155 133.009 277.804 133.477 276.686C133.951 275.569 134.625 274.719 135.501 274.136C136.382 273.549 137.431 273.256 138.648 273.256C139.865 273.256 140.911 273.549 141.787 274.136C142.668 274.723 143.345 275.576 143.818 276.693C144.292 277.806 144.526 279.155 144.521 280.741C144.521 282.337 144.285 283.701 143.811 284.832C143.342 285.964 142.67 286.828 141.794 287.425C140.918 288.021 139.869 288.32 138.648 288.32ZM138.648 285.77C139.481 285.77 140.146 285.351 140.643 284.513C141.141 283.675 141.387 282.418 141.382 280.741C141.382 279.638 141.268 278.72 141.041 277.986C140.819 277.252 140.501 276.7 140.089 276.331C139.682 275.962 139.202 275.777 138.648 275.777C137.819 275.777 137.156 276.191 136.659 277.02C136.162 277.848 135.911 279.089 135.906 280.741C135.906 281.859 136.018 282.792 136.24 283.54C136.467 284.283 136.787 284.842 137.199 285.216C137.611 285.585 138.094 285.77 138.648 285.77ZM146.714 288V285.784L151.892 280.99C152.332 280.564 152.701 280.18 153 279.839C153.303 279.499 153.532 279.165 153.689 278.838C153.845 278.507 153.923 278.149 153.923 277.766C153.923 277.339 153.826 276.973 153.632 276.665C153.438 276.352 153.172 276.113 152.836 275.947C152.5 275.777 152.119 275.692 151.693 275.692C151.248 275.692 150.859 275.782 150.528 275.962C150.197 276.142 149.941 276.4 149.761 276.736C149.581 277.072 149.491 277.472 149.491 277.936H146.572C146.572 276.984 146.788 276.158 147.218 275.457C147.649 274.757 148.253 274.214 149.029 273.831C149.806 273.447 150.701 273.256 151.714 273.256C152.756 273.256 153.663 273.44 154.434 273.81C155.211 274.174 155.815 274.681 156.245 275.33C156.676 275.978 156.892 276.722 156.892 277.56C156.892 278.109 156.783 278.651 156.565 279.186C156.352 279.721 155.971 280.315 155.422 280.969C154.872 281.617 154.098 282.396 153.099 283.305L150.975 285.386V285.486H157.083V288H146.714ZM163.607 288V280.364H165.625V281.711H165.715C165.874 281.263 166.139 280.911 166.51 280.652C166.882 280.393 167.326 280.264 167.843 280.264C168.366 280.264 168.812 280.395 169.18 280.657C169.548 280.915 169.793 281.267 169.916 281.711H169.995C170.151 281.273 170.433 280.924 170.841 280.662C171.252 280.397 171.737 280.264 172.297 280.264C173.01 280.264 173.588 280.491 174.032 280.945C174.48 281.396 174.703 282.036 174.703 282.864V288H172.591V283.282C172.591 282.858 172.478 282.54 172.252 282.327C172.027 282.115 171.745 282.009 171.407 282.009C171.023 282.009 170.723 282.132 170.507 282.377C170.292 282.619 170.184 282.939 170.184 283.337V288H168.131V283.237C168.131 282.863 168.023 282.564 167.808 282.342C167.596 282.12 167.316 282.009 166.968 282.009C166.732 282.009 166.52 282.069 166.331 282.188C166.146 282.304 165.998 282.468 165.889 282.68C165.779 282.889 165.725 283.134 165.725 283.416V288H163.607ZM176.376 288V280.364H178.395V281.711H178.484C178.643 281.263 178.909 280.911 179.28 280.652C179.651 280.393 180.095 280.264 180.612 280.264C181.136 280.264 181.582 280.395 181.95 280.657C182.317 280.915 182.563 281.267 182.685 281.711H182.765C182.921 281.273 183.202 280.924 183.61 280.662C184.021 280.397 184.507 280.264 185.067 280.264C185.779 280.264 186.358 280.491 186.802 280.945C187.249 281.396 187.473 282.036 187.473 282.864V288H185.36V283.282C185.36 282.858 185.247 282.54 185.022 282.327C184.797 282.115 184.515 282.009 184.177 282.009C183.792 282.009 183.492 282.132 183.277 282.377C183.062 282.619 182.954 282.939 182.954 283.337V288H180.901V283.237C180.901 282.863 180.793 282.564 180.577 282.342C180.365 282.12 180.085 282.009 179.737 282.009C179.502 282.009 179.29 282.069 179.101 282.188C178.915 282.304 178.768 282.468 178.658 282.68C178.549 282.889 178.494 283.134 178.494 283.416V288H176.376Z" fill="#6B7280"/>
<path d="M183 299H117V319H183V299Z" fill="#DCFCE7"/>
<path d="M125 313.84H137V301.84H125V313.84ZM146.221 305.824H148.801V307.108H146.221V305.824ZM147.961 302.956H149.569V311.056H147.961V302.956ZM142.225 312.592H149.821V313.876H142.225V312.592ZM142.225 310.372H143.821V313.348H142.225V310.372ZM142.837 304.408H144.133V305.104C144.133 305.808 144.021 306.476 143.797 307.108C143.573 307.74 143.229 308.296 142.765 308.776C142.309 309.248 141.721 309.604 141.001 309.844L140.209 308.572C140.665 308.42 141.057 308.224 141.385 307.984C141.721 307.736 141.993 307.456 142.201 307.144C142.417 306.832 142.577 306.504 142.681 306.16C142.785 305.816 142.837 305.464 142.837 305.104V304.408ZM143.173 304.408H144.445V305.104C144.445 305.536 144.533 305.968 144.709 306.4C144.885 306.824 145.157 307.212 145.525 307.564C145.901 307.908 146.381 308.18 146.965 308.38L146.185 309.616C145.497 309.384 144.929 309.044 144.481 308.596C144.041 308.14 143.713 307.612 143.497 307.012C143.281 306.404 143.173 305.768 143.173 305.104V304.408ZM140.641 303.7H146.617V304.972H140.641V303.7ZM155.508 306.892H157.104V308.884H155.508V306.892ZM155.496 303.148H156.864V303.484C156.864 303.892 156.8 304.284 156.672 304.66C156.544 305.028 156.356 305.368 156.108 305.68C155.86 305.992 155.556 306.276 155.196 306.532C154.836 306.78 154.42 306.992 153.948 307.168C153.484 307.344 152.964 307.472 152.388 307.552L151.8 306.292C152.304 306.236 152.752 306.144 153.144 306.016C153.544 305.88 153.888 305.72 154.176 305.536C154.472 305.352 154.716 305.148 154.908 304.924C155.108 304.7 155.256 304.468 155.352 304.228C155.448 303.98 155.496 303.732 155.496 303.484V303.148ZM155.76 303.148H157.116V303.484C157.116 303.74 157.164 303.992 157.26 304.24C157.356 304.488 157.5 304.724 157.692 304.948C157.884 305.164 158.124 305.364 158.412 305.548C158.708 305.732 159.056 305.888 159.456 306.016C159.856 306.144 160.308 306.236 160.812 306.292L160.224 307.552C159.656 307.472 159.136 307.344 158.664 307.168C158.2 306.992 157.784 306.784 157.416 306.544C157.056 306.296 156.752 306.016 156.504 305.704C156.256 305.384 156.068 305.04 155.94 304.672C155.82 304.304 155.76 303.908 155.76 303.484V303.148ZM151.296 308.248H161.352V309.508H151.296V308.248ZM156.3 310.108C157.508 310.108 158.452 310.284 159.132 310.636C159.82 310.98 160.164 311.464 160.164 312.088C160.164 312.728 159.82 313.216 159.132 313.552C158.452 313.896 157.508 314.068 156.3 314.068C155.092 314.068 154.148 313.896 153.468 313.552C152.788 313.216 152.448 312.728 152.448 312.088C152.448 311.464 152.788 310.98 153.468 310.636C154.148 310.284 155.092 310.108 156.3 310.108ZM156.3 311.308C155.556 311.308 154.996 311.372 154.62 311.5C154.244 311.62 154.056 311.816 154.056 312.088C154.056 312.36 154.244 312.56 154.62 312.688C154.996 312.816 155.556 312.88 156.3 312.88C157.052 312.88 157.612 312.816 157.98 312.688C158.356 312.56 158.544 312.36 158.544 312.088C158.544 311.816 158.356 311.62 157.98 311.5C157.612 311.372 157.052 311.308 156.3 311.308ZM164.867 307.444H166.463V309.136H164.867V307.444ZM165.659 303.4C166.195 303.4 166.671 303.496 167.087 303.688C167.503 303.872 167.831 304.136 168.071 304.48C168.311 304.816 168.431 305.208 168.431 305.656C168.431 306.096 168.311 306.488 168.071 306.832C167.831 307.168 167.503 307.432 167.087 307.624C166.671 307.816 166.195 307.912 165.659 307.912C165.123 307.912 164.643 307.816 164.219 307.624C163.803 307.432 163.475 307.168 163.235 306.832C162.995 306.488 162.875 306.096 162.875 305.656C162.875 305.208 162.995 304.816 163.235 304.48C163.475 304.136 163.803 303.872 164.219 303.688C164.643 303.496 165.123 303.4 165.659 303.4ZM165.659 304.588C165.411 304.588 165.187 304.632 164.987 304.72C164.795 304.8 164.643 304.92 164.531 305.08C164.419 305.24 164.363 305.432 164.363 305.656C164.363 305.88 164.419 306.072 164.531 306.232C164.643 306.384 164.795 306.504 164.987 306.592C165.187 306.672 165.411 306.712 165.659 306.712C165.915 306.712 166.139 306.672 166.331 306.592C166.523 306.504 166.671 306.384 166.775 306.232C166.887 306.072 166.943 305.88 166.943 305.656C166.943 305.432 166.887 305.24 166.775 305.08C166.671 304.92 166.523 304.8 166.331 304.72C166.139 304.632 165.915 304.588 165.659 304.588ZM169.559 302.956H171.155V311.428H169.559V302.956ZM170.603 306.448H172.559V307.744H170.603V306.448ZM163.751 312.592H171.539V313.864H163.751V312.592ZM163.751 310.708H165.347V313.144H163.751V310.708ZM162.491 309.988L162.299 308.728C162.931 308.728 163.623 308.724 164.375 308.716C165.135 308.7 165.907 308.668 166.691 308.62C167.483 308.572 168.243 308.496 168.971 308.392L169.079 309.532C168.335 309.668 167.571 309.772 166.787 309.844C166.003 309.908 165.243 309.948 164.507 309.964C163.771 309.98 163.099 309.988 162.491 309.988ZM175.931 309.424H177.503V312.052H175.931V309.424ZM179.447 309.424H181.007V312.04H179.447V309.424ZM173.387 311.548H183.455V312.844H173.387V311.548ZM174.527 303.664H182.315V307.348H176.123V309.232H174.539V306.1H180.731V304.936H174.527V303.664ZM174.539 308.572H182.567V309.844H174.539V308.572Z" fill="#166534"/>
<path d="M331 681H31C14.4315 681 1 694.431 1 711V751C1 767.569 14.4315 781 31 781H331C347.569 781 361 767.569 361 751V711C361 694.431 347.569 681 331 681Z" fill="white"/>
<path d="M1 681H361" stroke="#F3F4F6" stroke-width="2"/>
<path d="M337 706H25V754H337V706Z" fill="#2563EB"/>
<path d="M87.7276 722.92H94.8476V732.888H87.7276V722.92ZM92.7676 724.6H89.8236V731.208H92.7676V724.6ZM97.1676 721.576H99.2956V736.44H97.1676V721.576ZM109.662 725.432H113.102V727.144H109.662V725.432ZM111.982 721.608H114.126V732.408H111.982V721.608ZM104.334 734.456H114.462V736.168H104.334V734.456ZM104.334 731.496H106.462V735.464H104.334V731.496ZM105.15 723.544H106.878V724.472C106.878 725.411 106.729 726.301 106.43 727.144C106.132 727.987 105.673 728.728 105.054 729.368C104.446 729.997 103.662 730.472 102.702 730.792L101.646 729.096C102.254 728.893 102.777 728.632 103.214 728.312C103.662 727.981 104.025 727.608 104.302 727.192C104.59 726.776 104.804 726.339 104.942 725.88C105.081 725.421 105.15 724.952 105.15 724.472V723.544ZM105.598 723.544H107.294V724.472C107.294 725.048 107.412 725.624 107.646 726.2C107.881 726.765 108.244 727.283 108.734 727.752C109.236 728.211 109.876 728.573 110.654 728.84L109.614 730.488C108.697 730.179 107.94 729.725 107.342 729.128C106.756 728.52 106.318 727.816 106.03 727.016C105.742 726.205 105.598 725.357 105.598 724.472V723.544ZM102.222 722.6H110.19V724.296H102.222V722.6ZM122.045 726.856H124.173V729.512H122.045V726.856ZM122.029 721.864H123.853V722.312C123.853 722.856 123.768 723.379 123.597 723.88C123.426 724.371 123.176 724.824 122.845 725.24C122.514 725.656 122.109 726.035 121.629 726.376C121.149 726.707 120.594 726.989 119.965 727.224C119.346 727.459 118.653 727.629 117.885 727.736L117.101 726.056C117.773 725.981 118.37 725.859 118.893 725.688C119.426 725.507 119.885 725.293 120.269 725.048C120.664 724.803 120.989 724.531 121.245 724.232C121.512 723.933 121.709 723.624 121.837 723.304C121.965 722.973 122.029 722.643 122.029 722.312V721.864ZM122.381 721.864H124.189V722.312C124.189 722.653 124.253 722.989 124.381 723.32C124.509 723.651 124.701 723.965 124.957 724.264C125.213 724.552 125.533 724.819 125.917 725.064C126.312 725.309 126.776 725.517 127.309 725.688C127.842 725.859 128.445 725.981 129.117 726.056L128.333 727.736C127.576 727.629 126.882 727.459 126.253 727.224C125.634 726.989 125.08 726.712 124.589 726.392C124.109 726.061 123.704 725.688 123.373 725.272C123.042 724.845 122.792 724.387 122.621 723.896C122.461 723.405 122.381 722.877 122.381 722.312V721.864ZM116.429 728.664H129.837V730.344H116.429V728.664ZM123.101 731.144C124.712 731.144 125.97 731.379 126.877 731.848C127.794 732.307 128.253 732.952 128.253 733.784C128.253 734.637 127.794 735.288 126.877 735.736C125.97 736.195 124.712 736.424 123.101 736.424C121.49 736.424 120.232 736.195 119.325 735.736C118.418 735.288 117.965 734.637 117.965 733.784C117.965 732.952 118.418 732.307 119.325 731.848C120.232 731.379 121.49 731.144 123.101 731.144ZM123.101 732.744C122.109 732.744 121.362 732.829 120.861 733C120.36 733.16 120.109 733.421 120.109 733.784C120.109 734.147 120.36 734.413 120.861 734.584C121.362 734.755 122.109 734.84 123.101 734.84C124.104 734.84 124.85 734.755 125.341 734.584C125.842 734.413 126.093 734.147 126.093 733.784C126.093 733.421 125.842 733.16 125.341 733C124.85 732.829 124.104 732.744 123.101 732.744ZM145.571 721.592H147.587V736.408H145.571V721.592ZM139.939 727H143.379V728.712H139.939V727ZM142.499 721.864H144.483V735.768H142.499V721.864ZM135.283 731.384H136.323C137.016 731.384 137.646 731.373 138.211 731.352C138.787 731.331 139.331 731.293 139.843 731.24C140.366 731.187 140.894 731.107 141.427 731L141.603 732.728C141.048 732.845 140.504 732.931 139.971 732.984C139.438 733.037 138.872 733.075 138.275 733.096C137.688 733.117 137.038 733.128 136.323 733.128H135.283V731.384ZM135.283 723.272H140.947V724.952H137.379V732.12H135.283V723.272ZM159.746 721.576H161.874V736.44H159.746V721.576ZM153.89 722.616C154.647 722.616 155.319 722.835 155.906 723.272C156.492 723.699 156.951 724.312 157.282 725.112C157.623 725.901 157.794 726.835 157.794 727.912C157.794 729 157.623 729.944 157.282 730.744C156.951 731.533 156.492 732.147 155.906 732.584C155.319 733.011 154.647 733.224 153.89 733.224C153.143 733.224 152.476 733.011 151.89 732.584C151.303 732.147 150.839 731.533 150.498 730.744C150.167 729.944 150.002 729 150.002 727.912C150.002 726.835 150.167 725.901 150.498 725.112C150.839 724.312 151.303 723.699 151.89 723.272C152.476 722.835 153.143 722.616 153.89 722.616ZM153.89 724.552C153.527 724.552 153.207 724.68 152.93 724.936C152.652 725.192 152.434 725.571 152.274 726.072C152.124 726.563 152.05 727.176 152.05 727.912C152.05 728.637 152.124 729.256 152.274 729.768C152.434 730.269 152.652 730.648 152.93 730.904C153.207 731.16 153.527 731.288 153.89 731.288C154.263 731.288 154.588 731.16 154.866 730.904C155.143 730.648 155.356 730.269 155.506 729.768C155.666 729.256 155.746 728.637 155.746 727.912C155.746 727.176 155.666 726.563 155.506 726.072C155.356 725.571 155.143 725.192 154.866 724.936C154.588 724.68 154.263 724.552 153.89 724.552ZM174.608 721.576H176.736V736.44H174.608V721.576ZM172.064 726.808H174.864V728.536H172.064V726.808ZM164.96 731.384H166.16C166.982 731.384 167.739 731.373 168.432 731.352C169.136 731.331 169.819 731.293 170.48 731.24C171.142 731.187 171.819 731.112 172.512 731.016L172.72 732.696C172.006 732.813 171.302 732.899 170.608 732.952C169.926 733.005 169.222 733.043 168.496 733.064C167.771 733.085 166.992 733.096 166.16 733.096H164.96V731.384ZM164.96 722.824H171.824V724.552H167.088V731.912H164.96V722.824ZM166.592 726.952H171.328V728.616H166.592V726.952ZM183.57 729.182C183.57 727.773 183.758 726.475 184.133 725.29C184.512 724.104 185.089 723.006 185.866 721.994H188.178C187.883 722.369 187.608 722.828 187.354 723.369C187.101 723.907 186.879 724.498 186.69 725.142C186.5 725.786 186.353 726.453 186.246 727.142C186.14 727.828 186.087 728.508 186.087 729.182C186.087 730.08 186.178 730.987 186.36 731.903C186.546 732.816 186.796 733.665 187.11 734.449C187.428 735.233 187.784 735.875 188.178 736.375H185.866C185.089 735.364 184.512 734.265 184.133 733.08C183.758 731.894 183.57 730.595 183.57 729.182ZM194.623 723.364V735H192.163V725.699H192.094L189.43 727.369V725.188L192.31 723.364H194.623ZM197.388 735V733.227L201.531 729.392C201.883 729.051 202.178 728.744 202.417 728.472C202.659 728.199 202.843 727.932 202.968 727.67C203.093 727.405 203.156 727.119 203.156 726.812C203.156 726.472 203.078 726.178 202.923 725.932C202.767 725.682 202.555 725.491 202.286 725.358C202.017 725.222 201.712 725.153 201.371 725.153C201.015 725.153 200.705 725.225 200.44 725.369C200.174 725.513 199.97 725.72 199.826 725.989C199.682 726.258 199.61 726.578 199.61 726.949H197.275C197.275 726.187 197.447 725.527 197.792 724.966C198.137 724.405 198.62 723.972 199.241 723.665C199.862 723.358 200.578 723.205 201.388 723.205C202.222 723.205 202.947 723.352 203.565 723.648C204.186 723.939 204.669 724.345 205.013 724.864C205.358 725.383 205.531 725.977 205.531 726.648C205.531 727.087 205.443 727.521 205.269 727.949C205.099 728.377 204.794 728.852 204.354 729.375C203.915 729.894 203.296 730.517 202.496 731.244L200.798 732.909V732.989H205.684V735H197.388ZM217.435 721.592H219.579V732.424H217.435V721.592ZM214.891 725.912H217.739V727.64H214.891V725.912ZM212.779 722.712H215.003C215.003 724.045 214.737 725.251 214.203 726.328C213.67 727.405 212.897 728.339 211.883 729.128C210.881 729.917 209.659 730.541 208.219 731L207.339 729.304C208.481 728.941 209.457 728.483 210.267 727.928C211.078 727.363 211.697 726.723 212.123 726.008C212.561 725.283 212.779 724.504 212.779 723.672V722.712ZM208.107 722.712H214.123V724.408H208.107V722.712ZM209.867 734.456H219.947V736.168H209.867V734.456ZM209.867 731.352H211.995V735.448H209.867V731.352ZM226.288 730.335C226.288 731.748 226.098 733.047 225.719 734.233C225.344 735.419 224.769 736.517 223.992 737.528H221.68C221.975 737.153 222.25 736.695 222.504 736.153C222.757 735.612 222.979 735.021 223.168 734.381C223.358 733.737 223.505 733.07 223.612 732.381C223.718 731.691 223.771 731.009 223.771 730.335C223.771 729.437 223.678 728.532 223.492 727.619C223.31 726.703 223.06 725.854 222.742 725.074C222.428 724.29 222.074 723.648 221.68 723.148H223.992C224.769 724.159 225.344 725.258 225.719 726.443C226.098 727.629 226.288 728.926 226.288 730.335ZM239.636 724.872H243.348V726.584H239.636V724.872ZM236.228 722.216C236.975 722.216 237.642 722.371 238.228 722.68C238.826 722.979 239.295 723.395 239.636 723.928C239.978 724.451 240.148 725.059 240.148 725.752C240.148 726.435 239.978 727.043 239.636 727.576C239.295 728.109 238.826 728.531 238.228 728.84C237.642 729.139 236.975 729.288 236.228 729.288C235.492 729.288 234.826 729.139 234.228 728.84C233.642 728.531 233.178 728.109 232.836 727.576C232.495 727.043 232.324 726.435 232.324 725.752C232.324 725.059 232.495 724.451 232.836 723.928C233.178 723.395 233.642 722.979 234.228 722.68C234.826 722.371 235.492 722.216 236.228 722.216ZM236.228 723.976C235.866 723.976 235.54 724.045 235.252 724.184C234.975 724.323 234.756 724.525 234.596 724.792C234.436 725.059 234.356 725.379 234.356 725.752C234.356 726.115 234.436 726.429 234.596 726.696C234.756 726.963 234.975 727.165 235.252 727.304C235.54 727.443 235.866 727.512 236.228 727.512C236.591 727.512 236.911 727.443 237.188 727.304C237.476 727.165 237.7 726.963 237.86 726.696C238.02 726.429 238.1 726.115 238.1 725.752C238.1 725.379 238.02 725.059 237.86 724.792C237.7 724.525 237.476 724.323 237.188 724.184C236.911 724.045 236.591 723.976 236.228 723.976ZM242.404 721.608H244.548V729.56H242.404V721.608ZM234.708 730.216H236.82V731.608H242.436V730.216H244.548V736.264H234.708V730.216ZM236.82 733.24V734.568H242.436V733.24H236.82ZM246.867 733.064H260.291V734.792H246.867V733.064ZM252.499 730.248H254.611V733.752H252.499V730.248ZM248.387 722.552H258.771V727.496H250.515V729.976H248.403V725.832H256.659V724.248H248.387V722.552ZM248.403 729.144H259.107V730.84H248.403V729.144ZM263.154 728.44H273.57V730.12H263.154V728.44ZM261.586 732.904H275.01V734.632H261.586V732.904ZM263.154 722.808H273.458V724.536H265.266V729.144H263.154V722.808Z" fill="white"/>
</svg>
